<svg width="32" height="24" fill="none" xmlns="http://www.w3.org/2000/svg"><g clip-path="url(#a)"><path d="M0 0h32v24H0V0z" fill="#74ACDF"/><path d="M0 8h32v8H0V8z" fill="#fff"/><path d="m15.846 12.062 1.368 2.976s.024.058.063.044c.038-.02.014-.077.014-.077l-1.137-3.072m-.034 1.161c-.02.452.26.701.226 1.104-.039.408.182.634.24.792.048.159-.058.25-.015.274.048.024.144-.1.115-.326-.033-.221-.201-.288-.163-.783.039-.494-.201-.61-.144-1.056" fill="#F6B40E"/><path d="m15.846 12.062 1.368 2.976s.024.058.063.044c.038-.02.014-.077.014-.077l-1.137-3.072m-.034 1.161c-.02.452.26.701.226 1.104-.039.408.182.634.24.792.048.159-.058.25-.015.274.048.024.144-.1.115-.326-.033-.221-.201-.288-.163-.783.039-.494-.201-.61-.144-1.056" stroke="#85340A" stroke-width=".132"/><path d="m15.834 11.999.125 3.273s0 .062.041.064c.043-.003.043-.066.043-.066l.125-3.273m-.476 1.06c-.19.41-.029.747-.214 1.106-.192.363-.074.655-.081.824-.017.165-.15.208-.118.247.035.04.171-.038.231-.257.053-.217-.076-.344.149-.786.224-.442.047-.64.27-1.03" fill="#F6B40E"/><path d="m15.834 11.999.125 3.273s0 .062.041.064c.043-.003.043-.066.043-.066l.125-3.273m-.476 1.06c-.19.41-.029.747-.214 1.106-.192.363-.074.655-.081.824-.017.165-.15.208-.118.247.035.04.171-.038.231-.257.053-.217-.076-.344.149-.786.224-.442.047-.64.27-1.03" stroke="#85340A" stroke-width=".132"/><path d="m15.847 11.935-1.137 3.072s-.024.058.014.075c.04.013.064-.044.064-.044l1.368-2.977m-.845.798c-.333.305-.312.678-.621.94-.316.261-.32.577-.39.73-.079.146-.218.135-.204.183.017.05.173.03.312-.15.133-.18.061-.346.438-.668.377-.322.289-.574.645-.849" fill="#F6B40E"/><path d="m15.847 11.935-1.137 3.072s-.024.058.014.075c.04.013.064-.044.064-.044l1.368-2.977m-.845.798c-.333.305-.312.678-.621.94-.316.261-.32.577-.39.73-.079.146-.218.135-.204.183.017.05.173.03.312-.15.133-.18.061-.346.438-.668.377-.322.289-.574.645-.849" stroke="#85340A" stroke-width=".132"/><path d="m15.884 11.882-2.226 2.403s-.044.044-.016.074c.032.028.076-.016.076-.016l2.403-2.227m-1.086.414c-.424.155-.548.507-.934.63-.391.121-.515.412-.64.525-.128.105-.252.043-.258.092-.004.053.148.094.346-.019.19-.115.189-.296.66-.45.472-.154.486-.42.92-.537" fill="#F6B40E"/><path d="m15.884 11.882-2.226 2.403s-.044.044-.016.074c.032.028.076-.016.076-.016l2.403-2.227m-1.086.414c-.424.155-.548.507-.934.63-.391.121-.515.412-.64.525-.128.105-.252.043-.258.092-.004.053.148.094.346-.019.19-.115.189-.296.66-.45.472-.154.486-.42.92-.537" stroke="#85340A" stroke-width=".132"/><path d="M16.206 13.171c.024.432.27.624.221 1.023.106-.312-.149-.557-.134-1.018m-.37-1.142.936 2.044-.782-2.107" fill="#85340A"/><path d="M15.742 13.161c-.143.408.01.68-.187 1.03.217-.249.076-.572.265-.993m.096-1.196.082 2.247.084-2.246" fill="#85340A"/><path d="M15.318 12.974c-.289.323-.251.631-.567.88.295-.147.289-.5.625-.815m.546-1.07-.784 2.108.937-2.043" fill="#85340A"/><path d="M14.997 12.639c-.39.187-.474.487-.86.595.329-.022.457-.35.888-.514m.915-.778-1.531 1.647 1.647-1.53" fill="#85340A"/><path d="m15.938 11.846-2.977 1.368s-.057.024-.043.063c.02.038.077.014.077.014l3.072-1.137m-1.162-.034c-.45-.02-.7.26-1.103.226-.409-.039-.634.182-.793.24-.158.048-.25-.058-.273-.015-.024.048.1.144.326.115.221-.033.288-.201.783-.163.494.039.61-.201 1.056-.144" fill="#F6B40E"/><path d="m15.938 11.846-2.977 1.368s-.057.024-.043.063c.02.038.077.014.077.014l3.072-1.137m-1.162-.034c-.45-.02-.7.26-1.103.226-.409-.039-.634.182-.793.24-.158.048-.25-.058-.273-.015-.024.048.1.144.326.115.221-.033.288-.201.783-.163.494.039.61-.201 1.056-.144" stroke="#85340A" stroke-width=".132"/><path d="m16.001 11.834-3.273.125s-.062 0-.064.041c.003.043.066.043.066.043l3.273.125m-1.06-.476c-.41-.19-.747-.029-1.106-.214-.363-.192-.655-.074-.824-.081-.165-.017-.208-.15-.247-.118-.04.035.038.171.257.231.217.053.344-.076.786.149.442.224.64.047 1.03.27" fill="#F6B40E"/><path d="m16.001 11.834-3.273.125s-.062 0-.064.041c.003.043.066.043.066.043l3.273.125m-1.06-.476c-.41-.19-.747-.029-1.106-.214-.363-.192-.655-.074-.824-.081-.165-.017-.208-.15-.247-.118-.04.035.038.171.257.231.217.053.344-.076.786.149.442.224.64.047 1.03.27" stroke="#85340A" stroke-width=".132"/><path d="m16.064 11.847-3.071-1.137s-.058-.024-.075.014c-.013.04.044.064.044.064l2.977 1.368m-.798-.845c-.305-.333-.678-.312-.94-.621-.261-.316-.577-.32-.73-.39-.146-.079-.135-.218-.183-.204-.05.017-.03.173.15.312.18.133.346.061.668.438.322.377.574.288.849.645" fill="#F6B40E"/><path d="m16.064 11.847-3.071-1.137s-.058-.024-.075.014c-.013.04.044.064.044.064l2.977 1.368m-.798-.845c-.305-.333-.678-.312-.94-.621-.261-.316-.577-.32-.73-.39-.146-.079-.135-.218-.183-.204-.05.017-.03.173.15.312.18.133.346.061.668.438.322.377.574.288.849.645" stroke="#85340A" stroke-width=".132"/><path d="m16.118 11.884-2.403-2.226s-.044-.044-.074-.016c-.028.032.016.076.016.076l2.227 2.403m-.414-1.086c-.155-.424-.507-.548-.63-.934-.121-.391-.412-.515-.525-.64-.105-.128-.043-.252-.092-.258-.053-.004-.094.148.019.346.115.19.296.189.45.66.154.472.42.486.537.92" fill="#F6B40E"/><path d="m16.118 11.884-2.403-2.226s-.044-.044-.074-.016c-.028.032.016.076.016.076l2.227 2.403m-.414-1.086c-.155-.424-.507-.548-.63-.934-.121-.391-.412-.515-.525-.64-.105-.128-.043-.252-.092-.258-.053-.004-.094.148.019.346.115.19.296.189.45.66.154.472.42.486.537.92" stroke="#85340A" stroke-width=".132"/><path d="M14.829 12.206c-.432.024-.624.27-1.023.221.312.106.557-.149 1.018-.134m1.142-.37-2.044.936 2.107-.782" fill="#85340A"/><path d="M14.839 11.742c-.408-.143-.68.01-1.03-.187.249.217.572.076.993.265m1.196.096-2.247.082 2.246.084" fill="#85340A"/><path d="M15.026 11.318c-.322-.289-.631-.251-.88-.567.147.295.5.289.815.625m1.07.546-2.108-.784 2.043.937" fill="#85340A"/><path d="M15.361 10.997c-.187-.39-.487-.474-.595-.86.022.329.35.457.513.889m.779.914-1.647-1.531 1.529 1.647" fill="#85340A"/><path d="m16.154 11.938-1.368-2.976s-.024-.058-.063-.044c-.038.02-.014.077-.014.077l1.137 3.072m.034-1.161c.02-.452-.26-.701-.226-1.104.039-.408-.182-.634-.24-.792-.048-.159.058-.25.015-.274-.048-.024-.144.1-.115.326.033.221.201.288.163.783-.039.494.201.61.144 1.056" fill="#F6B40E"/><path d="m16.154 11.938-1.368-2.976s-.024-.058-.063-.044c-.038.02-.014.077-.014.077l1.137 3.072m.034-1.161c.02-.452-.26-.701-.226-1.104.039-.408-.182-.634-.24-.792-.048-.159.058-.25.015-.274-.048-.024-.144.1-.115.326.033.221.201.288.163.783-.039.494.201.61.144 1.056" stroke="#85340A" stroke-width=".132"/><path d="m16.166 12.001-.125-3.273s0-.062-.041-.064c-.043.003-.043.066-.043.066l-.125 3.273m.476-1.06c.19-.41.029-.747.214-1.106.192-.363.074-.655.081-.824.017-.165.15-.208.118-.247-.035-.04-.171.038-.231.257-.053.217.076.344-.149.786-.224.442-.047.64-.27 1.03" fill="#F6B40E"/><path d="m16.166 12.001-.125-3.273s0-.062-.041-.064c-.043.003-.043.066-.043.066l-.125 3.273m.476-1.06c.19-.41.029-.747.214-1.106.192-.363.074-.655.081-.824.017-.165.15-.208.118-.247-.035-.04-.171.038-.231.257-.053.217.076.344-.149.786-.224.442-.047.64-.27 1.03" stroke="#85340A" stroke-width=".132"/><path d="m16.153 12.065 1.137-3.072s.024-.058-.014-.075c-.04-.013-.064.044-.064.044l-1.368 2.977m.845-.798c.333-.305.312-.678.621-.94.316-.261.32-.577.39-.73.079-.146.218-.135.204-.183-.017-.05-.173-.03-.312.15-.133.18-.061.346-.438.668-.377.322-.289.574-.645.849" fill="#F6B40E"/><path d="m16.153 12.065 1.137-3.072s.024-.058-.014-.075c-.04-.013-.064.044-.064.044l-1.368 2.977m.845-.798c.333-.305.312-.678.621-.94.316-.261.32-.577.39-.73.079-.146.218-.135.204-.183-.017-.05-.173-.03-.312.15-.133.18-.061.346-.438.668-.377.322-.289.574-.645.849" stroke="#85340A" stroke-width=".132"/><path d="m16.116 12.118 2.226-2.403s.044-.044.016-.074c-.032-.028-.076.016-.076.016l-2.403 2.227m1.086-.414c.424-.155.548-.507.934-.63.391-.121.515-.412.64-.525.128-.105.252-.043.258-.092.004-.053-.148-.094-.346.019-.19.115-.189.296-.66.45-.471.154-.486.42-.92.537" fill="#F6B40E"/><path d="m16.116 12.118 2.226-2.403s.044-.044.016-.074c-.032-.028-.076.016-.076.016l-2.403 2.227m1.086-.414c.424-.155.548-.507.934-.63.391-.121.515-.412.64-.525.128-.105.252-.043.258-.092.004-.053-.148-.094-.346.019-.19.115-.189.296-.66.45-.471.154-.486.42-.92.537" stroke="#85340A" stroke-width=".132"/><path d="M15.794 10.829c-.024-.432-.27-.624-.221-1.023-.106.312.149.557.134 1.018m.37 1.142-.936-2.044.782 2.107" fill="#85340A"/><path d="M16.258 10.839c.143-.408-.01-.68.187-1.03-.217.249-.076.572-.265.993m-.096 1.196-.082-2.247-.084 2.246" fill="#85340A"/><path d="M16.682 11.026c.289-.323.251-.631.567-.88-.295.147-.288.5-.624.815m-.547 1.07.784-2.108-.937 2.043" fill="#85340A"/><path d="M17.003 11.361c.39-.187.474-.487.86-.595-.328.022-.457.35-.889.514m-.913.778 1.53-1.647-1.647 1.53" fill="#85340A"/><path d="m16.063 12.154 2.976-1.368s.057-.024.043-.063c-.02-.038-.077-.014-.077-.014l-3.072 1.137m1.162.034c.45.02.7-.26 1.104-.226.407.039.633-.182.791-.24.159-.048.25.058.274.015.024-.048-.1-.144-.326-.115-.221.033-.288.201-.783.163-.494-.039-.61.201-1.056.144" fill="#F6B40E"/><path d="m16.063 12.154 2.976-1.368s.057-.024.043-.063c-.02-.038-.077-.014-.077-.014l-3.072 1.137m1.162.034c.45.02.7-.26 1.104-.226.407.039.633-.182.791-.24.159-.048.25.058.274.015.024-.048-.1-.144-.326-.115-.221.033-.288.201-.783.163-.494-.039-.61.201-1.056.144" stroke="#85340A" stroke-width=".132"/><path d="m15.999 12.166 3.273-.125s.062 0 .064-.041c-.003-.043-.066-.043-.066-.043l-3.273-.125m1.06.476c.41.19.747.029 1.106.214.363.192.655.074.824.081.165.017.208.15.247.118.04-.035-.038-.171-.257-.231-.217-.053-.343.076-.786-.149-.442-.224-.64-.047-1.03-.27" fill="#F6B40E"/><path d="m15.999 12.166 3.273-.125s.062 0 .064-.041c-.003-.043-.066-.043-.066-.043l-3.273-.125m1.06.476c.41.19.747.029 1.106.214.363.192.655.074.824.081.165.017.208.15.247.118.04-.035-.038-.171-.257-.231-.217-.053-.343.076-.786-.149-.442-.224-.64-.047-1.03-.27" stroke="#85340A" stroke-width=".132"/><path d="m15.935 12.153 3.072 1.137s.058.024.075-.014c.013-.04-.044-.064-.044-.064l-2.977-1.368m.798.845c.305.333.678.312.94.621.261.316.577.32.73.39.146.079.135.218.183.204.05-.017.03-.173-.15-.312-.18-.133-.346-.061-.668-.438-.322-.377-.574-.288-.849-.645" fill="#F6B40E"/><path d="m15.935 12.153 3.072 1.137s.058.024.075-.014c.013-.04-.044-.064-.044-.064l-2.977-1.368m.798.845c.305.333.678.312.94.621.261.316.577.32.73.39.146.079.135.218.183.204.05-.017.03-.173-.15-.312-.18-.133-.346-.061-.668-.438-.322-.377-.574-.288-.849-.645" stroke="#85340A" stroke-width=".132"/><path d="m15.882 12.116 2.403 2.226s.044.044.074.016c.028-.032-.016-.076-.016-.076l-2.227-2.403m.414 1.086c.155.424.507.548.63.934.121.391.412.515.525.64.105.128.043.252.092.258.053.004.094-.148-.019-.346-.115-.19-.296-.189-.45-.66-.154-.472-.42-.486-.537-.92" fill="#F6B40E"/><path d="m15.882 12.116 2.403 2.226s.044.044.074.016c.028-.032-.016-.076-.016-.076l-2.227-2.403m.414 1.086c.155.424.507.548.63.934.121.391.412.515.525.64.105.128.043.252.092.258.053.004.094-.148-.019-.346-.115-.19-.296-.189-.45-.66-.154-.472-.42-.486-.537-.92" stroke="#85340A" stroke-width=".132"/><path d="M17.171 11.794c.432-.024.624-.27 1.023-.221-.312-.106-.557.149-1.018.134m-1.142.37 2.044-.936-2.107.782" fill="#85340A"/><path d="M17.161 12.258c.408.143.68-.01 1.03.187-.249-.217-.572-.076-.992-.265m-1.197-.096 2.247-.082-2.246-.084" fill="#85340A"/><path d="M16.974 12.682c.323.289.631.251.88.567-.147-.295-.5-.289-.815-.625m-1.07-.546 2.108.784-2.043-.937" fill="#85340A"/><path d="M16.639 13.003c.187.39.487.474.595.86-.022-.329-.35-.457-.513-.889m-.779-.914 1.647 1.531-1.529-1.647" fill="#85340A"/><path d="M16 13.335a1.335 1.335 0 1 0 0-2.67 1.335 1.335 0 0 0 0 2.67z" fill="#F6B40E" stroke="#85340A" stroke-width=".175"/><path d="M16.45 11.715a.265.265 0 0 0-.225.12c.1.095.33.1.485-.01a.35.35 0 0 0-.255-.11h-.005zm0 .02c.09 0 .175.04.185.08-.1.115-.265.1-.37.02.05-.07.12-.1.19-.1h-.005z" fill="#843511"/><path d="M16.47 11.65c-.135 0-.165.03-.225.085-.06.05-.095.04-.1.05-.015.01 0 .04.015.03a.465.465 0 0 0 .125-.08c.06-.05.125-.05.185-.05.185 0 .285.15.305.14.025-.01-.1-.175-.305-.175z" fill="#85340A"/><path d="M16.84 11.715c-.235-.205-.535-.24-.7-.085a.4.4 0 0 0-.075.17c-.02.12.015.245.105.375l-.04.02c-.08-.155-.11-.315-.08-.47l.03-.115c.225-.185.535-.2.76.1v.005z" fill="#85340A"/><path d="M16.45 11.905a.09.09 0 1 0 0-.18.09.09 0 0 0 0 .18z" fill="#85340A"/><path d="M16.715 11.875c-.175.135-.35.125-.45.065-.1-.065-.1-.085-.08-.085.02 0 .04.02.12.065.085.04.205.04.41-.045zM15.8 12.185a.09.09 0 0 0-.063.053.092.092 0 0 0 .007.082.09.09 0 0 0 .146.01.2.2 0 0 0 .11.03h.01c.03 0 .08-.005.115-.03.015.025.045.035.075.035a.09.09 0 1 0 .015-.18c.025.01.04.03.04.06a.06.06 0 1 1-.12 0 .149.149 0 0 1-.13.085.15.15 0 0 1-.125-.085c0 .035-.03.06-.065.06-.03 0-.06-.03-.06-.06s.015-.05.04-.06h.005zm.1.27c-.105 0-.15.1-.24.155.05-.02.09-.06.165-.1.07-.04.13.01.175.01.04 0 .1-.05.175-.01.07.04.115.08.165.1-.095-.06-.135-.15-.24-.15-.02 0-.06.01-.1.03l-.1-.035z" fill="#85340A"/><path d="M15.86 12.58c-.04 0-.09.01-.17.03.185-.04.225.025.31.025.08 0 .125-.065.305-.025-.2-.06-.245-.02-.305-.02-.04 0-.07-.015-.14-.01z" fill="#85340A"/><path d="M15.7 12.61h-.04c.215.025.115.15.34.15.225 0 .125-.125.34-.15-.225-.02-.155.115-.34.115-.175 0-.12-.115-.3-.115z" fill="#85340A"/><path d="M16.185 12.945a.185.185 0 1 0-.37 0 .19.19 0 0 1 .303-.106.19.19 0 0 1 .067.106zM15.17 11.715c.235-.205.535-.24.7-.085a.4.4 0 0 1 .075.17.506.506 0 0 1-.105.375l.04.02a.718.718 0 0 0 .08-.47l-.03-.115c-.225-.185-.535-.2-.76.1v.005z" fill="#85340A"/><path d="M15.54 11.65c.135 0 .165.03.225.085.06.05.095.04.1.05.015.01 0 .04-.015.03a.465.465 0 0 1-.125-.08c-.06-.05-.125-.05-.185-.05-.185 0-.285.15-.305.14-.025-.01.1-.175.305-.175z" fill="#85340A"/><path d="M15.53 11.715a.265.265 0 0 0-.225.12c.1.095.33.1.485-.01a.35.35 0 0 0-.255-.11h-.005zm0 .02c.09 0 .175.04.185.08-.1.115-.265.1-.37.02.05-.07.12-.1.19-.1h-.005z" fill="#843511"/><path d="M15.545 11.905a.09.09 0 1 0 0-.18.09.09 0 0 0 0 .18z" fill="#85340A"/><path d="M15.295 11.875c.175.135.35.125.45.065.1-.065.1-.085.08-.085-.02 0-.04.02-.12.065-.085.04-.205.04-.41-.045z" fill="#85340A"/></g><defs><clipPath id="a"><path fill="#fff" d="M0 0h32v24H0z"/></clipPath></defs></svg>