<svg width="32" height="24" fill="none" xmlns="http://www.w3.org/2000/svg"><g clip-path="url(#a)"><path fill-rule="evenodd" clip-rule="evenodd" d="M0 0h32v24H0V0z" fill="#229E45"/><path fill-rule="evenodd" clip-rule="evenodd" d="m16.07 21.8 15.075-9.785L15.98 2.2.855 12.035 16.07 21.8z" fill="#F8E509"/><path fill-rule="evenodd" clip-rule="evenodd" d="M22.64 12a6.37 6.37 0 1 1-12.74-.01 6.37 6.37 0 0 1 12.74.01z" fill="#2B49A3"/><path fill-rule="evenodd" clip-rule="evenodd" d="m14.165 15.815-.2-.115-.2.1.045-.225-.16-.17.225-.025.11-.2.095.21.22.04-.165.15m4.3 1.315-.195-.115-.2.1.04-.225-.155-.165.225-.025.105-.205.1.21.22.04-.17.155m-1.81-1.5-.17-.1-.175.09.04-.195-.14-.145.2-.02.09-.18.08.185.195.035-.15.135m4.35-.425-.17-.1-.175.09.04-.195-.135-.14.195-.02.09-.175.08.18.19.035-.145.13m-4.365-1.1-.2-.11-.2.1.04-.23-.155-.165.225-.025.105-.205.1.21.22.04-.17.16m-5.23-1.75-.2-.11-.2.1.05-.23-.165-.165.23-.025.1-.205.1.21.22.04-.165.155m.665 2.86-.2-.115-.2.1.045-.225-.16-.165.225-.03.105-.2.1.21.22.04-.165.155m6.6-3.365-.18-.1-.18.09.04-.2-.14-.15.2-.025.095-.18.085.19.2.035-.15.135m-.335 1.915-.135-.08-.145.07.03-.16-.11-.115.16-.02.075-.14.065.15.15.025-.11.11m-7.11 2.52-.135-.075-.135.065.03-.15-.105-.11.15-.02.07-.135.065.14.15.03-.115.1m10.01.765-.11-.055-.11.05.025-.115-.085-.08.12-.015.06-.1.05.1.125.025-.095.075" fill="#FFFFEF"/><path fill-rule="evenodd" clip-rule="evenodd" d="m10.965 14.38-.135-.075-.135.065.03-.15-.105-.11.15-.02.07-.135.065.14.15.03-.115.1" fill="#FFFFEF"/><path fill-rule="evenodd" clip-rule="evenodd" d="m10.965 14.38-.135-.075-.135.065.03-.15-.105-.11.15-.02.07-.135.065.14.15.03-.115.1m2.115.15-.13-.07-.135.065.03-.15-.105-.11.15-.02.07-.135.065.14.15.025-.115.105m-.24.85-.13-.075-.135.07.03-.15-.105-.115.15-.02.07-.135.065.14.15.03-.115.1m4.37-1.11-.13-.08-.14.07.03-.15-.1-.115.15-.015.07-.135.06.14.15.025-.11.105m-1.255.15-.135-.075-.135.07.03-.15-.1-.115.15-.015.07-.14.06.145.15.025-.11.105m-3.44-.29-.085-.05-.085.04.02-.095-.065-.07.095-.01.04-.085.04.09.095.015-.07.065m8.39 2.27-.13-.075-.135.07.03-.15-.105-.115.15-.02.07-.135.065.14.15.03-.115.1m-1.04.3-.11-.07-.115.06.025-.13-.085-.09.125-.015.06-.115.05.12.125.02-.095.09m.52.115-.1-.06-.105.05.02-.115-.08-.085.115-.015.055-.1.05.1.115.025-.085.08m1.455-1.14-.1-.05-.1.05.025-.115-.08-.085.115-.015.05-.1.05.105.105.02-.08.08m-1.94 2.09-.125-.07-.135.06.03-.14-.1-.1.15-.015.065-.125.06.13.15.025-.115.095m.03.71-.12-.07-.12.065.03-.14-.095-.1.135-.02.06-.125.055.13.135.025-.1.1m-.95-1.155-.095-.06-.1.05.02-.11-.075-.085.11-.01.05-.1.05.1.11.02-.08.08m-.89.115-.1-.06-.1.05.025-.11-.08-.085.115-.01.05-.1.05.1.105.02-.08.08m-1.52-1.23-.1-.055-.1.05.025-.115-.08-.08.11-.015.05-.1.05.1.11.025-.08.075m.185 2.85-.08-.045-.09.045.02-.1-.065-.07.095-.01.045-.085.04.09.095.015-.07.065m-2.31-4.33-.2-.115-.2.1.045-.225-.16-.165.225-.03.11-.2.095.21.22.04-.165.155" fill="#FFFFEF"/><path fill-rule="evenodd" clip-rule="evenodd" d="M22.22 14.29c.124-.321.22-.653.29-.99-3.39-2.975-7.165-4.5-11.935-4.185a6.23 6.23 0 0 0-.425 1.045c5.65-.54 9.8 1.96 12.07 4.13z" fill="#fff"/><path d="m20.7 12.62.115.065a.17.17 0 0 0-.015.11.15.15 0 0 0 .07.085c.035.025.07.04.1.035.03 0 .05-.015.065-.035a.065.065 0 0 0 .01-.045.114.114 0 0 0-.025-.05.612.612 0 0 0-.075-.09.385.385 0 0 1-.09-.15.186.186 0 0 1 .1-.22.19.19 0 0 1 .115-.01c.047.01.091.031.13.06.07.05.115.1.13.16a.206.206 0 0 1-.03.165l-.12-.075c.015-.03.02-.06.01-.085-.005-.025-.025-.05-.06-.07a.16.16 0 0 0-.09-.035.05.05 0 0 0-.045.025c-.01.015-.01.03-.005.05.005.02.03.06.08.11s.08.095.1.125a.194.194 0 0 1-.015.21.205.205 0 0 1-.095.075.2.2 0 0 1-.12.015.388.388 0 0 1-.14-.065c-.075-.05-.12-.105-.135-.165a.27.27 0 0 1 .03-.2l.005.005zm-.58-.38.125.065a.17.17 0 0 0-.01.11.15.15 0 0 0 .07.08c.04.025.07.035.1.03.03 0 .05-.015.065-.04a.065.065 0 0 0 .01-.04c0-.015-.01-.035-.025-.05a1.748 1.748 0 0 0-.08-.09c-.055-.055-.09-.1-.1-.14a.185.185 0 0 1 .1-.225.19.19 0 0 1 .11-.015.35.35 0 0 1 .13.05c.075.05.12.1.135.155a.204.204 0 0 1-.02.17l-.125-.07c.015-.035.02-.06.01-.085a.143.143 0 0 0-.065-.07.16.16 0 0 0-.095-.03.05.05 0 0 0-.04.025c-.01.015-.01.03-.005.05.005.02.035.06.085.11s.085.09.1.12a.194.194 0 0 1 0 .21.21.21 0 0 1-.09.08.2.2 0 0 1-.12.015.4.4 0 0 1-.145-.055.3.3 0 0 1-.14-.16.27.27 0 0 1 .02-.2zm-.71-.19.365-.6.44.275-.06.1-.32-.2-.08.135.3.185-.065.1-.3-.185-.1.165.335.2-.06.1-.45-.275h-.005zm-1.035-.85.055-.1.27.135-.125.25a.461.461 0 0 1-.315-.04.385.385 0 0 1-.15-.13.3.3 0 0 1-.05-.175.432.432 0 0 1 .18-.335.31.31 0 0 1 .18-.055c.05 0 .1.015.16.05.08.035.13.085.155.14a.25.25 0 0 1 .015.175l-.135-.04a.15.15 0 0 0-.01-.1c-.015-.03-.04-.05-.08-.07a.19.19 0 0 0-.155-.015c-.05.015-.095.06-.13.13s-.05.135-.035.19a.186.186 0 0 0 .1.12.169.169 0 0 0 .085.025c.03.005.06.005.09 0l.04-.08-.145-.075zm-4.51-1.115.1-.7.21.035.055.49.195-.45.21.03-.1.69-.135-.02.085-.545-.22.525-.135-.02-.055-.565-.08.55-.13-.02zM13.16 10l.065-.7.515.05-.01.12-.375-.035-.015.15.35.035-.015.12-.35-.035-.015.19.39.035-.01.12-.53-.05zM10.825 9.565a.46.46 0 0 1 .035-.18.338.338 0 0 1 .16-.155c.05-.015.1-.025.15-.025.105 0 .185.04.25.1a.368.368 0 0 1 .08.275c0 .11-.035.2-.1.265a.325.325 0 0 1-.25.085.33.33 0 0 1-.24-.1.365.365 0 0 1-.085-.265z" fill="#309E3A"/><path d="M10.97 9.565c0 .075.015.135.05.18.035.04.08.065.14.065a.175.175 0 0 0 .14-.055c.035-.04.05-.1.055-.185 0-.08-.01-.14-.05-.18a.176.176 0 0 0-.135-.065.18.18 0 0 0-.14.06c-.04.04-.055.1-.06.18z" fill="#F7FFFF"/><path d="m11.65 9.925.01-.7h.3c.075 0 .125.01.16.025.035.01.06.035.08.065.02.03.03.07.03.115a.19.19 0 0 1-.05.13.225.225 0 0 1-.135.06l.075.06c.02.02.045.06.075.115l.085.14h-.17l-.1-.16-.07-.1a.105.105 0 0 0-.045-.03.25.25 0 0 0-.07-.01h-.03v.29h-.145z" fill="#309E3A"/><path d="M11.8 9.525h.1c.07 0 .115 0 .13-.01.015 0 .03-.015.04-.025.01-.01.015-.035.015-.05 0-.03-.005-.05-.02-.06-.01-.015-.03-.025-.05-.03h-.1l-.115-.005v.18z" fill="#fff"/><path d="m12.45 9.26.26.015c.055 0 .1.005.13.015a.234.234 0 0 1 .1.07c.029.035.05.076.06.12.015.045.02.1.015.165a.464.464 0 0 1-.025.15c-.02.05-.05.09-.085.12a.25.25 0 0 1-.1.05c-.03.01-.075.01-.125.01l-.265-.015.035-.7z" fill="#309E3A"/><path d="m12.585 9.385-.025.465h.19c.025 0 .045-.01.06-.025a.16.16 0 0 0 .04-.065c.01-.03.02-.075.02-.13l-.005-.125a.162.162 0 0 0-.04-.07.135.135 0 0 0-.06-.035.65.65 0 0 0-.115-.015h-.065z" fill="#fff"/><path d="m15.88 10.51.165-.68.22.05.16.05a.17.17 0 0 1 .08.095c.02.04.02.085.01.14a.21.21 0 0 1-.05.1.194.194 0 0 1-.15.07.764.764 0 0 1-.15-.025l-.085-.025-.06.26-.14-.035z" fill="#309E3A"/><path d="m16.15 9.98-.04.19.075.02c.05.01.09.02.11.015a.095.095 0 0 0 .08-.075c0-.025 0-.045-.01-.065a.1.1 0 0 0-.05-.045l-.095-.025-.065-.015h-.005z" fill="#fff"/><path d="m16.53 10.705.235-.66.275.1a.61.61 0 0 1 .15.07c.025.025.045.05.05.09.005.04.01.075 0 .115a.22.22 0 0 1-.09.11.242.242 0 0 1-.15.015c.02.025.04.05.05.08l.04.135.03.155-.155-.055-.05-.18a.963.963 0 0 0-.035-.12.104.104 0 0 0-.03-.04c-.01-.015-.03-.025-.065-.035l-.025-.01-.1.28-.13-.05z" fill="#309E3A"/><path d="m16.8 10.37.095.035a.434.434 0 0 0 .125.035c.015 0 .03 0 .045-.015a.073.073 0 0 0 .03-.045c.01-.02.01-.04 0-.06a.085.085 0 0 0-.04-.045l-.1-.035-.1-.035-.06.165h.005z" fill="#fff"/><path d="M17.35 10.68a.448.448 0 0 1 .085-.16.327.327 0 0 1 .19-.11c.05 0 .1 0 .155.02a.325.325 0 0 1 .21.165c.04.08.04.175.01.285a.37.37 0 0 1-.17.225.311.311 0 0 1-.26.02.332.332 0 0 1-.21-.165.364.364 0 0 1-.01-.28z" fill="#309E3A"/><path d="M17.49 10.72c-.02.075-.025.14 0 .19.025.05.06.08.115.1.05.015.1.01.15-.02.05-.025.08-.08.105-.16.025-.075.025-.135 0-.185a.176.176 0 0 0-.11-.1.181.181 0 0 0-.15.015c-.05.03-.085.08-.11.16z" fill="#fff"/><path d="m18.715 11.655.32-.62.265.135c.05.024.095.056.135.095.025.025.04.055.04.095s0 .075-.02.11a.19.19 0 0 1-.1.1c-.05.01-.1.01-.155-.01.02.03.03.06.04.085.01.03.015.075.02.14l.01.16-.15-.075-.02-.185a1.008 1.008 0 0 0-.015-.125.1.1 0 0 0-.025-.05l-.06-.035-.025-.015-.135.26-.125-.065z" fill="#309E3A"/><path d="m19.025 11.36.095.05c.06.03.1.05.115.05s.035 0 .05-.01c.015-.005.025-.02.035-.04.01-.02.015-.04.01-.06a.1.1 0 0 0-.035-.05 1.145 1.145 0 0 0-.09-.05l-.1-.05-.08.16z" fill="#fff"/><path d="M21.305 12.935a.445.445 0 0 1 .125-.13.33.33 0 0 1 .11-.045.275.275 0 0 1 .11 0c.05.01.095.03.14.06a.33.33 0 0 1 .15.22.393.393 0 0 1-.07.275.365.365 0 0 1-.225.165.324.324 0 0 1-.26-.055.33.33 0 0 1-.15-.22.37.37 0 0 1 .07-.27z" fill="#309E3A"/><path d="M21.43 13.015c-.05.065-.065.125-.055.18a.18.18 0 0 0 .08.125c.05.035.1.045.15.03.05-.015.1-.05.145-.12.045-.07.065-.13.055-.18a.193.193 0 0 0-.08-.13.163.163 0 0 0-.15-.025c-.05.01-.1.05-.15.12h.005z" fill="#fff"/><path d="m15.09 10.225.115-.49.36.085-.015.08-.265-.06-.025.11.245.055-.02.085-.245-.06-.03.135.275.065-.02.08-.375-.085z" fill="#309E3A"/></g><defs><clipPath id="a"><path fill="#fff" d="M0 0h32v24H0z"/></clipPath></defs></svg>