<svg width="52" height="52" fill="none" xmlns="http://www.w3.org/2000/svg"><g clip-path="url(#a)"><path d="M7.417 0h37.155v52.5H7.406L7.417 0z" fill="#fff"/><path d="M-11.155 0H7.417v52.5h-18.572V0zm55.727 0h18.572v52.5H44.583L44.572 0zM12.984 25.375l-1.454.481 6.715 5.906c.514 1.499-.175 1.947-.612 2.735l7.284-.919-.175 7.328 1.52-.033-.339-7.284 7.296.875c-.449-.951-.854-1.455-.438-2.975l6.705-5.578-1.17-.438c-.963-.743.415-3.565.612-5.348 0 0-3.905 1.345-4.156.634l-1.006-1.914-3.566 3.916c-.383.098-.547-.055-.645-.383l1.64-8.181-2.603 1.466c-.219.098-.437.01-.569-.241l-2.515-5.031-2.581 5.228c-.197.186-.394.208-.547.076l-2.505-1.389 1.498 8.105c-.12.328-.404.416-.733.24l-3.412-3.86c-.438.71-.744 1.87-1.334 2.132-.591.252-2.57-.492-3.894-.765.46 1.619 1.86 4.331.984 5.217z" fill="#D52B1E"/></g><defs><clipPath id="a"><path fill="#fff" transform="translate(-9)" d="M0 0h70v52.5H0z"/></clipPath></defs></svg>