<svg width="32" height="24" fill="none" xmlns="http://www.w3.org/2000/svg"><g clip-path="url(#a)"><path d="M0 0h32v24H0V0z" fill="#fff"/><path d="M0 0h13.6v9.6H0V0zm18.4 14.4H32V24H18.4v-9.6z" fill="#002D62"/><path d="M0 14.4h13.6V24H0v-9.6zM18.4 0H32v9.6H18.4V0z" fill="#CE1126"/><path d="M15.37 9.83a1.745 1.745 0 0 0-.95.245c-.13.08-.16.105-.09.235l-.165.055a1.905 1.905 0 0 0-.3.135c-.06.035-.08.06-.125.105l.265-.02-.035.06c-.05.065-.075.115-.115.185.075-.05.145-.1.23-.14.19-.1.535-.1.675-.27.035-.045.015-.07-.015-.14.1-.03.145-.055.27-.085.305-.07.515.015.665-.025.05-.01.09-.035.095-.085l-.025-.15h.5c0 .085-.085.2.07.235.14.04.42-.04.665.025l.27.09-.025.065c-.015.03-.01.05.01.07.025.03.06.06.1.08.088.046.183.08.28.1.285.065.31.085.525.23-.015-.045-.115-.195-.15-.25l.265.025c-.05-.07-.185-.145-.265-.175l-.325-.12c.03-.05.05-.1.025-.15a1.201 1.201 0 0 0-.385-.215 3.419 3.419 0 0 0-.35-.08l-.34-.035c-.015-.015.03-.1-.04-.165a.322.322 0 0 0-.165-.05 5.748 5.748 0 0 0-.83 0c-.075.005-.125.015-.165.05-.05.05-.055.075-.05.165z" fill="#201B18"/><path d="M15.435 10.005c.04-.03.045-.04.1-.06.13-.045.33-.04.465-.04.11 0 .215 0 .325.01.11.01.17.025.245.085.015-.075.03-.14.03-.225.005-.09-.05-.115-.125-.13-.13-.03-.35-.025-.5-.025a3.15 3.15 0 0 0-.485.03c-.06.02-.11.07-.1.15 0 .045.03.18.05.205h-.005z" fill="#002D62"/><path d="M14.47 10.435c.02-.02.005-.04.11-.1.146-.079.303-.136.465-.17.13-.025.265-.025.4-.015.06.005.14.015.2.005 0 0 .065-.015.085-.03.02-.02.02-.07.02-.07-.045-.035-.17.09-.28.05-.035-.01-.05-.07-.06-.115l-.04-.135a1.755 1.755 0 0 0-.75.14c-.09.04-.23.11-.285.165-.05.05 0 .12.03.155.03.045.08.1.1.12h.005zm1.78-.38c-.01.07.04.09.105.1.135.02.335-.04.6.01.11.023.217.057.32.1.04.02.18.08.205.11l.05.06c.015-.005.09-.1.105-.12.035-.035.075-.1.03-.155a1.248 1.248 0 0 0-.285-.165 1.94 1.94 0 0 0-.39-.105c-.125-.02-.38-.04-.38-.04s-.015.235-.08.255c-.125.04-.19-.07-.28-.05z" fill="#002D62"/><path d="M17.25 10.35c-.01.03-.025.035.045.09.15.13.42.135.58.205.085.04.13.07.205.115-.005-.025-.1-.16-.125-.2l.245.01-.01-.01c-.11-.095-.395-.185-.535-.23l-.125.14c-.015.015-.03.03-.065.02-.04-.015-.075-.05-.1-.075-.03-.025-.08-.065-.115-.07v.005zm-1-.32c.085.005.095.02.15.05l.09.01c.045 0 .05-.01.06-.045.015-.05-.065-.08-.1-.085l-.175-.03-.025.1zm-.5 0-.02-.1c-.05 0-.3.04-.28.115.01.035.015.04.05.05.11.005.13-.06.25-.065zm-1.26.42c.035.065.13-.05.185-.09.03-.025.035-.02.07-.035l-.02-.035-.135.065c-.04.025-.09.05-.1.1v-.005z" fill="#002D62"/><path d="M17.255 10.325c.015 0 .025.005.04.015.08.045.175.165.215.12.02-.025-.065-.085-.09-.1l-.14-.065a.082.082 0 0 0-.025.03zm-2.51.025c.01.035.025.04-.04.095-.16.125-.42.135-.585.205-.085.035-.13.065-.2.11 0-.02.1-.16.125-.2l-.25.015.015-.01c.11-.1.39-.185.53-.235l.045.05c.026.032.052.064.08.095.02.015.03.025.065.015.045-.01.08-.05.1-.07.03-.025.08-.07.115-.07z" fill="#002D62"/><path d="M14.785 9.99c-.025 0-.045.01-.065.015-.005 0-.025.01-.01.015.01.005.01.02.015.03l.015.045.025.07c0 .005 0 .02.01.015l.04-.015a.067.067 0 0 0 .04-.035l.01-.025a.04.04 0 0 0 0-.02c0-.01 0-.02-.01-.03a.088.088 0 0 0-.02-.04c-.01-.01-.02-.02-.035-.02a.04.04 0 0 0-.015-.005zm-.01.015c.01 0 .025.01.03.025l.02.035.01.065c0 .01-.015.015-.025.025-.01 0-.02-.005-.02-.015l-.01-.03-.02-.05a.249.249 0 0 1-.01-.04c0-.01.01-.015.02-.015h.005zm.085-.045.015.015.01.03.005.025.01.035.01.03v.03s0 .01.005 0h.025c.005 0 .015 0 .015-.01l-.01-.015-.01-.04-.01-.025-.005-.02-.015-.045v-.015c0-.01-.01 0-.015 0l-.03.005zm.15-.04a.057.057 0 0 0-.04.015l-.015.045v.04l.03.06.035.02h.03a.06.06 0 0 0 .035-.035l.005-.04V9.99a.129.129 0 0 0-.02-.035l-.025-.025a.055.055 0 0 0-.035-.01zm0 .01c.01 0 .02.015.025.03l.02.06.005.025v.035c-.01.01-.025.015-.035.005l-.02-.025-.01-.04-.005-.03c0-.015-.01-.03 0-.05l.015-.01h.005zm.115-.025-.015.025.005.035a.04.04 0 0 0 .02.02l.045.025c.01 0 .02.01.02.02v.025c0 .005-.01.015-.02.01a.036.036 0 0 1-.02-.01.061.061 0 0 1-.02-.03l-.01.005v.03l.02.01.025.01c.01 0 .02 0 .03-.01.01 0 .015-.01.02-.02a.05.05 0 0 0 0-.035.054.054 0 0 0-.03-.04.193.193 0 0 0-.03-.015l-.03-.025c0-.01 0-.025.01-.025h.03l.015.025c0 .01.01.005.005 0 0-.01.01-.025 0-.03a.07.07 0 0 0-.03-.01.05.05 0 0 0-.03.005l-.01.005zm.56-.22-.045.01-.02.005a.034.034 0 0 1 .01.02v.075l.005.04v.03c-.01.005 0 .01.01.005h.03c.01 0 0-.01 0-.015l-.005-.03v-.03l.03-.005c.02-.005.04-.02.045-.04a.054.054 0 0 0-.02-.05.07.07 0 0 0-.04-.015zm0 .015c.01 0 .02.01.02.025v.025c0 .015-.01.025-.025.03-.005 0-.015 0-.015-.01v-.03c0-.015-.01-.025 0-.035h.015l.005-.005zm.13-.02c-.01 0-.02.005-.015.015l-.01.035a.473.473 0 0 1-.01.05l-.015.06c0 .005-.01.015 0 .015h.025c.01 0 0-.01 0-.015v-.025s0-.01.005-.005h.04v.03c0 .005 0 .015.01.015h.035c.01-.005 0-.015-.005-.02l-.01-.035-.015-.045-.005-.025a.481.481 0 0 1-.015-.05h-.015zm-.01.04.02.065c.005.005 0 .01-.01.01-.005 0-.025.005-.025-.005l.005-.025a.328.328 0 0 0 .01-.035v-.01zm.15-.05h-.065a.04.04 0 0 1 0 .025l-.005.02.015-.015c.005 0 .01-.015.02-.01h.015v.145l-.005.01h.045c.005 0 .005-.005 0-.005v-.15c0-.005.005-.01.015 0H16l.01.02h.01l-.005-.025c0-.005 0-.015-.01-.015h-.05zm.14 0h-.04s-.01 0-.005.005c.01.005.005.015.005.025v.125c0 .005 0 .015-.01.02h.05c0-.005-.01-.01-.005-.015v-.06c.01 0 .015.005.015.015l.01.025c0 .01.01.015.015.025.01 0 .015.01.025.015l.015.005-.01-.015-.015-.04a.102.102 0 0 1-.01-.025c0-.01.005-.005.01-.01a.05.05 0 0 0 .025-.02v-.03l-.01-.025c-.005-.01-.015-.01-.02-.015a.164.164 0 0 0-.03-.005h-.015zm.015.01c.01 0 .015.005.02.015a.04.04 0 0 1 .01.02v.02c-.005.01-.015.02-.025.02h-.025V9.69c0-.01.01-.01.02-.01zm.11.02v.06l-.005.07a.04.04 0 0 1-.01.02s0 .005 0 0l.02.005h.025c.01 0 0 0 0-.01V9.71c.005-.005 0-.015.01-.02v-.01h-.05l.01.02zm.125-.01-.015.045-.005.025-.015.04c-.005.02-.01.04-.02.05-.01 0-.005.015 0 .01h.025c.005.005.01 0 0 0v-.03c0-.01.005-.015.015-.01h.03l.005.03c0 .01-.01.02 0 .02h.035l-.005-.05-.01-.05-.005-.045a.093.093 0 0 0-.005-.025s0-.01-.01-.005h-.02V9.69zm0 .04c.01.01.005.02.01.03v.04c.01.015-.01.005-.015.005-.01 0-.02 0-.015-.01l.005-.02.01-.025.005-.02zm.325.175c0 .01.01.015.005.02v.145a.014.014 0 0 1 0 .015h.095v-.04c-.01.015-.02.025-.035.025h-.025v-.025a1.601 1.601 0 0 1 0-.12l.005-.02h-.045zm.115.18h.05l-.01-.02V9.92l.01-.015h-.05c0 .01.01 0 .01.015v.145l-.01.02zm.075-.185c0 .01.01.015.005.02v.06a1.259 1.259 0 0 1-.005.07l-.005.025s-.01.005 0 .005l.055.01c.015 0 .03 0 .04-.01.02-.01.025-.035.02-.05 0-.01-.01-.015-.015-.025a.527.527 0 0 0-.02-.015.04.04 0 0 0 .035-.025c0-.015 0-.03-.01-.04l-.01-.01-.025-.005-.065-.01zm.04.02.03.005c.01.015.01.03 0 .05l-.01.005h-.025v-.04l.005-.02zm-.01.075c.015 0 .03 0 .04.015.01.01 0 .025.005.035 0 .02-.015.03-.03.03-.01 0-.015-.005-.015-.015a.47.47 0 0 1 0-.065zm.09.1.015.01.045.01.04.005.01-.025c0-.01-.005-.015-.01-.005a.05.05 0 0 1-.045.005c-.01 0-.015-.01-.015-.02l.01-.06.02.005c.01 0 .015.01.02.02l.005-.015V9.99c-.005 0-.01.02-.02.01-.01 0-.025 0-.02-.01l.005-.04a.04.04 0 0 1 .045.015l.015.015v-.035l-.025-.01-.065-.015c-.015 0 0 .01 0 .015l-.01.085-.01.06a.025.025 0 0 1-.01.015zm.15-.14v.03l-.015.08-.01.05c0 .005-.02.01-.005.015l.035.01c.01 0 0-.01 0-.015l.01-.035.005-.02c.01 0 .005.015.01.02 0 .02.01.04.015.055l.03.025-.01-.025v-.07c.005 0 .015 0 .025-.01.01-.015.015-.035.01-.05a.064.064 0 0 0-.03-.04l-.06-.02h-.01zm.04.02a.035.035 0 0 1 .03.02.1.1 0 0 1-.005.055c-.01.01-.02.01-.03.005-.01 0-.02 0-.015-.01l.01-.05a.035.035 0 0 1 .01-.02zm.075.06.025-.01s.015-.005.02 0c.005.005 0 .015 0 .02l-.005.035-.02.08-.015.02c0 .01.01.01.015.01l.03.01c0-.005-.005-.01 0-.02l.01-.06a1.67 1.67 0 0 1 .02-.08c.01 0 .02.01.025.015l.01.025c.005 0 0-.01 0-.02l.005-.02-.04-.015-.03-.015-.035-.01-.015.03a.02.02 0 0 0 0 .005zm.17.035c-.01 0-.01.01-.015.02 0 .01-.01.015-.015.025l-.045.07a.055.055 0 0 1-.02.02c-.01.01.005.01.01.015.005 0 .015.01.02.005 0-.01-.01-.015 0-.025 0-.005 0-.02.015-.015l.03.02v.025c0 .005-.015.01-.01.02l.025.015s.015.01.01 0v-.04l.005-.025v-.04l.01-.06c0-.01.005-.02 0-.02l-.02-.01zm-.015.035s.005.005 0 .01v.065c0 .01-.015 0-.02 0-.005-.005-.02-.01-.01-.02l.02-.03.01-.025zm.11.025-.005.03-.02.03-.02.035-.025.05h-.01l.025.025.03.03c.015.01.04.015.055.005l.025-.025a.162.162 0 0 0 .015-.03v-.05c0-.02-.01-.045-.025-.06l-.03-.03-.015-.01zm.03.045c.015.01.025.025.02.04a.12.12 0 0 1-.025.07c-.01.015-.02.03-.035.03-.01.005-.025 0-.03-.015l.01-.03.04-.07c0-.01.01-.02.015-.025h.005z" fill="#EAC102"/><path d="m15.44 13.96.125.05.09.17c.035.025.03.02.065.03l-.215.09c-.06.02-.035.075-.005.085.03.01.1-.015.12-.025.105-.05.2-.1.3-.165.015-.01.085-.055.1-.05l.38.21c.03.015.085.05.115.03.015-.01.03-.03.025-.05-.005-.025-.02-.03-.04-.035l-.205-.09.045-.015c.015-.01-.01-.035.01-.03l.095-.155.115-.045c0-.105-.89-.175-1.12-.005z" fill="#006300"/><path d="M15.5 14.325c-.03.01-.025.07.04.05.045-.015.01-.065-.04-.05zm.95 0c-.015.025-.015.035.01.05.025.005.035.005.05-.01.025-.02.005-.03-.01-.04-.02-.01-.005-.01-.02 0h-.035.005z" fill="#FF0"/><path d="M17.29 10.8v.015c.085.16.05.085.12.295l-.04-.055a1.515 1.515 0 0 1-.1-.15.065.065 0 0 0-.02-.03c-.01.015.02.1.03.125.025.1.105.22.165.315l-.045-.035c-.05-.04-.035-.03-.065-.085a1.012 1.012 0 0 1-.07-.15 2.486 2.486 0 0 0-.04-.11l-.01.01v.045l.03.18c-.04-.015-.03-.02-.065-.05-.01 0-.02-.03-.03-.03l-.035-.04c-.005.02.05.12.06.13.02.03.09.08.1.1.025.067.06.129.105.185l.045.055-.095-.09a1.625 1.625 0 0 0-.17-.15c0 .02.03.04.045.05l.115.13c.035.05.08.09.11.14l.075.125a.677.677 0 0 0-.04-.055l-.115-.14c-.04-.05-.08-.08-.13-.12a1.28 1.28 0 0 0-.1-.07c0 .015.095.135.16.17l.06.065.06.065c.034.048.066.098.095.15l.045.075c-.035-.01-.2-.2-.235-.235-.035-.035-.05-.05-.09-.075 0 .02.115.15.14.175l.025.03.05.055c.03.04.09.11.11.15l.035.07a.987.987 0 0 0-.12-.15c-.035-.04-.095-.11-.14-.14l-.11-.065c-.005.01.02.03.03.04l.045.04c.058.051.11.108.155.17.03.03.05.06.07.1a.155.155 0 0 1-.035-.035l-.035-.035-.08-.06-.18-.09c0 .015.065.05.08.06.035.025.1.06.125.095l.035.035c.025.025.05.05.065.08l.06.085.05.1.065.225c-.02-.075-.06-.15-.085-.23-.02-.05-.07-.19-.14-.165-.025.01-.04.04-.05.06-.015.035-.04-.01-.1.1a.906.906 0 0 0-.06.215v.035c.015-.005.025-.045.03-.06a.693.693 0 0 1 .095-.18l-.055.245c.02-.005.025-.035.03-.05l.07-.185c.08.055.1.36.115.465a1.064 1.064 0 0 0-.055-.15l-.085-.14c-.05.005-.05.07-.06.105-.015-.02-.03-.05-.065-.05-.025 0-.04.04-.045.07a.382.382 0 0 0 0 .11l.02.08.01.01.015-.205c.03.015.09.15.08.2a.86.86 0 0 1-.155.43l-.06.085a.485.485 0 0 1-.03.04l-.035.04c.055-.1.08-.135.12-.245.029-.081.049-.165.06-.25v-.045c-.015 0-.015.02-.02.035-.09.285-.105.3-.255.55l.025-.165c-.01 0-.01.01-.015.03l-.01.03a.886.886 0 0 1-.08.18c0-.015.015-.04.02-.055.015-.056.027-.113.035-.17v-.035c-.015 0-.02.03-.025.05-.02.06-.05.11-.07.165v-.015c0-.035.015-.09.005-.125v-.015c-.015.005-.02.035-.025.05l-.015.05c-.035.095-.075.155-.125.25-.03-.005-.01 0 0 0 .095.02.19.038.285.055.14-.005.23-.015.37 0 .02 0 .105.015.12 0-.04-.02-.08-.03-.125-.045l-.135-.03.375-.01-.03-.02c-.065-.025-.23-.035-.3-.04.125-.01.22-.02.34-.02.035-.01.145.025.1-.025-.05-.03-.19-.035-.235-.03l.22-.01c.035-.01.265.04.185-.01-.065-.035-.2-.06-.27-.07.04-.025.075-.05.115-.065.086-.034.175-.063.265-.085.1-.015.175-.065.045-.045-.08.01-.175.035-.25.04l.065-.035c.065-.03.135-.045.2-.065.015-.005.01 0 .015-.01l-.01-.005h-.04c.119-.027.235-.06.35-.1.015 0 .035 0 .045-.01l-.01-.005c-.107.01-.214.023-.32.04l-.1.015.25-.1c.02 0 .08-.01.09-.025-.015-.01-.03-.005-.055 0-.08.015-.158.035-.235.06l-.09.025c.28-.105.17-.075.43-.125.03-.005.05 0 .055-.02l-.15-.01c-.05 0-.1.01-.135.015l.11-.095c.03-.025.015-.035.07-.035h.1c-.04-.045-.05-.025-.09-.045l.05-.05.025-.05c.005-.005.005-.005 0-.01h-.015l-.115.1c-.02.01-.015.01-.045.01l-.15.03c.047-.039.098-.074.15-.105l.085-.05c.025-.01.08-.03.085-.04l-.18.045a.963.963 0 0 0-.15.075c.09-.095.186-.182.29-.26.01-.005.04-.02.045-.035h-.015c-.05.01-.16.085-.2.105-.066.042-.13.09-.19.14.042-.046.087-.09.135-.13l.025-.025.055-.05c.04-.03.075-.06.11-.1l.055-.045c.015-.01.05-.035.05-.05a2.75 2.75 0 0 0-.22.135l-.105.075-.105.08c.045-.07.09-.145.145-.205.073-.079.152-.152.235-.22.02-.015.04-.04.06-.05v-.01c-.02 0-.08.045-.095.055a1.93 1.93 0 0 0-.235.2l-.035.04a.751.751 0 0 0-.1.12 3.091 3.091 0 0 0-.12.18c.025-.11.1-.2.16-.26l.135-.15.02-.025a.5.5 0 0 0 .15-.29l-.065.09-.035.035-.27.315a.724.724 0 0 1 .09-.175 3.17 3.17 0 0 1 .28-.375l.015-.015c0-.015.02-.025.04-.045l.05-.04c-.025-.025-.12.03-.135.045-.12.08-.205.195-.295.305.029-.1.069-.195.12-.285.025-.04.05-.09.08-.125l.08-.12c-.02 0-.04.025-.05.04l-.025.02c-.1.115-.165.24-.24.375a.72.72 0 0 1 .1-.24l.14-.21c-.025-.005-.1.08-.115.1-.03.04-.065.08-.09.13-.054.087-.1.18-.135.275l-.01.02c.005-.09.1-.305.135-.38l.08-.11.025-.035.055-.07.055-.075c-.035-.01-.16.13-.185.16l-.085.125a.77.77 0 0 1 .105-.225l.105-.135.035-.05c-.04 0-.2.185-.235.225l-.035.055-.055.085-.01.015-.01.015c.017-.09.04-.179.07-.265l.1-.225c-.025 0-.08.07-.095.09l-.06.125c.005-.06.09-.25.12-.325-.015 0-.025.03-.04.05l-.115.19c.005-.065.05-.13.075-.185-.05.02-.14.21-.16.265l-.025.08-.01.03c0-.14.025-.285.05-.425-.015 0-.02.015-.025.03l-.015.035-.03.08-.04.17c-.06-.085-.075-.24-.195-.42-.035-.055-.05-.06-.1-.1v.005zm.065 1.69c.05.14.065.185.1.33a.035.035 0 0 0-.01.015l-.02.06-.04-.125c-.01-.05.01-.14-.01-.155-.01.025-.01.025-.01.07l-.025-.05c-.025-.08-.03-.055-.01-.1a.06.06 0 0 1 .025-.045z" fill="#006300"/><path d="M16.665 13.635c.05-.095.09-.155.125-.25l.015-.05c.005-.015.01-.045.025-.05v.015c.01.035-.005.09-.005.125v.015c.02-.055.05-.105.07-.165.005-.02.01-.05.025-.05v.035c-.008.057-.02.114-.035.17-.005.015-.02.04-.02.055a.886.886 0 0 0 .08-.18l.01-.03c.005-.02.005-.03.015-.03l-.025.165c.15-.25.165-.265.255-.55.005-.015.005-.035.02-.035v.045a1.202 1.202 0 0 1-.06.25c-.04.11-.065.145-.12.245l.035-.04a.485.485 0 0 0 .03-.04l.06-.085a.86.86 0 0 0 .155-.43c.01-.05-.05-.185-.08-.2l-.015.205-.01-.01-.02-.08a.382.382 0 0 1 0-.11c.005-.03.02-.07.045-.07.035 0 .05.03.065.05.01-.035.01-.1.06-.105l.085.14c.022.049.04.099.055.15-.015-.105-.035-.41-.115-.465l-.07.185c-.005.015-.01.045-.03.05l.055-.245a.693.693 0 0 0-.095.18c-.005.015-.015.055-.03.06v-.035a.906.906 0 0 1 .06-.215c.06-.11.085-.065.1-.1.01-.02.025-.05.05-.06.07-.025.12.115.14.165.025.08.065.155.085.23l-.065-.225-.05-.1-.06-.085a.326.326 0 0 0-.065-.08l-.035-.035c-.025-.035-.09-.07-.125-.095-.015-.01-.08-.045-.08-.06l.18.09.08.06.035.035c.01.013.021.025.035.035a.36.36 0 0 0-.07-.1 1.082 1.082 0 0 0-.155-.17l-.045-.04c-.01-.01-.035-.03-.03-.04l.11.065c.045.03.105.1.14.14a.987.987 0 0 1 .12.15l-.035-.07c-.02-.04-.08-.11-.11-.15l-.05-.055-.025-.03a1.02 1.02 0 0 1-.14-.175c.04.025.055.04.09.075.035.035.2.225.235.235l-.045-.075a1.813 1.813 0 0 0-.095-.15l-.06-.065-.06-.065a.528.528 0 0 1-.16-.17c.034.022.068.045.1.07.05.04.09.07.13.12l.115.14a.677.677 0 0 1 .04.055l-.075-.125c-.03-.05-.075-.09-.11-.14l-.115-.13c-.015-.01-.045-.03-.045-.05.06.046.117.096.17.15l.095.09-.045-.055a.703.703 0 0 1-.105-.185c-.01-.02-.08-.07-.1-.1-.01-.01-.065-.11-.06-.13l.035.04c.01 0 .02.03.03.03.035.03.025.035.065.05l-.03-.18v-.045l.01-.01.04.11c.02.052.043.102.07.15.03.055.015.045.065.085l.045.035c-.06-.095-.14-.215-.165-.315-.01-.025-.04-.11-.03-.125.01.008.016.018.02.03.03.052.064.102.1.15l.04.055c-.07-.21-.035-.135-.12-.295v-.02c.05.04.065.045.1.1.12.18.135.335.195.42l.04-.17.03-.08.015-.035c.005-.015.01-.03.025-.03-.025.14-.05.285-.05.425l.01-.03.025-.08c.02-.055.11-.245.16-.265-.025.055-.07.12-.075.185l.115-.19c.015-.02.025-.05.04-.05-.03.075-.115.265-.12.325l.06-.125c.015-.02.07-.09.095-.09l-.1.225c-.03.086-.053.175-.07.265l.01-.015.01-.015.055-.085.035-.055c.035-.04.195-.225.235-.225l-.035.05-.105.135a.77.77 0 0 0-.105.225l.085-.125c.025-.03.15-.17.185-.16l-.055.075-.055.07-.025.035-.08.11c-.035.075-.13.29-.135.38l.01-.02c.036-.096.081-.188.135-.275.025-.05.06-.09.09-.13.015-.02.09-.105.115-.1l-.14.21a.72.72 0 0 0-.1.24c.075-.135.14-.26.24-.375l.025-.02c.01-.015.03-.04.05-.04l-.08.12c-.03.035-.055.085-.08.125a1.31 1.31 0 0 0-.12.285c.09-.11.175-.225.295-.305.015-.015.11-.07.135-.045l-.05.04c-.02.02-.04.03-.04.045l-.015.015a3.17 3.17 0 0 0-.28.375.724.724 0 0 0-.09.175l.27-.315.035-.035.065-.09a.5.5 0 0 1-.15.29l-.02.025-.135.15a.563.563 0 0 0-.16.26c.038-.061.078-.121.12-.18a.751.751 0 0 1 .1-.12l.035-.04a1.93 1.93 0 0 1 .235-.2c.015-.01.075-.055.095-.055v.01c-.02.01-.04.035-.06.05a2.284 2.284 0 0 0-.235.22c-.055.06-.1.135-.145.205l.105-.08.105-.075a2.75 2.75 0 0 1 .22-.135c0 .015-.035.04-.05.05l-.055.045a.686.686 0 0 1-.11.1l-.055.05-.025.025c-.048.04-.093.084-.135.13.06-.05.124-.098.19-.14.04-.02.15-.095.2-.105h.015c-.005.015-.035.03-.045.035-.104.078-.2.165-.29.26a.963.963 0 0 1 .15-.075l.18-.045c-.005.01-.06.03-.085.04l-.085.05a1.226 1.226 0 0 0-.15.105l.15-.03c.03 0 .025 0 .045-.01l.115-.1h.015c.005.005.005.005 0 .01l-.025.05-.05.05c.04.02.05 0 .09.045h-.1c-.055 0-.04.01-.07.035l-.11.095c.035-.005.085-.015.135-.015l.15.01c-.005.02-.025.015-.055.02-.26.05-.15.02-.43.125l.09-.025c.077-.025.155-.045.235-.06.025-.005.04-.01.055 0-.01.015-.07.025-.09.025l-.25.1.1-.015c.106-.017.213-.03.32-.04l.01.005c-.01.01-.03.01-.045.01-.115.04-.232.073-.35.1h.04l.01.005c-.005.01 0 .005-.015.01-.065.02-.135.035-.2.065l-.065.035c.075-.005.17-.03.25-.04.13-.02.055.03-.045.045-.09.022-.179.05-.265.085-.04.015-.075.04-.115.065.07.01.205.035.27.07.08.05-.15 0-.185.01l-.22.01a.555.555 0 0 1 .235.03c.045.05-.065.015-.1.025-.12 0-.215.01-.34.02.07.005.235.015.3.04l.03.02-.375.01.135.03c.045.015.085.025.125.045-.015.015-.1 0-.12 0-.14-.015-.23-.005-.37 0-.095-.017-.19-.035-.285-.055zm0 0c-.03-.005-.01 0 0 0zm.69-1.145c.05.14.065.185.1.33a.035.035 0 0 0-.01.015l-.02.06-.04-.125c-.01-.05.01-.14-.01-.155-.01.025-.01.025-.01.07l-.025-.05c-.025-.08-.03-.055-.01-.1a.06.06 0 0 1 .025-.045z" stroke="olive" stroke-width=".025"/><path d="M17.72 12.255c.02-.19.25-.64.325-.65.01 0-.08.125-.14.25-.058.118-.108.24-.15.365a.849.849 0 0 1-.035.13v-.1.005zm.51-.115s-.04.045-.095.09a2.213 2.213 0 0 0-.48.69c-.1.25-.075.185-.045.065.094-.29.261-.55.485-.755.07-.06.14-.105.135-.09zm-.59-.43c0-.17.02-.23.12-.44.06-.135.085-.175.095-.165 0 .005 0 .03-.015.05a2.5 2.5 0 0 0-.17.585.277.277 0 0 1-.02.085.348.348 0 0 1-.01-.115zm-.28.97c.01.15-.014.3-.07.44-.035.09-.175.3-.21.32-.015 0-.01 0 .025-.05.155-.19.243-.425.25-.67-.01-.13 0-.15.005-.045v.005z" fill="#008F4C"/><path d="M17.79 12.515c.02.06.025.2 0 .275a.55.55 0 0 1-.425.39.269.269 0 0 1 .06-.035.62.62 0 0 0 .365-.55c0-.05-.005-.07-.01-.08 0-.02-.005-.035 0-.04l.01.04z" fill="#008F4C"/><path d="m18.285 12.895-.22.04a9.75 9.75 0 0 0-.465.08.043.043 0 0 1-.005-.015c.228-.044.459-.08.69-.105zm-.925-1.985c.075.09.09.13.13.285.025.1.03.13.025.13l-.02-.035a1.72 1.72 0 0 0-.16-.385.188.188 0 0 1-.03-.05.25.25 0 0 1 .05.05l.005.005zm-.08.11c.03.11.055.15.165.265.07.07.095.095.095.085 0 0-.005-.02-.02-.03a1.7 1.7 0 0 1-.23-.345.191.191 0 0 0-.03-.05s0 .035.02.075zm.67.35c-.12.11-.315.46-.285.515a.83.83 0 0 0 .11-.18c.05-.1.107-.197.17-.29l.07-.1-.065.055zm.05.09c-.13.12-.345.51-.315.57.005.01.06-.08.12-.2.058-.111.123-.218.195-.32a.792.792 0 0 0 .075-.105l-.07.055H18zm-.76-.355c.02.115.04.15.13.28.06.085.085.11.085.1 0 0 0-.02-.015-.03a1.71 1.71 0 0 1-.185-.375.191.191 0 0 0-.025-.055l.01.08z" fill="#008F4C"/><path d="m17.42 11.335.13.035c0-.01-.02-.015-.035-.02-.085-.025-.32-.13-.325-.17l-.05-.075s.2.2.28.23zm.81.415c-.18.125-.5.56-.475.64 0 .015.085-.085.18-.22.086-.128.181-.25.285-.365a.953.953 0 0 0 .105-.115s-.05.025-.095.06zm-.025.265c-.08.16-.385.465-.45.45a.75.75 0 0 1 .155-.165c.09-.084.173-.174.25-.27a.777.777 0 0 1 .08-.1c0 .01-.015.05-.035.085zm-1.07 1.1c-.03.155-.225.49-.285.495a.858.858 0 0 1 .1-.185c.056-.093.107-.19.15-.29l.05-.1-.015.08zm.5-.945a.871.871 0 0 0-.25-.33c-.12-.11-.16-.125-.05-.025.132.126.238.275.315.44 0 0 0-.04-.015-.085zm.09 1.275c-.14-.04-.5-.035-.525.005 0 .01.08.01.19.005.133-.006.267-.001.4.015l-.065-.025zm-.15.06c-.145-.035-.5-.015-.525.03h.185a2.35 2.35 0 0 1 .41-.005l-.07-.02v-.005zm-.16.08c-.14-.035-.5 0-.525.04l.19-.01c.134-.015.27-.018.405-.01l-.07-.02z" fill="#008F4C"/><path d="M17.32 13.675c-.115-.05-.43-.05-.45-.015-.01.01.065.015.16.01.087-.001.174.004.26.015l.09.015a.437.437 0 0 0-.06-.025zm.56-.445c-.3.085-.65.135-.67.205 0 .01.13-.01.26-.06a2.82 2.82 0 0 1 .375-.12c.075-.015.135-.03.135-.04 0 0-.05.02-.1.015zm.38-.185-.26.05c-.134.022-.267.047-.4.075-.12.025-.145.03-.15.015a.052.052 0 0 1-.01-.015c.271-.053.545-.095.82-.125zm-.09-.075-.215.06c-.151.038-.301.08-.45.125a.047.047 0 0 1-.01-.01c.222-.068.448-.126.675-.175z" fill="#008F4C"/><path d="M18.1 12.62c-.205.085-.61.44-.6.525 0 .015.1-.065.22-.18.11-.105.227-.202.35-.29a.937.937 0 0 0 .13-.09l-.1.04v-.005z" fill="#008F4C"/><path d="M18.25 12.72c-.2.015-.665.22-.675.3 0 .015.105-.025.245-.1a2.78 2.78 0 0 1 .39-.16l.14-.04h-.1z" fill="#008F4C"/><path d="M18.24 12.74c-.515.435-.805.65-.91.6-.015 0 .19-.12.365-.235.165-.105.322-.222.47-.35l.15-.135a.913.913 0 0 1-.075.12zm-.55.14c.1-.17.15-.22.375-.36.145-.09.195-.12.2-.1l-.05.04c-.221.15-.42.33-.59.535l.065-.115zm.055-.49c.02-.19.34-.825.41-.835.01 0-.075.125-.135.25-.058.118-.108.24-.15.365a3.72 3.72 0 0 1-.14.35l.015-.13zm-.135-.73c-.055-.13-.06-.18-.02-.36.025-.115.04-.155.05-.15v.045c-.032.182-.029.369.01.55 0 0-.025-.04-.04-.085zm.1.695a.75.75 0 0 0-.225-.3c-.11-.1-.145-.115-.045-.02.099.096.181.208.245.33l.035.065-.01-.075zm-.5.145c.1-.37.185-.305.185-.305.22.21.11.935.11.935 0-1.48-.295-.63-.295-.63z" fill="#008F4C"/><path d="M17.295 12.475c.1-.37.125-.35.125-.35.185.035.175.85.175.85-.08-1.4-.3-.5-.3-.5zm-.1.285c0-.265.05-.225.05-.225.15.135.2.65.2.65-.23-1.04-.25-.425-.25-.425zm.45-.775c-.04-.145-.18-.29-.32-.475-.175-.16-.23-.185-.075-.035.1.06.3.35.36.525.03.06.055.105.06.1.01 0 0-.055-.02-.115h-.005z" fill="#008F4C"/><path d="M17.635 11.86a.899.899 0 0 0-.26-.37l-.08-.075c.137.165.256.345.355.535.005 0 0-.045-.015-.09zm-.75 1.465c-.005.075-.09.255-.12.26l.04-.1c.034-.064.063-.13.085-.2v.04h-.005zm-.07.045c-.01.08-.095.255-.125.26l.04-.095c.036-.065.066-.134.09-.205v.04h-.005zm.11.005c-.01.08-.095.26-.125.26l.045-.095c.035-.066.063-.134.085-.205v.04h-.005z" fill="#008F4C"/><path d="M14.2 11.35c0 .04.01.05.03.075v-.075c-.01-.01-.015 0-.03 0z" fill="#00873F"/><path d="m14.093 11.934-.039-.034m.077-.196-.034-.042m-.072.575c-.013-.09-.064-.12-.064-.12m.481 1.28c-.23-.257-.303-.713-.303-.713.073-.196.171-.238.171-.238m-.17.234c-.077-.298-.056-.605-.056-.605.02-.243.068-.484.145-.716m-.15.823c.06-.282.295-.248.295-.248" stroke="#006300" stroke-width=".064"/><path d="M14.076 12.233c.213-.085.183-.269.221-.341.056-.115.098-.15.098-.15m-.11 1.403c-.073-.18.012-.213.012-.213m-.042.153c-.09-.115-.205-.106-.205-.106m.166-.44c.056-.102 0-.204 0-.204m.026.695-.162-.21m.098-1.295c.021-.085-.043-.123-.043-.123" stroke="#006300" stroke-width=".064"/><path d="M14.14 11.379a.04.04 0 1 1-.08 0 .04.04 0 0 1 .08 0z" fill="red" stroke="#006300" stroke-width=".033"/><path d="M14.251 12.298a.05.05 0 0 1-.011.033.037.037 0 0 1-.029.013.037.037 0 0 1-.028-.013.05.05 0 0 1-.012-.033.05.05 0 0 1 .012-.033.037.037 0 0 1 .028-.014c.01 0 .021.005.028.014a.05.05 0 0 1 .012.033z" fill="red" stroke="#006300" stroke-width=".036"/><path d="M14.213 12.405a.04.04 0 1 1-.08 0 .04.04 0 0 1 .08 0z" fill="red" stroke="#006300" stroke-width=".033"/><path d="M14.103 12.786a.043.043 0 1 1-.086 0 .043.043 0 0 1 .086 0zM14.048 12.965a.043.043 0 1 1-.087 0 .043.043 0 0 1 .087 0zM14.116 13.034a.043.043 0 1 1-.087 0 .043.043 0 0 1 .087 0z" fill="red" stroke="#006300" stroke-width=".036"/><path d="M14.912 13.398a.031.031 0 1 1-.063 0 .031.031 0 0 1 .063 0zM14.96 13.454a.031.031 0 0 1-.032.031.031.031 0 1 1 .031-.031z" fill="red" stroke="#006300" stroke-width=".026"/><path d="M14.246 12.471a.077.077 0 0 0-.047-.05m.627 1.026c.068.051.085.022.085.022" stroke="#006300" stroke-width=".064"/><path d="M14.91 13.59c-.045-.15-.035-.18-.035-.18l.035.18zm-.36-.265s-.025-.06.02-.095c.02-.02.125.04.18-.195 0 0-.035 0-.105.035v-.02s-.02-.05-.01-.115c0 0 .035-.055.035-.08 0 0-.065-.025-.2.145 0 0-.01-.035-.105-.1 0 0-.05.15-.025.23.02.065.02.09.09.135 0 0 .05.025.06.1l.06-.005v-.035zm-.1.17c-.015.01-.025.025-.065.03-.165.02-.26-.2-.26-.2-.005-.05.015-.025.05-.01.045.015.06 0 .11 0 .07-.01.145.055.145.055.04.04.05.115.05.115-.01.01-.025.01-.025.01h-.005zm-.2-.4c-.17-.075-.275.01-.275.01-.01.01.01.015.01.015.11.015.075.005.12.07.08.11.22.085.22.085.025.01.055.04.055.04-.01-.095-.125-.22-.125-.22h-.005zm-.3-.7c-.035-.025-.03.02-.03.02-.07-.125-.265-.135-.265-.135a.034.034 0 0 1-.014-.005.034.034 0 0 1-.011-.01c-.03 0 .01.065.01.065.055.155.11.175.11.175-.065.035-.17-.045-.15.015.105.105.175.12.175.12.13.035.185 0 .185 0 .03.055.05.065.05.065.12.035.145.1.145.1 0-.13-.05-.285-.05-.285a.6.6 0 0 0-.155-.125z" fill="#006300"/><path d="M14.86 13.635c-.065.02-.07.065-.07.065-.06.085-.28 0-.28 0-.07-.015-.05-.035-.05-.035a.28.28 0 0 0 .08-.05.43.43 0 0 1-.135-.25c.18-.035.235 0 .235 0-.01-.07-.07-.07-.07-.07-.015-.025.015-.025.015-.025a.39.39 0 0 1 .25.115c.06.085.04.17.04.17.015.085-.015.08-.015.08zm-.745-.735c-.09-.025-.14 0-.14 0-.05.02-.13-.03-.13-.03-.11-.095-.13-.15-.13-.15 0-.015.095-.015.095-.015.13 0 .16.025.16.025.065.035.06.07.08.085a.25.25 0 0 1 .07.05c.015.025.02.045-.005.035zm.17.05c.065-.075.15-.025.15-.025.125.015.165-.13.165-.13l.05-.085c.005-.035-.055-.005-.055-.005-.11.025-.115.035-.115.035l.02-.17c0-.03-.03-.01-.03-.01-.155.09-.175.155-.175.155l-.065-.12c-.02-.05-.035.005-.035.005-.03.15-.015.16-.015.16.02.08.04.1.04.1.035.05.035.07.035.07l.03.02z" fill="#006300"/><path d="M15.21 13.35c-.025.005-.09.11-.09.11-.08-.15-.185-.17-.185-.17-.02.005 0 .04 0 .04.035.08 0 .14 0 .14-.01.06 0 .07 0 .07-.125-.065-.13-.055-.13-.055 0 .08.09.225.09.225l.225-.05.075-.01c.06-.18.015-.3.015-.3zm-1.01-.81c.08.035.085.09.085.09.02.065.205.085.205.085.15-.015.135-.05.135-.05-.085-.07-.06-.065-.1-.1a.254.254 0 0 0-.15-.07c-.115.02-.14 0-.14 0-.045.02-.035.045-.035.045zm-.18-.27c-.035-.135.085-.3.085-.3.1.19.085.24.085.24-.02.078-.05.153-.085.225-.02-.1-.07-.115-.085-.165z" fill="#006300"/><path d="M13.95 12.325c-.125 0-.25-.145-.25-.145.195-.05.235-.02.235-.02.064.036.124.078.18.125-.09 0-.115.04-.16.04h-.005z" fill="#006300"/><path d="M13.85 12.14c-.08.015-.15-.065-.15-.065-.11-.15-.075-.2-.075-.2.01 0 .02.015.02.015.035.03.1.04.1.04-.18-.11-.06-.355-.06-.355.02-.025.03.035.03.035a.23.23 0 0 0 .09.1c.04.05.04.07.04.07.015-.08.04-.06.04-.06.02.065.095.115.1.16.03.125.01.14.01.14-.015.07-.015.125-.015.125-.07-.025-.125 0-.125 0l-.005-.005zm.42.3c.04-.06 0-.165 0-.165-.015-.115.155-.225.155-.225.05.095.045.15.045.15l.16-.04c.005.07-.065.18-.065.18.105.03.145-.02.145-.02-.05.235-.28.19-.28.19a.44.44 0 0 0-.16-.07z" fill="#006300"/><path d="M13.915 11.745c.015-.145.04-.15.04-.15.015.005.02.07.04.08.09.04.09.14.09.14 0 .115-.02.1-.02.1-.125 0-.15-.17-.15-.17zm.415.03c.045-.165.015-.18.015-.18-.015 0-.05.065-.08.07-.115.005-.15.115-.15.115-.05.125-.025.12-.025.12.14.05.225-.07.24-.125z" fill="#006300"/><path d="M13.92 11.475c.015-.165.05-.175.05-.175.015.01.025.085.05.095.1.05.1.16.1.16 0 .135-.02.125-.02.125-.15 0-.185-.145-.18-.2v-.005zm.47.04c.05-.16.02-.175.02-.175-.02 0-.055.065-.08.065a.185.185 0 0 0-.16.11c-.045.125-.02.125-.02.125.135.05.22-.065.24-.125zm.19.45c.135-.1.125-.13.125-.13-.015-.01-.085.02-.105.01-.1-.065-.195 0-.195 0-.11.07-.09.08-.09.08.08.125.22.08.265.045v-.005z" fill="#006300"/><path d="M14.575 12.055c.13-.055.125-.08.125-.08-.01-.015-.075 0-.09-.015-.07-.06-.155-.03-.155-.03-.105.04-.09.05-.09.05.045.11.165.1.21.075zm-.435-.77c-.05-.15.1-.35.1-.35.02.056.036.113.05.17.12-.125.23-.145.23-.145l-.005.1a.34.34 0 0 0 .115-.03c-.02.12-.17.245-.17.245-.06.035-.13.02-.13.02-.11.035-.135.105-.135.105-.01-.065-.02 0-.055-.115zm.22.5c.07-.085.175-.05.175-.05.1.01.185-.09.185-.09a.28.28 0 0 1 .07-.09c0-.025-.03-.02-.03-.02l-.055.015c.045-.165.02-.17.02-.17-.015 0-.025.01-.025.01-.025.075-.13.07-.13.07-.005-.11-.03-.095-.03-.095a.142.142 0 0 1-.05.05c-.105.1-.105.145-.105.145.005.12-.025.23-.025.23v-.005z" fill="#006300"/><path d="m14.34 12.385.07-.05c.025-.015.015-.01.025-.035l.025-.035-.015.045.07-.04c0 .015-.025.025-.045.04l-.05.03-.095.08c.09-.02.07-.005.115-.01.095-.015.14-.15.17-.225a.493.493 0 0 0-.175.055c-.06.04-.06.08-.095.15v-.005zm-.24.335c0-.015-.02-.04-.03-.05-.025-.05-.025-.06-.06-.115l-.025-.05c.01 0 .03.04.045.05v-.05c.015 0 .01.015.01.03 0 .05 0 .045.03.1l.065.11c0-.02-.01-.035-.015-.05-.02-.07.025-.155-.15-.26l-.045-.025c0 .085.015.225.09.27l.05.02.035.02zm-.04-1.075c0-.02-.015-.04-.02-.065-.01-.02 0-.015-.02-.025L14 11.53l.025.01a.161.161 0 0 0-.02-.04c-.015-.02-.01-.005-.025-.035.03-.005.06.085.065.105.025.07.02.06.065.115 0-.01-.02-.025-.02-.04-.01-.035.03-.085-.01-.17-.025-.05-.075-.05-.1-.095l-.02-.04a.38.38 0 0 0-.02.09c0 .06.01.135.05.175.015.015.05.035.07.04zm.225-.425c.01 0 .025-.025.04-.04l.04-.035-.005-.04c.01 0 0 0 .015.025l.05-.07c0 .015-.02.05-.03.06a.127.127 0 0 1-.04.05l-.08.1.05-.015c.05-.01.07-.015.105-.075a.498.498 0 0 0 .06-.19c-.075.03-.155.065-.195.135-.015.025-.01.05-.01.1v-.005zm-.475.715c-.025-.05-.085-.12-.09-.15l-.01-.065c.015 0 .01 0 .01.01l.01.05.025.05c0-.035 0-.02.01-.05.015.02-.005.05.01.08l.04.06c0-.05.03-.12-.02-.185-.02-.025-.04-.035-.065-.05l-.045-.07c-.035.075-.025.225.045.275l.04.025.02.01.02.01zm.34-.3c.03-.02.02-.03.09-.085l.045-.045.045-.045c.005.015-.04.06-.055.08h.03c-.005.02-.025.005-.05.015-.015 0-.07.065-.085.08l.04-.01c.045-.01.075 0 .12-.06.04-.05.05-.115.075-.175a.488.488 0 0 0-.17.08c-.05.05-.045.085-.06.13l-.025.04v-.005zm-.24.465a.24.24 0 0 0-.04-.04c-.025-.015-.03-.015-.06-.02l-.1-.055c.01-.01.015.005.04.02l.05.02-.01-.025c.01 0 .01 0 .015.01v.015c.05.005.04.005.085.035 0-.02-.005-.02-.02-.03l-.025-.025-.02-.03c-.04-.06-.085-.035-.11-.04l-.075-.03c.01.06.04.114.085.155.02.02.045.04.08.045l.105-.01v.005zm-.04.375a.404.404 0 0 0-.05-.035c-.01-.01-.015-.01-.03-.01l-.035-.01h.035l-.015-.015-.05-.05c.01-.005.015 0 .025.01l.115.09.055.03c0-.03-.05-.12-.09-.14l-.185-.05a.75.75 0 0 0 .075.14c.05.075.06.05.1.045h.05v-.005zm.09-.405-.07-.23c.01.005.01.02.015.05l.02.045.015-.035c.01.01 0 .03 0 .045-.01.02-.01.015 0 .04l.03.08v-.05c.015-.05.025-.08 0-.14-.025-.05-.065-.085-.1-.125l-.015.09c-.01.06-.005.14.04.175.04.03.015.005.065.05v.005zm.135.29v-.235c.01.005.01.015.01.02v.075l.02-.035c.015.005 0 .02-.005.03l-.02.04.005.105.02-.04c.025-.035.05-.09.04-.14l-.06-.17-.04.08a.363.363 0 0 0-.025.095c-.015.08.01.095.035.135l.02.04zm.095-1.015c0-.02.01-.125.005-.135l-.01-.02-.01-.045c.015 0 .01.015.02.03v.005l.005-.03c0-.02 0-.01.01-.03.01.005 0 0 .005.01v.015c-.01.07-.01.15-.015.215l.02-.04c.015-.035.05-.1.045-.14l-.04-.205-.04.08c-.025.055-.05.14-.035.2l.035.08v.01h.005zm-.55 1.18.055.05c.035.025.115.06.155.06l.09-.02-.01-.04-.05.005a.334.334 0 0 1-.11-.01c-.03-.01-.02 0-.045-.02l.1.015c-.03-.02-.02-.01-.04-.035.015 0 .045.025.06.035l.08-.005-.005-.05a.24.24 0 0 0-.145 0c-.085.03-.05.02-.135.015zm.11.215c0 .015.09.115.11.125l.195.005a.786.786 0 0 0-.085-.035c-.04-.015-.04-.01-.1 0 0-.015.015-.015.05-.02l-.075-.025-.01-.01h.025l.2.075a.226.226 0 0 1-.055-.05c-.08-.1-.16-.07-.255-.065zm.665-1.065.025-.05c.015-.035-.005-.035 0-.075.015 0 .01 0 .015.035l.035-.08c.01.03-.045.13-.055.16l-.02.05c.05-.05.1-.075.11-.12l.005-.2a.668.668 0 0 0-.1.105c-.03.05-.03.1-.02.175h.005zm-.09 1.21.05-.025c.075-.02.045.015.09-.05l-.01.035c.035-.015.04-.035.065-.06.01.015-.01.035-.02.045-.045.04-.085.025-.11.035l-.05.025c.055-.01.05 0 .1.01.09.015.12-.08.15-.14l.025-.04a.48.48 0 0 0-.225.11l-.03.03c-.015.01-.025.01-.035.025z" fill="#00863D"/><path d="M14.32 12.375c.03-.03.025-.105.05-.15 0-.01.01-.015.015-.02.005-.01 0-.01.015-.01.005.01-.015.02-.02.035l-.015.05.005-.005a.04.04 0 0 0 .005-.01c.025-.03.045-.04.08-.06l-.035-.12-.06.05a.282.282 0 0 0-.05.06c-.04.075.005.11.01.18zm-.02.5.08-.13v-.06c.01 0 .005-.005.015.035.025-.04.01-.035.04-.05a.298.298 0 0 1-.04.07l-.075.125c.02 0 .045-.03.055-.045l.03-.025.035-.02.035-.18a.5.5 0 0 0-.135.1c-.05.06-.05.08-.04.18zm.175-.45.1-.015c0 .015-.015.015-.045.02l-.18.005.045.025.04.02c.035.02.07.015.105 0l.135-.12c-.07.015-.03.02-.125 0l-.05.05-.025.01v.005zm-.725-.25c.03.06.115.13.19.12.035 0 .04-.015.06-.035h-.005a.039.039 0 0 0-.01-.005c-.06-.015-.065-.01-.125 0l.025-.015-.045-.01-.04-.02c.01-.005.005-.005.02 0 .075.025.095.02.18.035-.01-.025-.075-.06-.11-.065-.06-.005-.08.025-.14-.005zm.5.68-.025-.165c.015 0 .01.01.015.045l.03.15c0-.06.02-.1.005-.16l-.06-.11a.449.449 0 0 0-.015.135c0 .05.015.065.04.095l.01.01zm.225-1.685.02-.025.025-.02c0 .015-.02.03-.03.05-.02.025-.035.03-.045.04-.035.05-.03.04-.09.065.12.01.19-.12.24-.21-.115.015-.095.025-.105.06l-.015.04zm.04.52.035-.055c.02-.03.03-.01.065-.04-.01-.01-.01-.005-.045.005l.06-.075c-.035.005-.1.115-.115.14l-.04.045c.025-.07.015-.135.05-.165l.185-.115a.571.571 0 0 1-.045.15c-.03.055-.075.08-.15.11zm-.46.22L14 11.83l-.025-.11c.015 0 .015.03.015.045l.015.05c.01-.04-.005-.015.015-.05.01.025-.015.055 0 .075l.035.05c.015-.05.015-.115-.015-.15l-.085-.09c-.02.03-.02.12 0 .165.015.05.035.06.065.075l.035.02zm.07-.015c.025-.025.075-.05.085-.065l.07-.1c-.015-.005-.025.025-.035.035l-.03.045c0-.04.01-.01 0-.05-.02.02-.01.06-.03.075l-.055.04c0-.055.025-.125.07-.15l.125-.07c.01.045-.025.14-.055.18-.04.05-.06.05-.1.05l-.045.01zm.23.015c.03 0 .125 0 .15-.02l.04-.015c0 .01 0 0-.015.02h.055c0 .005.01.005-.03.01l-.1.01-.135.015c.09.03.1.08.2.04.08-.03.1-.06.15-.12-.13.03-.14-.075-.26 0l-.055.06z" fill="#00863D"/><path d="M14.52 11.985c.03 0 .015 0 .045.01-.015.01-.07 0-.09 0h-.09c.03.04.08.06.145.05.065-.005.085-.02.135-.05l-.1-.035-.045.025zm-.04.575a.16.16 0 0 0-.045-.025c-.05-.025-.1 0-.125 0l-.065-.01a.3.3 0 0 0 .12.05c.085.015.025.035.115-.015zm.01.06.025.025c-.005 0-.015 0-.025-.01l-.005.06.115-.015a.855.855 0 0 0-.1-.11l-.01.05zm-.15.035.07-.05c-.015-.02-.05-.015-.075-.025l-.065-.025.035.05.035.05zm.335-1.03c-.03.02-.05.045-.085.06-.045.02-.09 0-.12.03.075-.005.125.025.185-.03.04-.035.07-.085.1-.13a.135.135 0 0 0-.06.02l-.015.025c-.015.02 0 0 0 .025h-.005zm-.25 1.75.05.11.08.1.05-.035.065-.02c-.035-.015-.035-.03-.055-.035h-.085c.005-.015 0-.01.04-.01h.04c-.025-.025-.055-.04-.08-.06l.08.045v-.055c.02 0 .005.035.015.065.005.01.03.03.05.035.025.015.035.01.06.02l.065.02c-.025-.04-.01.005-.055-.09a.17.17 0 0 0-.07-.08c-.075-.045-.165-.015-.25-.01zm.095-.115v-.135l-.015-.105c.01 0 .01.005.015.02l.005.03c.01-.05.015-.05.04-.08 0 .01-.025.05-.03.1l-.005.135.01-.015.015-.015.025-.03c.065-.1.025-.16.025-.19l.02-.1a.48.48 0 0 0-.09.065c-.05.05-.1.14-.065.215l.025.05.02.055h.005z" fill="#00863D"/><path d="m14.485 13.65.09.03c.055.02.15.025.19-.03.025-.03.04-.035.065-.06-.04 0-.075.02-.11.025-.03.01-.03.03-.055.05l-.02.015c0-.015.025-.04.04-.055h-.09c0-.015.03-.01.065-.01.075-.01.09-.03.17-.04h.015c-.12 0-.15-.085-.295.02l-.065.055zm.55-.075v-.06c-.025-.02-.025-.03-.04-.06.015 0 .02.025.045.04 0-.03-.015-.08-.025-.11.015 0 .02.04.025.055.02.07 0 .125.015.15l.035.05c.01-.05.065-.085 0-.205-.035-.075-.065-.09-.125-.135.005.035.015.05.01.09l-.02.08c-.01.065.015.06.025.065l.06.04h-.005zm-.6-.115-.015-.04c-.05 0-.065.02-.14-.03-.015-.01-.015-.01-.025-.03l.08.05-.03-.05c0-.005 0-.01.005 0h.01l.035.05h.05l-.01-.035c-.005-.02 0-.02-.015-.03a.14.14 0 0 0-.07-.03l-.08.01-.08-.015c0 .015.035.065.04.08.035.05.125.115.2.085l.05-.015h-.005zm-.415-.375.01.005c.021.009.04.023.055.04.025.02.025.035.055.06.05.045.105.04.175.05a.344.344 0 0 0-.03-.035c-.055-.06-.05-.055-.08-.05h-.055c0-.01.035-.01.06-.015a.153.153 0 0 0-.035-.015c-.03 0-.01 0-.045-.01.015-.02.09.01.125.04l.08.09-.04-.085c-.04-.075-.15-.1-.225-.085a.199.199 0 0 0-.05.01zm.47.195c-.025-.09-.075-.13-.085-.185-.01-.035-.005-.035 0-.07.02.025-.015.04.04.13 0-.03-.01-.04-.005-.075l.02-.07c-.005-.015-.07-.075-.085-.095-.01.08-.03.15-.005.23.025.08.07.065.12.135zm.43.4.055-.01a.32.32 0 0 1-.035-.05c-.025-.035-.02-.035-.01-.05l.005.03.02.02c.01.02.02.03.04.045 0-.03-.01-.04 0-.06.01.005 0 0 .005.01l.005.05.065-.02c-.045-.075-.125-.1-.2-.13l.02.09.03.08v-.005zm-.1-.16-.025-.05c-.02-.05-.02-.065-.06-.11l-.02-.02-.015-.015v-.005c.01 0 .04.03.05.04.025.02.08.14.1.175-.005-.015-.015-.035-.01-.05.02-.05-.025-.12-.05-.135l-.175-.075c.02.02.035.03.05.06.01.03.015.005.06.05.05.055.05.12.1.135h-.005z" fill="#00863D"/><path d="m15.145 13.52.005-.025c.01-.015 0-.01.015-.02.01.01 0 .015-.005.035l-.035.125c.04-.005.035-.005.05-.035.015-.02.02-.045.025-.065l-.005-.165-.05.065c-.025.035-.01.015 0 .085zm-.53-.375c.015-.005.04-.04.055-.05.005.01-.025.045-.035.05-.03.03-.01 0-.05.05.08.01.11-.09.135-.14l-.075.02c-.01.005-.005 0-.01.015l-.005.02c0 .015-.01.025-.015.04v-.005z" fill="#00863D"/><path d="m15.38 14.09.095.05-.055.105c.04-.005.18-.055.23-.07-.015-.035-.02-.035-.015-.08l-.015-.075-.115.04a.955.955 0 0 1-.125.03zm1.24-.015-.095.05.055.1c-.04 0-.18-.05-.23-.065.015-.035.02-.04.015-.08l.015-.075.115.04.125.03z" fill="#CE1126" stroke="#000" stroke-width=".025"/><path d="M15.72 14.24a.622.622 0 0 0 .2-.07c.02.015.105 0 .105 0a.45.45 0 0 0 .055-.01c.057.04.122.067.19.08.095-.005.1-.08.1-.08l-.015-.065c.05-.08 0-.14 0-.14-.03-.03-.175.015-.175.015-.1.05-.1.025-.1.025-.03-.04-.13-.035-.175 0l-.125-.03c-.11-.045-.125-.02-.125-.02-.04.05-.025.1-.025.1l.005.05c-.02.14.09.15.09.15l-.005-.005z" fill="#CE1126" stroke="#000" stroke-width=".025"/><path d="M16.08 14.12c.235.055.22.09.22.09-.015.025-.085-.01-.085-.01-.18-.06-.135-.08-.135-.08zm-.145 0c-.235.055-.215.09-.215.09.015.025.08-.01.08-.01.185-.06.135-.075.135-.075v-.005z" fill="#CE1126" stroke="#000" stroke-width=".025"/><path d="M15.95 13.965c-.1.015-.025.09-.02.14 0 .025-.025.065 0 .075.025.015.075 0 .105 0 .04 0 .065 0 .06-.05 0-.035-.015-.05-.015-.1 0-.03.005-.07-.03-.07a.642.642 0 0 0-.1 0v.005z" fill="#AA241E" stroke="#000" stroke-width=".025"/><path d="M16.085 14.02c.265 0 .25-.045.25-.045m-.25.125c.27.035.235.075.235.075m-.395-.08c-.25.05-.225.095-.225.095m.2-.175c-.255.015-.23-.025-.23-.025" stroke="#000" stroke-width=".025"/><path d="M14.905 13.7c-.135.05-.225.08-.35.155l-.165-.25a.35.35 0 0 0-.11-.09c-.075-.035-.1-.025-.15.015l-.03-.065c-.065-.115-.135-.165-.205-.26l-.07-.075-.02-.025c.025.095.05.18.065.285a.707.707 0 0 0-.12-.065.448.448 0 0 0-.15-.025l.05.045a.59.59 0 0 1 .165.275.835.835 0 0 0 .21.325c.03.03.063.055.1.075.1.04.095 0 .13-.015.059.104.13.202.21.29a.4.4 0 0 0 .375.095c.06-.015.1-.035.15-.06.17-.1.085-.18.065-.26.119-.037.239-.07.36-.1.28-.05.8-.06 1.135-.01.03.005.365.095.4.115a.27.27 0 0 0-.03.145c0 .055.05.085.1.11a.5.5 0 0 0 .32.065.385.385 0 0 0 .245-.16c.09-.1.115-.16.16-.235 0 0 .025.025.045.03.015.005.075 0 .09-.01.04-.015.07-.05.1-.075a.775.775 0 0 0 .205-.33.6.6 0 0 1 .215-.315c-.14.005-.19.045-.27.09l.03-.15.035-.135-.175.2c-.025.04-.055.07-.085.105-.055.09-.045.09-.065.12-.2-.11-.29.155-.42.32-.25-.14-.465-.18-.76-.235l-.175-.02a4.432 4.432 0 0 0-1.135.01c-.19.025-.305.06-.475.1V13.7z" fill="#000"/><path d="M14.65 14.275c.025-.065.05-.08.11-.105.18-.085.27-.12.475-.175a3.37 3.37 0 0 1 .975-.085c.357.017.707.103 1.03.255.075.035.065.04.11.11.05-.04.095-.12.125-.17l.05-.1c.02-.055-.015-.075-.04-.095-.09-.08-.265-.15-.415-.19a4.325 4.325 0 0 0-2.135 0 1.24 1.24 0 0 0-.45.22c-.04.045.02.125.04.16l.05.1.075.075z" fill="#CE1126"/><path d="M14.025 13.71c.07.015.1.035.145.1.1.14.105.24.28.43a.3.3 0 0 0 .13.105c.066.03.139.04.21.03a.449.449 0 0 0 .175-.06s.065-.035.085-.06c.015-.02.02-.075.02-.075-.05-.015-.15.085-.21.125-.11.075-.15.05-.235-.025-.065-.055-.09-.12-.135-.2-.02-.03-.05-.075-.04-.125l.085-.085-.105-.16c-.04-.065-.065-.11-.12-.15-.03-.025-.095-.06-.14-.035l-.1.1c-.015.025-.035.05-.045.085z" fill="#CE1126"/><path d="m13.905 13.44-.105-.065-.135-.05.075.085c.08.1.08.19.15.32a.816.816 0 0 0 .21.25c.05.04.095.05.12.015.005-.025-.055-.065-.085-.08a.55.55 0 0 1-.105-.07c-.08-.08-.02-.175.04-.245l.04-.05c.01-.03-.055-.12-.09-.165a2.01 2.01 0 0 0-.17-.19l.025.125.03.12zm1.16.715-.03-.075c-.045.005-.255.1-.305.13-.015.01-.075.055-.05.085.085.09.21-.04.28-.1a.155.155 0 0 1 .1-.04h.005z" fill="#CE1126"/><path d="M14.25 13.985c-.015-.005-.015-.03-.06-.065-.02-.015-.13-.075-.15-.095 0 0-.03-.025-.03-.06.005-.03.03-.035.03-.035.1 0 .21.24.205.25l.005.005zm3.73-.27c-.075.015-.1.035-.145.1-.1.14-.105.24-.28.43-.04.045-.07.08-.135.105a.374.374 0 0 1-.205.03.45.45 0 0 1-.18-.06s-.065-.035-.08-.06a.19.19 0 0 1-.02-.075c.05-.02.15.085.205.125.115.075.155.05.235-.025.07-.055.095-.12.14-.2.02-.03.05-.075.04-.125l-.085-.085.1-.16c.05-.065.07-.11.125-.15.03-.025.095-.06.14-.035l.095.1c.015.025.04.05.05.085z" fill="#CE1126"/><path d="m18.1 13.445.105-.065.13-.05-.07.085c-.085.1-.085.19-.15.32a.826.826 0 0 1-.21.25c-.05.04-.105.04-.12.015-.005-.025.05-.065.085-.08.04-.02.075-.05.105-.07.08-.08.02-.175-.04-.245l-.04-.05a.45.45 0 0 1 .09-.165l.165-.19c0 .035-.015.085-.025.125l-.025.12zm-1.16.715.03-.075c.045.005.255.1.305.13.015.01.075.055.05.085-.085.09-.21-.04-.285-.1-.025-.015-.055-.04-.1-.04z" fill="#CE1126"/><path d="M17.76 13.99c.01-.005.01-.035.055-.07.02-.015.13-.07.15-.09 0 0 .03-.025.025-.06 0-.03-.025-.035-.025-.035-.1 0-.21.24-.205.25v.005z" fill="#CE1126"/><path d="M14.87 13.85h-.03l-.045.02v.015c.01 0 .005.015.01.025l.01.03.01.04.01.04c0 .005-.01.02 0 .015l.035-.01c.005 0 .015-.01 0-.01-.005-.005 0-.02-.01-.03l-.005-.03c0-.01.015 0 .015.005l.025.025.03.015a.04.04 0 0 0 .03 0c-.015-.01-.03-.02-.035-.035l-.025-.03c.01-.01.025-.025.025-.04a.05.05 0 0 0-.02-.045.066.066 0 0 0-.03 0zm-.01.01c.01 0 .015.01.02.015.005.01.01.02.005.035a.03.03 0 0 1-.015.02c-.005.005-.02.015-.025 0l-.01-.05c0-.01.005-.015.015-.015h.01v-.005zm.07-.035c0 .005.015.01.01.02l.01.035.01.035v.025l.01.03c0 .005-.01.015 0 .015l.09-.025c.01 0 .01 0 .01-.01v-.03c-.01 0-.01.015-.015.02l-.045.02c-.005 0-.01-.005-.01-.015l-.005-.02-.01-.035h.035c.005 0 .01.01.015 0v-.025c-.005 0-.005-.02-.015-.015 0 .005 0 .015-.01.02a.073.073 0 0 1-.025.005l-.005-.025c0-.01-.005-.025.005-.025a.04.04 0 0 1 .04 0c.005 0 .015.015.015 0 0-.005 0-.02-.01-.025h-.025l-.075.025zm.205-.055H15.1l-.04.015c-.01.005.01.01.01.02v.025l.01.025.005.04.005.035v.02c.01 0 .025 0 .035-.01.01 0 .01-.005 0-.01v-.025l-.01-.03a.1.1 0 0 0 .05-.025.045.045 0 0 0 .02-.035.054.054 0 0 0-.01-.035.05.05 0 0 0-.02-.01h-.02zm-.015.01a.025.025 0 0 1 .025.02l.005.035c0 .005-.005.015-.015.015l-.02.01-.005-.02-.01-.04c0-.01 0-.015.01-.015h.01v-.005zm.165-.045.015.015v.025l.01.03v.025l.005.035a.03.03 0 0 1-.012.02.03.03 0 0 1-.023.005.02.02 0 0 1-.015-.01.05.05 0 0 1-.01-.025l-.005-.035a.378.378 0 0 0-.005-.035l-.005-.025c0-.005.01-.015 0-.015l-.04.005c-.01.01.005.01.005.02l.005.025.01.05v.025c0 .01.01.015.015.025.005.005.015.015.025.015.02 0 .04 0 .055-.015l.015-.025-.005-.04-.005-.04-.005-.03a.026.026 0 0 1 0-.015c0-.005.01-.015 0-.015h-.02a.01.01 0 0 0-.01.005zm.13-.025-.05.01-.025.005.01.02c0 .02 0 .04.01.055v.035l.005.04c0 .005-.01.015 0 .015l.025-.005h.03a.184.184 0 0 0 .035-.015l.015-.015a.03.03 0 0 0 .01-.02c0-.01 0-.025-.015-.035l-.02-.01c-.005 0-.015-.005 0-.01a.04.04 0 0 0 .015-.025.029.029 0 0 0 0-.013.028.028 0 0 0-.005-.012c0-.01-.015-.015-.025-.015h-.015v-.005zm-.025.015c.015 0 .025 0 .035.01v.03c0 .01-.01.015-.02.02-.005 0-.02.005-.02-.005v-.05l.005-.005zm.015.075.025.005c.01.005.01.02.01.03l-.005.025-.03.01c-.01-.005-.01-.02-.01-.025V13.8h.01zm.085-.1s.01 0 .005.01l.005.03v.025l.005.035v.06c-.005.005.005 0 .01 0h.06l.03-.005v-.045c0 .01-.01.015-.015.02a.034.034 0 0 1-.015.01h-.015l-.02-.005V13.8l-.005-.06v-.035c0-.005.01-.015 0-.015h-.02l-.02.005h-.005v.005zm.125-.015.005.01.005.02v.02l.01.08v.02s-.01.01-.005.015a.195.195 0 0 0 .05-.005l-.005-.01-.005-.02-.005-.035v-.03l-.005-.04v-.025s.01-.01 0-.01a.284.284 0 0 0-.045.005v.005zm.2.1c-.01 0-.015.01-.02.015 0 .01-.015.01-.02.015-.015 0-.02-.005-.03-.015a.082.082 0 0 1-.015-.025v-.025a.178.178 0 0 1 0-.045c0-.01 0-.02.01-.025.01-.005.025 0 .035.005l.01.025c.01.01.01-.005.01-.01l.005-.02a.05.05 0 0 0-.025-.01.06.06 0 0 0-.055.01.051.051 0 0 0-.015.015.052.052 0 0 0-.005.02l-.01.03.015.06c0 .01.01.015.02.025l.025.01a.05.05 0 0 0 .035-.01c.01 0 .015-.015.02-.02a.048.048 0 0 0 .01-.02v-.005zm.065-.125h-.02l-.005.04-.01.025-.01.065-.015.035v.005h.035l-.01-.015v-.025c0-.01.015 0 .02 0l.025-.005.01.03s-.01.015 0 .015h.035c.01-.005 0-.015 0-.02l-.015-.04-.015-.05-.015-.05-.005-.01h-.005zm-.015.04.02.065-.01.005h-.02c-.005-.005 0-.015 0-.02l.005-.03.005-.02zm.215-.05-.05.005.01.015v.145c0 .005-.02.015-.005.015h.07a.049.049 0 0 0 .02-.015l.02-.025.005-.035a.128.128 0 0 0 0-.035l-.01-.03-.015-.02a.087.087 0 0 0-.02-.01l-.025-.005v-.005zm0 .015c.015 0 .025.005.03.015a.05.05 0 0 1 .005.025v.07a.07.07 0 0 1-.01.03l-.015.01-.025-.005v-.13c0-.01.01-.015.02-.015h-.005zm.15-.005a.04.04 0 0 0-.025.005l-.025.03-.01.04v.04l.01.025a.056.056 0 0 0 .05.04c.015 0 .03-.01.04-.02l.02-.035v-.06a.1.1 0 0 0-.01-.03l-.02-.03a.045.045 0 0 0-.025-.005h-.005zm0 .01c.015 0 .025.015.025.025l.005.03v.045l-.005.03a.05.05 0 0 1-.015.025c-.005.005-.015.01-.02 0-.01 0-.01-.015-.015-.02v-.095c0-.01 0-.02.01-.03a.02.02 0 0 1 .02-.01h-.005zm.07.175h.03c.005-.005-.01-.01-.005-.02a.1.1 0 0 1 0-.03l.005-.03.005-.03.005-.025.005.025v.035l.01.03v.03c.005.01 0 .025.015.02.01 0 .005-.01.01-.015l.01-.05.01-.025.015-.045v.125c0 .005-.015.015 0 .015h.03c.01.005.005 0 0-.005v-.155s.01-.01 0-.01h-.035l-.01.025a.423.423 0 0 1-.01.035l-.005.035s-.005.01-.005 0v-.03c0-.005-.01-.015-.005-.02l-.01-.05c0-.01-.01 0-.02-.01h-.02v.06l-.01.065-.005.025c0 .01-.005.015-.015.02l.005.005zm.165.015.03.005h.015l-.01-.02v-.03l.01-.025a1.26 1.26 0 0 1 0-.08l.01-.01c.005-.01-.005-.005-.01-.005l-.035-.005s.01.01.005.015v.085l-.005.025v.025l-.01.02zm.055.015h.025c.005 0 .015.005.01 0a.04.04 0 0 1-.005-.025v-.045c0-.01.002-.02.005-.03v-.03c.01.005.01.015.015.025l.04.1c0 .01 0 .02.01.02s.01-.005.01-.015v-.025l.005-.025v-.03l.01-.03v-.03s.02-.01.01-.015h-.03l.01.02-.005.055-.005.03-.01-.025-.015-.03-.01-.03-.015-.035a.17.17 0 0 1-.03-.005c-.01 0 0 .01 0 .02.005.015 0 .03 0 .04v.03l-.005.03-.005.03c0 .01-.01.015-.015.02v.005zm.15-.15c.005.01.015.015.01.02v.025a.142.142 0 0 1-.005.025l-.005.035v.025l-.005.015v.015l-.01.01c-.005.005.01 0 .015.005l.025.005s.005 0 0-.005v-.05l.005-.025v-.02c.005-.01 0-.02.01-.03v-.02c0-.005 0-.015.01-.02a.061.061 0 0 0-.02 0l-.02-.01a.01.01 0 0 0-.005 0h-.005zm.055.12a.1.1 0 0 0 .02.065c0 .01.015.01.02.015h.03c.005 0 .015 0 .02-.01l.015-.025c0-.01-.01.005-.015.01-.01.005-.025.01-.035 0a.04.04 0 0 1-.015-.02v-.085l.015-.025a.025.025 0 0 1 .015-.01c.01 0 .015.01.02.015a.04.04 0 0 1 .005.025c0 .005.005.015.01.005l.01-.025c0-.01-.01-.015-.015-.02l-.015-.01h-.04a.063.063 0 0 0-.015.02c-.01.005-.015.02-.02.03a.134.134 0 0 0-.005.035v.01h-.005zm.175-.065-.03.07c0 .005 0 .015-.01.025l-.015.035-.015.02c-.005 0-.005.01 0 .01l.025.005c.01 0 0-.01 0-.015v-.02c.01-.01.02 0 .025 0h.02v.04c-.005 0 0 .01 0 .01l.025.01c.005 0 .015 0 .01-.005-.005-.015 0-.025 0-.04l-.005-.03v-.105l-.025-.01H16.9zm0 .04v.075l-.03-.005c-.005-.01.005-.015.005-.025l.02-.035v-.01h.005zm.075.165v-.07l.01-.025v-.03c.01-.01.01 0 .01.005l.015.05.01.03.01.045c0 .005.005.02.015.015l.01-.03.005-.03.01-.05.01-.04s.02-.01.005-.015c-.005 0-.015-.01-.025-.005l.005.02v.03a.255.255 0 0 0-.01.025l-.005.03c-.01-.005-.005-.015-.01-.025l-.01-.035a.319.319 0 0 1-.015-.06c-.005-.01-.02-.01-.025-.015-.01 0-.015 0-.01.01v.05l-.015.05-.005.03-.015.02c-.01.01.01.01.015.015h.015v.005zm.17-.115-.015.035-.02.035-.04.065s-.01.01 0 .01l.025.01v-.04l.025.005c.005.005.02 0 .02.015l-.005.03c-.005 0-.01.005 0 .01l.015.005c.01 0 .015.01.02.005v-.18l-.025-.005zm0 .035v.08l-.025-.01s-.015 0-.01-.01l.015-.035.015-.025h.005z" fill="#EAC102"/><path d="M14.905 10.878v1.812c0 .16 0 .264.08.362a.49.49 0 0 0 .268.187c.076.014.344.01.438.01.205-.014.232.035.312.133.09-.138.183-.143.366-.134.09 0 .295.005.375-.013a.42.42 0 0 0 .241-.147c.107-.121.098-.268.098-.429v-1.71c0-.08-.009-.058.032-.098l.258-.268h-2.758l.285.3.005-.005z" fill="#fff"/><path d="M15.767 11.681V10.58h-1.139l.281.299v.803h.857z" fill="#002D62"/><path d="M16.222 11.681V10.58h1.16l-.299.317v.79l-.861-.005zm-.456.46h-.861l-.005.697c.04.303.268.41.465.406h.402V12.14z" fill="#CE1126"/><path d="M16.222 12.141h.866v.701c-.023.304-.268.41-.469.406h-.402l.005-1.107z" fill="#002D62"/><path d="M14.91 10.878v1.812c0 .16 0 .26.08.37a.41.41 0 0 0 .268.18c.076.013.343.008.437.008.12 0 .174-.009.255.072.026.026.03.035.049.067a.362.362 0 0 1 .133-.125c.063-.023.17-.014.241-.014.094 0 .295.005.375-.013a.473.473 0 0 0 .241-.147c.108-.121.099-.268.099-.429v-1.71c0-.08-.01-.058.031-.098l.259-.268h-2.754l.285.3v-.005z" stroke="#000" stroke-width=".056"/><path d="M15.954 10.851v.125h-.134v.103h.125v.446h.103v-.446h.13v-.103h-.13v-.125h-.094z" fill="#EAC102" stroke="#000" stroke-width=".033"/><path d="M15.235 11.012v.205l-.085-.089.014 1.428c0 .21.152.384.34.384.187 0 .338-.17.343-.38l-.013-.731-.09-.098-.004-.076-.505-.643z" fill="#fff"/><path d="M15.235 11.02v.206l-.085-.09.01.813.365.353v-.777l-.008-.018v-.134l-.282-.352z" fill="#002D62"/><path d="m15.633 11.525.107.134v.05l-.107-.112v-.072zm.2.313.01.509c-.054.098-.161.044-.161.044l.004-.705.147.152z" fill="#CE1126"/><path d="M15.847 12.601c-.143.107-.179-.045-.179-.045a.196.196 0 0 0 .179-.134v.179z" fill="#002D62"/><path d="M15.16 12.16c.107.123.226.235.357.334.044.344.245.228.316.178-.044.161-.174.277-.33.277-.187 0-.34-.174-.34-.384l-.004-.406z" fill="#CE1126"/><path d="M15.74 11.708v-.049l-.505-.647v.178l.505.518zm-.59-.576.014 1.424c0 .21.152.384.344.384.183 0 .334-.17.339-.38l-.013-.731-.684-.697z" stroke="#000" stroke-width=".033"/><path d="M15.427 10.887c-.035-.063-.027-.09-.004-.116l-.134-.134.04.187c.036-.008.063 0 .098.063zm-.134-.25.134.25-.134-.25z" fill="#EAC102"/><path d="M15.427 10.887c-.035-.063-.027-.09-.004-.116l-.134-.134.04.187c.036-.008.063 0 .098.063zm0 0-.134-.25" stroke="#000" stroke-width=".011"/><path d="m15.954 11.757-.031.014-.536-.91.036-.019.531.915z" fill="#EAC102" stroke="#000" stroke-width=".011"/><path d="M15.374 10.86c-.005-.009 0-.022.022-.031.013-.009.031-.009.036 0 0 .009-.005.022-.023.031-.013.01-.03.01-.035 0zm-.179.072c-.045-.059-.04-.09-.018-.117l-.147-.115.063.178c.035-.013.062-.005.102.054zm-.165-.232.165.232-.165-.232z" fill="#EAC102"/><path d="M15.195 10.932c-.045-.059-.04-.09-.018-.117l-.147-.115m.165.232c-.04-.059-.067-.067-.103-.054l-.062-.178m.165.232-.165-.232m.344.16c-.005-.009 0-.022.022-.031.013-.009.031-.009.036 0 0 .009-.005.022-.023.031-.013.01-.03.01-.035 0z" stroke="#000" stroke-width=".011"/><path d="m15.833 11.726-.03.018-.644-.835.027-.022.647.84z" fill="#EAC102" stroke="#000" stroke-width=".011"/><path d="M15.142 10.914c-.01-.01 0-.027.013-.036.018-.013.031-.013.04-.005 0 .005 0 .023-.018.032-.018.009-.03.013-.035.004v.005zm.018.205c-.05-.058-.05-.09-.032-.116l-.16-.098.08.174c.036-.018.062-.018.111.04zm-.193-.214.192.21-.192-.21z" fill="#EAC102"/><path d="m14.967 10.905.161.098c-.018.027-.018.058.031.116-.049-.058-.075-.058-.111-.04l-.08-.174zm0 0 .192.21m-.017-.201c-.01-.01 0-.027.013-.036.018-.013.031-.013.04-.005 0 .005 0 .023-.018.032-.018.009-.03.013-.035.004v.005z" stroke="#000" stroke-width=".011"/><path d="m15.851 11.855-.732-.758.027-.023.732.76-.027.021z" fill="#EAC102" stroke="#000" stroke-width=".011"/><path d="M15.101 11.101c-.008-.004 0-.022.014-.036.013-.013.027-.017.036-.008.004.008 0 .022-.014.035-.013.014-.031.018-.036.01z" fill="#EAC102" stroke="#000" stroke-width=".011"/><path d="M16.775 11.012v.205l.085-.089-.013 1.428c0 .21-.152.384-.34.384-.187 0-.339-.17-.343-.38l.013-.731.09-.098.004-.076.504-.643z" fill="#fff"/><path d="M16.775 11.02v.206l.085-.09-.009.813-.366.353v-.777l.01-.018v-.134l.28-.352z" fill="#002D62"/><path d="m16.378 11.525-.107.134v.05l.107-.112v-.072zm-.2.313-.01.509c.054.098.161.044.161.044l-.005-.705-.147.152z" fill="#CE1126"/><path d="M16.164 12.601c.143.107.178-.045.178-.045a.196.196 0 0 1-.178-.134v.179z" fill="#002D62"/><path d="M16.851 12.16a2.413 2.413 0 0 1-.357.334c-.044.344-.245.228-.317.178.045.161.174.277.33.277.188 0 .34-.174.34-.384l.004-.406z" fill="#CE1126"/><path d="M16.27 11.708v-.049l.505-.647v.178l-.504.518zm.59-.576-.013 1.424c0 .21-.152.384-.344.384-.183 0-.335-.17-.34-.38l.014-.731.683-.697z" stroke="#000" stroke-width=".033"/><path d="M16.583 10.887c.036-.063.027-.09.005-.116l.134-.134-.04.187c-.036-.008-.063 0-.099.063zm.134-.25-.134.25.134-.25z" fill="#EAC102"/><path d="M16.583 10.887c.036-.063.027-.09.005-.116l.134-.134-.04.187c-.036-.008-.063 0-.099.063zm0 0 .134-.25" stroke="#000" stroke-width=".011"/><path d="m16.057 11.757.03.014.537-.91-.036-.019-.531.915z" fill="#EAC102" stroke="#000" stroke-width=".011"/><path d="M16.637 10.86c.004-.009 0-.022-.022-.031-.014-.009-.032-.009-.036 0 0 .009.004.022.022.031.014.01.031.01.036 0zm.178.072c.045-.059.04-.09.018-.117l.148-.115-.063.178c-.036-.013-.062-.005-.103.054zm.166-.232-.166.232.166-.232z" fill="#EAC102"/><path d="M16.815 10.932c.045-.059.04-.09.018-.117l.148-.115m-.166.232c.04-.059.067-.067.103-.054l.063-.178m-.166.232.166-.232m-.344.16c.004-.009 0-.022-.022-.031-.014-.009-.032-.009-.036 0 0 .009.004.022.022.031.014.01.031.01.036 0z" stroke="#000" stroke-width=".011"/><path d="m16.177 11.726.031.018.643-.835-.027-.022-.647.84z" fill="#EAC102" stroke="#000" stroke-width=".011"/><path d="M16.869 10.914c.009-.01 0-.027-.013-.036-.018-.013-.032-.013-.04-.005 0 .005 0 .023.017.032.018.009.032.013.036.004v.005zm-.018.205c.05-.058.05-.09.031-.116l.161-.098-.08.174c-.036-.018-.063-.018-.112.04zm.192-.214-.192.21.192-.21z" fill="#EAC102"/><path d="m17.043 10.905-.16.098c.017.027.017.058-.032.116.05-.058.076-.058.112-.04l.08-.174zm0 0-.192.21m.018-.201c.009-.01 0-.027-.013-.036-.018-.013-.032-.013-.04-.005 0 .005 0 .023.017.032.018.009.032.013.036.004v.005z" stroke="#000" stroke-width=".011"/><path d="m16.16 11.855.731-.758-.026-.023-.732.76.026.021z" fill="#EAC102" stroke="#000" stroke-width=".011"/><path d="M16.91 11.101c.008-.004 0-.022-.014-.036-.014-.013-.027-.017-.036-.008-.004.008 0 .022.013.035.014.014.032.018.036.01z" fill="#EAC102" stroke="#000" stroke-width=".011"/><path d="m15.896 12.373-.027.451c-.027 0-.085-.004-.09-.044 0-.018.059-.389.059-.425l.058.018z" fill="#CE1126" stroke="#000" stroke-width=".022"/><path d="m15.856 12.355-.014.139c.01.045.063.036.09.04l.009-.232a.732.732 0 0 1-.09.053h.005z" fill="#002D62" stroke="#000" stroke-width=".022"/><path d="M15.86 12.931c.072-.089.215-.022.215-.022.151.036.111-.138.111-.138-.031-.349-.067-.59-.067-.59l-.223.152-.036.598z" fill="#002D62" stroke="#000" stroke-width=".022"/><path d="M15.86 12.94c-.018.103.09.09.09.09.12 0 .084-.134.084-.134-.133-.04-.178.044-.178.044h.004z" fill="#002D62" stroke="#000" stroke-width=".022"/><path d="m15.945 12.293-.009.402c.005.093.112.044.112.044.027-.013.053-.004.053-.004v-.125c.179-.013.134-.116.134-.116-.071-.34-.08-.326-.08-.326l-.21.125z" fill="#CE1126" stroke="#000" stroke-width=".022"/><path d="M16.101 12.61c-.111 0-.16.045-.16.045v.008" stroke="#000" stroke-width=".022"/><path d="m16.088 12.905-.04-.675.08-.053.067.634v.004c0 .12-.107.09-.107.09z" fill="#fff" stroke="#000" stroke-width=".022"/><path d="m15.517 11.824.303.554.656-.433-.343-.5-.616.38z" fill="#000"/><path d="m15.53 11.82.611-.357.34.482-.652.42-.3-.545z" fill="#fff" stroke="#000" stroke-width=".033"/><path d="m15.838 12.329.611-.393-.044-.076-.308-.415-.224.178-.28.157-.05-.032.01.067.285.514z" fill="#000"/><path d="M15.874 11.628c-.09-.045-.197.09-.224.116-.035.027-.093.013-.093.013l.276.491c.08.036.134-.067.17-.102.071-.058.152-.054.152-.054l-.281-.464z" fill="#fff" stroke="#000" stroke-width=".011"/><path d="M15.883 11.632c0-.107.133-.138.165-.16.035-.018.044-.085.044-.085l.313.473c-.01.09-.116.103-.16.125-.081.045-.09.112-.09.112l-.273-.465zm-.063.62c-.089-.164-.18-.328-.272-.49v.053c.205.335.29.514.29.514l-.018-.076z" fill="#fff" stroke="#000" stroke-width=".011"/><path d="M15.637 11.824v.01l.004-.005.01.004h-.01l.005.01.009-.01-.014.014-.008-.018h-.005l.018-.014v.01h-.009zm.018-.013.009.018v.009c-.005 0 0 0 0-.005l-.005-.004-.009-.014.005-.004zm.022-.014v.005h-.009v.004h.018v.014a.009.009 0 0 1-.009 0v.004l-.004-.004h.009c.004 0 .004-.005 0-.005h-.005l-.009-.004v-.009h.005v-.005h.004zm.023.01v.004h-.01v-.005l.005-.004v-.005h-.005v.005a.01.01 0 0 1 0-.005v-.004l.01.005v.008zm0 0v-.005l-.005.004h.005zm.004-.018.004-.005h.005l.009.009-.005.009v-.005l-.004-.004v-.004h-.005v.008h.005l-.005.01v-.01l-.004-.004h-.005l.005-.004zm.013-.018.005.004h.004v.014l-.009-.01v-.008zm.014 0a.009.009 0 0 1 .009 0c.002 0 .003.002.004.004l.001.005v.004l-.002.003-.003.002c-.002 0-.003 0-.004-.002v-.003a.008.008 0 0 1-.004-.002.008.008 0 0 1-.002-.004v-.007zm0 0v.004l.009.01v-.014H15.73zm-.072.089.005.009v-.005l.009.01h-.01l.005.004h.005l.004-.005v-.004.009l-.013.009v-.005l-.01-.013.014-.014v.005H15.66zm.031.009-.013-.009.005-.005v.005h.008c0-.005 0-.009-.004-.005v-.004.009l.005.009zm.014-.014v.01h-.009v-.01l.005-.004c0-.004-.005 0-.005 0a.01.01 0 0 1 0-.005l.005-.004.004.005.004.008h-.004zm.009-.017c.004-.005.009 0 .009 0l.004.004v.01l-.009-.01v-.004.018l-.004-.01-.005-.004v-.004h.005zm.018-.014h.004v.014h.01v.009h-.01l-.004-.005v-.004h-.005v-.01a.01.01 0 0 1 .005 0v-.004zm0 0v.01c.004 0 .004 0 0 0v-.01zm.009.018s-.005 0 0 .005l.004-.005h-.004zm.013-.022h-.009l.005.009.004-.005v.005h-.009v-.005c-.004 0 0-.009 0-.009H15.753v.005zm-.004-.018.013.018h.004l-.008.004v-.004l-.01-.014v-.004zm.008-.005h.005v.005l-.005-.005zm.01.005.004.013v.005l-.005-.005-.004-.009.004-.004zm.008-.005h.005l.004.01v.004l-.001.003-.003.001-.003-.001-.002-.003a.01.01 0 0 1-.002-.003.01.01 0 0 1 0-.004.01.01 0 0 1 0-.004l.002-.003zm0 0v.014h.01v-.009h-.01c0-.005 0-.005 0 0v-.005zm-.089.099.005.009c0-.005-.01-.005-.01 0h.01l.008.004v.009a.009.009 0 0 1-.003.004.01.01 0 0 1-.005 0l-.01-.004h.014v-.004h-.018a.009.009 0 0 1-.003-.007.01.01 0 0 1 0-.004l.003-.003a.009.009 0 0 1 .009 0v-.004zm.027 0-.01.009h.01v.004H15.7v-.017h.007l.001.004h.005zm.004-.01h.005v.014h.009v.005a.018.018 0 0 1-.01.004l-.004-.004V11.9h-.004v-.013h.004zm0 0v.01a.014.014 0 0 0 0-.01zm.018-.013.01.014-.01.009-.009-.014.01.01h.004v-.005l-.005-.01v-.004zm.014-.004v-.005h.008l.005.01-.005.008v-.009l-.004-.004v.018l-.009-.01v-.008h.005zm.026-.027v.005h-.009v.004h.018v.013a.009.009 0 0 1-.009 0v.005l-.004-.005h.009v-.004h-.014a.01.01 0 0 1-.002-.003.01.01 0 0 1 0-.004.01.01 0 0 1 0-.003.01.01 0 0 1 .002-.003h.005v-.005h.004zm.023.01-.005.003h-.004a.01.01 0 0 1-.002-.004l.002-.004a.01.01 0 0 1-.002-.005l.002-.004.001-.003.003-.002c.001 0 .003 0 .003.002.001 0 .002.001.002.003v.009h.004v.004h-.004zm0 0-.005-.005v.004h.005zm.004-.019.005-.004h.004l.009.009-.005.009-.004-.01v-.004h-.004v.01h.004l-.004.008v-.009l-.01-.004.005-.005zm.018-.022.013-.005.005.014v.009a.009.009 0 0 1-.005.004h-.004v-.004h.004v-.01l-.008-.008h-.005zm.031-.009.005.013-.005.01h-.004l-.01-.014h.005l.005.009h.004v-.018zm.018.004v.005h-.009v-.014.005c-.004 0 0 0 0-.005h.01v.005h.004v.004h-.005zm0 0v-.004l-.004.004h.004zm.005-.017.004-.005h.005l.008.009-.004.005-.005-.005v-.004h-.004v.008h.005l-.005.01v-.014h-.009l.005-.004zm-.121.21.005.004a.009.009 0 0 0-.013.004.01.01 0 0 0 0 .005l.004.009h.013v-.01.005a.01.01 0 0 1 .001.005.01.01 0 0 1-.001.004.009.009 0 0 1-.007.003.01.01 0 0 1-.003 0 .008.008 0 0 1-.003-.003.013.013 0 0 1-.005-.018.013.013 0 0 1 .009-.004v-.005zm.027 0-.01.008V12.016v-.009l-.004-.018.018.014h.005l-.01.004V11.998zm0 0h-.014v.008l.01-.004.004-.005zm.009-.01.004.01h.005l-.01.004v-.005l-.004-.013h-.004l.009-.009h.004c.005 0 .005.004 0 .009a.01.01 0 0 1 0 .004h-.004zm0 0 .004-.004.003-.001.002-.004s0-.002-.002-.003l-.003-.001-.009.004.005.01zm.027 0h-.01l-.004-.017h-.004l.004-.005v.005l.01.013h.004v.004zm.004-.035.005.004h-.01l.01.018h.004l-.009.009c.005 0 0-.005 0-.009l-.005-.013h-.004v.009l-.004-.005.013-.013zm.018-.01h.009v.014l.004.005a.013.013 0 0 1-.003.005.014.014 0 0 1-.006.004.009.009 0 0 1-.009-.005v-.009h-.008l.008-.009v.005l.005.009.004.004a.009.009 0 0 0 .01 0l.002-.001.002-.003c0-.002 0-.003-.002-.003l-.003-.002-.009-.009-.004-.004zm.031 0 .005.005-.018.01-.005-.019h-.004l.009-.004v.004l.004.014h.005l.004-.005v-.004zm.005-.022h.013a.013.013 0 0 1 .004.014.013.013 0 0 1-.013.009.013.013 0 0 1-.009-.005.013.013 0 0 1 0-.013.013.013 0 0 1 .005-.005zm0 0c-.002 0-.003 0-.004.002v.006l.004.001v.01h.008c.002 0 .004 0 .006-.002a.01.01 0 0 0 .003-.003.018.018 0 0 0-.004-.01.009.009 0 0 0-.004-.003H15.874zm.044-.026h-.004v.03l-.018-.012h.004l.014.008v-.013s0-.004-.005 0l.005-.009.004-.004zm.018.013-.009.009v-.009l-.009-.013.005-.005v.005l.009.013h.004zm.009-.004-.005.004v-.004l-.008-.014h-.005l.009-.009v.01l.005.013h.004zm.013-.01-.009.01V11.9l-.008-.018h-.005l.009-.004v.004l.009.014h.004zm-.178.188v-.009h.009v.005c0-.002.001-.002.003-.003h.003l.003.003V12.092a.015.015 0 0 1-.005.005c.005-.005.005-.01 0-.01h-.004.003l.001-.004-.001-.003-.003-.001h-.005l-.004.004zm.018-.013v-.01l.013.019h.005l-.005.009v-.01l-.009-.008h-.004zm.03-.023.01-.004v.018c0 .004 0 .004.004 0v.004l-.009.005v-.01l-.013-.004.005-.008v.004l.008.004v-.008h-.004zm.037 0v.005h-.01a.007.007 0 0 1-.002-.003v-.007l.003-.003v-.01l.013.014v.005h-.004zm0 0v-.008h-.01v.004l.005.005h.005zm.004-.013.009.005v-.005h.005v.009l-.002.003-.003.002-.003-.002-.001-.003a.013.013 0 0 1-.005-.009v-.004l.001-.004h.007l.001.004-.009.004zm0 0h.009l-.004-.004s-.005 0 0 .004h-.005zm.027-.009a.009.009 0 0 1 0 .01l-.001.002-.004.002s-.002 0-.003-.002l-.001-.003-.005-.004v-.01s0-.002.002-.002l.003-.002c.001 0 .002 0 .003.002l.001.003h-.004V12.03l.001.003.003.001.004-.001v-.008zm0-.013.009.013H15.9l-.004-.009v-.004zm.018.004v.005h-.01v-.005a.037.037 0 0 1 .005-.004v-.005l.01.01h-.005zm0 0v-.004l-.005.004h.005zm.004-.027.01-.004.004.013v.01-.005l-.01-.014h-.004zm.018 0 .009.01.004-.005v.008h-.007l-.002-.004v-.004a.009.009 0 0 1 0-.009h.01l-.014.004zm0 0h.009s0-.004-.005 0h-.004zm.018-.013c-.005.004 0 .009 0 .004h.004c.002 0 .003.001.003.002l.002.003v.004h-.01.005v-.004h-.009V11.976h.005zm.018-.009.004.009v.004c-.004.005-.009.005-.009 0l-.009-.004v-.004l.01.008h.004v-.008h-.005l.005-.005zm.009-.009c-.005.005 0 .01 0 .01h.004l.002-.002.003.001h-.014v-.004h.005v-.005zm.027 0v.005h-.01v-.005l.005-.004v-.005l.009.01h-.005zm0 0v-.004h-.01l.005.009v-.005h.005zm-.201.156.008.018-.008-.013v-.009.004zm.013 0a.009.009 0 0 1 .005 0h.004v.005l.001.004-.001.005h-.004c-.003 0-.005-.001-.007-.003a.01.01 0 0 1-.002-.006c0-.002.002-.004.004-.005zm0 0v.008c.001.002.002.004.005.006h.004v-.01l-.005-.004h-.004zm.018-.013v.004h-.005.01l.002.002.002.003c0 .001 0 .002-.002.003l-.003.001v.005-.009h-.009v-.009h.005zm.013-.009.01.013v.01-.014l-.01-.004v-.005zm.018-.009.009.01v.004l-.009.004-.009-.004v-.01l.01.01v-.014zm.022 0-.004.01h-.009a.01.01 0 0 1-.002-.004.01.01 0 0 1-.001-.004.01.01 0 0 1 0-.003.01.01 0 0 1 .003-.003h.005v-.01h-.005l.013.014zm0 0h-.008v-.004c-.005 0-.005 0 0 .004v.005h.004l.004-.005zm0-.013.01.009v.004h-.005l-.005-.009v-.004zm.01-.01a.009.009 0 0 1 .008 0l.004.005v.012l-.004.002s-.002 0-.003-.002l-.001-.003a.008.008 0 0 1-.004-.004.01.01 0 0 1 0-.005.01.01 0 0 1 0-.004zm0 0v.005c0 .004.001.007.004.01h.009v-.01h-.01l-.004-.004zm.017-.008v.004h.01v.01h-.01.01v-.005h-.014c-.002 0-.003 0-.003-.002-.001 0-.002-.001-.002-.003 0 0 0-.002.002-.003l.003-.001h.004zm.023-.018.013.018h-.018a.01.01 0 0 1-.001-.005l.001-.004v-.004h.005v-.005zm.004.013v-.004h-.009l.005.009a.005.005 0 0 0 .004 0v-.005zm.013-.022.005.014v.004h-.01.005v-.013h-.004l.004-.005zm.01 0 .004.01.004-.005v.004l-.001.003-.003.002c-.001 0-.003 0-.003-.002l-.002-.003v-.004a.009.009 0 0 1 0-.01h.005l-.005.01v-.005zm0 0h.004l-.005-.004v.004zm.013-.022.013.018v.004l-.004-.004-.01-.014v-.004zm.013.009h.009v-.005h.005v.01l-.002.002-.003.002c-.001 0-.002 0-.003-.002l-.002-.003a.01.01 0 0 1-.004-.004.009.009 0 0 1 0-.01l.001-.002.004-.002s.002 0 .003.002l.001.003-.009.009zm0 0 .009-.01h-.005s-.004 0 0 .005l-.004.005zm-.165.138.004.014.005-.01h.004l.005.01h.004l-.004.008v-.008l-.005-.005h-.004v.013-.004l-.01-.013v-.005zm.031.01c-.004.004-.009.004-.009 0v-.01c0 .005-.004.005-.004 0 .004 0 .004-.004.009 0l.004.005c0 .004 0 .004 0 0v.004zm0 0-.004-.01v.01h.004zm0-.019.005-.004h.009a.01.01 0 0 1 .003.006.01.01 0 0 1-.001.004.008.008 0 0 1-.002.003c-.005 0-.005.005-.01 0l-.008-.013.004.004zm0 0 .01.01h.004v-.01h-.014zm.018-.013.009.013-.005.005v-.005l-.004-.004V12.128zm.018.009h-.01v-.005a.048.048 0 0 1 .005-.004h-.004l.004-.005.01.01-.005.004zm0 0v-.01l-.005.005v.005h.005zm.004-.018v-.005h.01l.004.01v.004l-.01-.01v.01h.005l-.004.004-.005-.009h-.004v-.004h.004zm.036-.014.001.005-.001.004-.001.004h-.007v-.004h-.005v-.013l.001-.003.003-.001h.003l.002.004h-.005l-.004.004v.006a.01.01 0 0 0 .004.003l.001.004h.007l.001-.004v-.009zm0-.013h.005v.018h.004l-.005.004-.004-.009V12.092zm.009 0 .009.005v-.005h.004v.012l-.004.002-.003-.002-.002-.003a.009.009 0 0 1-.003-.004l-.001-.005v-.004l.001-.003.003-.002c.002 0 .003 0 .004.002v.003l-.008.004zm0 0h.009l-.005-.004v.004h-.004zm.013-.013.01.009v.009l-.005-.01-.005-.004v-.004zm.023 0-.005.009h-.009a.007.007 0 0 1-.002-.003v-.008l.002-.003h.005v-.009h-.005l.014.014zm0 0h-.005l-.004-.005v.01h.009v-.005zm0-.018.003-.002a.01.01 0 0 1 .003-.001.009.009 0 0 1 .007.003l.001.004V12.08a.009.009 0 0 1-.01 0 .01.01 0 0 1-.002-.003.01.01 0 0 1 0-.004.01.01 0 0 1 0-.004.01.01 0 0 1 .002-.003l-.004-.004zm0 0v.009a.013.013 0 0 0 .009.004h.004v-.004l-.004-.005h-.005l-.004-.004zm-.045-.41.009.004c0-.002 0-.004-.002-.005a.007.007 0 0 0-.005-.002c-.002 0-.003 0-.005.002a.007.007 0 0 0-.001.005v.004h.017l.003.002v.004a.005.005 0 0 1-.003.003h-.004l-.005.005v-.005h.005v-.004h-.009c-.004-.005-.004-.01 0-.01v-.004zm.009-.005.009.013h.004l-.004.005-.005-.01v-.004l-.004-.004zm.013 0 .005-.005.009.01v-.014.018l-.01-.01h-.004zm.018-.014.001-.003.004-.001.003.001.001.003v.014l-.005-.001a.01.01 0 0 1-.004-.004l-.003-.001-.001-.003.001-.003.003-.002zm0 0v.01h.01v-.005s-.005-.005-.005 0l-.005-.005zm.014-.009v.005h.008v.009h-.004c.005 0 0-.005 0-.005h-.004v-.009zm.013-.004h.005l.004.009s-.005.004-.009 0h-.005l-.003-.001v-.007L16 11.62h.004zm0 0v.009h.009v-.005l-.009-.004zm.005-.013v.004h.008v.009l-.004-.005v-.008h-.005zm.013 0v.008h.009l-.01.005v-.009h-.004l.005-.004zm.009-.005h.004l.005.009h-.005a.009.009 0 0 1-.009 0l-.003-.001-.001-.003.001-.004h.003a.005.005 0 0 1 .005 0zm0 0v.005l.004.004h.005v-.004l-.01-.005zm.013-.009v.005h.005s.004 0 0 .004v.005h-.005.01l-.005-.005h-.005v-.009zm-.09.107v-.004h.005c0-.005.005-.005.005 0l.004.004v.002l-.001.001-.002.001h-.001v.005h.004l-.004.005-.01-.014zm0 0h.01c0 .005 0 .005 0 0v-.004h-.005l-.004.004zm.014-.009h.01v.005h-.005a.01.01 0 0 1-.005-.005h-.003l-.001-.004.001-.003.003-.002s0-.002.002-.003l.003-.001.003.001.001.003-.009.01zm0 0 .01-.004h-.01v.004zm.014-.013v.009h.009l-.01.004v-.009h-.004l.005-.004zm.009 0v-.009h.008c0-.004.005 0 .005 0h-.005v.009h.005l-.005.004v-.008h-.008l.004.008v.005-.005l-.009-.004v-.005h.005v.005zm.026-.009c-.004.005-.008 0-.004 0v-.004c0-.005 0-.005 0 0h-.005v-.005h.005l.009.005v.004h-.005zm0 0v-.004h-.004v.004h.004zm.005-.013v-.005h.009v.01-.005h-.01zm.013-.005h.01l-.002.003-.003.002c-.002 0-.003 0-.003-.002l-.002-.003-.003-.001-.001-.003.001-.003.003-.002h.005l-.005.01zm0 0 .005-.004h-.005v.004zm.023-.009v.005s0 .002-.002.003l-.003.001-.003-.001-.001-.003h-.005c-.001 0-.002 0-.003-.002l-.001-.003.001-.003.003-.001a.009.009 0 0 0 0 .009h.01v-.005h.004zm0-.009.004.005h.005v-.005.01l-.002.002-.003.002c-.001 0-.002 0-.003-.002l-.001-.003a.009.009 0 0 1 0-.009l-.001-.002v-.002h.005l-.004.004zm0 0h.004c0-.004 0-.004-.004 0zm.009-.009.004-.004v.018h.004l-.009-.01v-.004zm.013 0h.009c0 .002 0 .003-.002.004h-.006l-.001-.004h-.008l-.001-.004.001-.003.003-.002s0-.002.002-.003l.003-.001.003.001.001.003-.004.01zm0-.022c.004 0 .009 0 .004.005l-.004-.005zm.009.009.004.009-.004-.005v-.004zm.009-.009v.005h.004s.005.004 0 .008h-.004.009s0-.004-.005 0h-.004v-.017.004zm-.12.134h.008H15.976l-.003-.001-.001-.004.001-.003h.003a.005.005 0 0 1 .005 0l-.005.008zm0-.005h.004c0-.004 0-.004-.005 0zm.013-.008v-.005h.004l.005.005v.004l-.005-.009h-.004v.01h.004v.003l-.009-.008h.005zm.018-.014v-.004h.008v-.005.018h.005-.005v-.004h-.008l.004.009h-.005v-.01h-.004l.005-.004zm.017-.018.01.014h-.005v-.01h-.005v-.004zm.01 0 .004-.004v-.005h.009s.004.01 0 .01v.013l-.01-.014h-.004zm.008 0c0 .005.005.005.005 0v-.004h-.005v.004zm.018-.004c-.004.004-.004 0-.004 0v-.009.004h-.005v-.004h.009v.004h.005l-.005.005zm0 0v-.005h-.004c0 .005 0 .01.004.005zm0-.022.009.013v.004l-.009-.013v-.004zm.022.008-.004.005h-.005v-.013l.01.008zm0 0-.004-.004v.009-.005h.004zm0-.013v-.004h.01V11.668h-.005l-.01-.013.005.004zm0 0 .005.009h.004v-.009H16.083zm.014-.009c.004 0 .004 0 0 0l.004.01v.004l-.004-.01v-.004zm.018 0v.005h-.01l.005-.01.005.005zm-.116.107c-.005.005 0 .005 0 .005h.004v.009h-.005.005v-.005h-.009v-.009H16zm.008 0h.01v.005l-.002.003-.003.001-.003-.001-.002-.003V11.753h.005l-.005.004zm.01-.013h.004v.009h.004a.091.091 0 0 0-.004.004l-.005-.009v-.004zm.008 0 .005.004h.004l-.002.001h-.007l-.003-.002-.001-.003.001-.003.003-.002s0-.002.002-.003l.003-.001.003.001.001.003-.009.005zm.005 0c0-.005 0-.005 0 0zm.004-.014.01.014-.005-.009-.005-.005zm.014-.004c-.005.004 0 .004 0 .004h.004v.01-.005h-.009v-.009h.005zm.009-.004.004-.005.009.01v-.01h-.005v-.004l.005.013-.009-.004h-.004zm.017-.01.005.005h.004v-.004.009l-.001.003-.003.001-.003-.001-.002-.003a.009.009 0 0 1 0-.005v-.004a.005.005 0 0 1 0-.005.005.005 0 0 1 .005 0l-.005.005zm0 0h.005c0-.004 0-.004-.005 0zm.01-.013v.005l.004-.005v.018h.004l-.009-.009V11.7zm.022 0 .002.003a.005.005 0 0 1-.003.007h-.004a.009.009 0 0 1-.009 0 .009.009 0 0 1-.002-.011.01.01 0 0 1 .002-.003h.005v-.01l.009.014zm0 0H16.1c0-.004-.004-.004-.004 0v.005h.009v-.005zm.009 0h-.005v-.009h-.004.009c0 .005.004 0 .004 0v.01h-.004zm0 0v-.009l-.005.005s0 .004.005 0v.004zm.013-.013v.004a.01.01 0 0 1-.005.002.01.01 0 0 1-.004-.002.009.009 0 0 1 0-.009v-.008l.009.013zm0 0v-.005h-.009l.005.01h.004v-.005zm0-.009.009.004h.004v.004h-.007l-.002-.004h-.003l-.001-.004.001-.003.003-.002h.005l-.009.005zm0 0h.009c0-.005 0-.005-.005 0h-.004zm.013-.013h.005v.008h.004l-.004.01v-.005l-.005-.009v-.004zm.018 0v.008l-.004-.004v-.009.005h-.005v-.005h.01v.009h.004l-.005-.004zm0 0h-.004c0 .004 0 .008.004.004v-.004zm.005-.01v-.004h.009v-.004.018-.005h-.01v-.004zm.022-.008h.009v.004l-.001.003-.003.002c-.002 0-.003 0-.004-.002l-.001-.003a.009.009 0 0 1-.005-.004s-.002 0-.003-.002v-.006l.003-.001.002-.003.003-.002c.001 0 .002 0 .003.002l.002.003-.005.009zm.009-.01v-.008h.009v.009h.004v.004l-.004-.009h-.005v.018l-.004-.009v-.004zm.009-.017v.004h.004v.01-.005h-.004a.01.01 0 0 0 .001-.005.01.01 0 0 0-.001-.004zm.013.004v.005h.01v-.005.01l-.002.003h-.006l-.002-.004a.009.009 0 0 1 0-.009v-.004h.005l-.005.004zm0 0c0-.004 0-.004 0 0zm-.2.17v-.004h.008v-.005h.005l.004.009-.004-.004h-.005v.008h.005-.005v-.004h-.009zm.013-.022s.004 0 0 .004v-.004zm.004.009.01.009h-.005v-.005h-.005v-.004zm.014-.01-.005.005h.01v.01h-.005c0-.005.004 0 0 0h-.005v-.014h.005zm.022 0v.005a.009.009 0 0 1-.009 0 .009.009 0 0 1 0-.009v-.009l.009.01v.004zm0 0v-.004c-.005 0-.009-.004-.009 0l.005.01.004-.005zm0-.017.009.013-.005-.009h-.004v-.004zm.009-.005v.005h.009v.009-.005h-.01v-.009zm.022 0v.005l-.001.003-.003.001-.003-.001-.002-.003s-.002 0-.003-.002l-.001-.003.001-.003.003-.001h.005-.01a.01.01 0 0 0 .002.005c0 .002.002.003.003.004h.005v-.005h.004zm-.004-.013.009.013-.005-.008-.004-.005zm.009 0 .004-.005h.01v.014h-.005v.004l-.01-.013zm0 0 .009.009c.004 0 0-.005 0-.009H16.106zm.013-.013.009.013-.009-.009v-.004zm.005-.01.008.018-.009-.013v-.004zm.013 0a.005.005 0 0 1 .004 0l.005.01-.005.004a.01.01 0 0 1-.005 0 .009.009 0 0 1-.004-.004s-.002 0-.003-.002l-.001-.003.001-.003.003-.001h.005zm0 0v.01h.009v-.005h-.01v-.004zm.013-.008v.004h.005s.004.005 0 .01h-.005.01s0-.005-.005 0h-.005v-.019.005zm-.076.192v-.01a.005.005 0 0 1 .005 0v.005l.003-.002a.005.005 0 0 1 .006.003v.004a.009.009 0 0 1 0 .009h-.005c.005 0 0-.005 0-.01h-.004v-.004h-.005v.005zm.027-.005-.009.01v-.019h-.004a.005.005 0 0 1 .004 0h.005v.014h.004v-.005zm.018-.031.009-.005v.027-.004l-.005-.005-.013-.004.005-.009v.004l.009.005v-.009h-.005zm.031 0-.001.003-.003.001-.005-.004-.003-.001-.001-.004.001-.003H16.151s0 .003-.005 0c0 0-.005 0 0 .003v.005h.004zm.005-.013.002-.001h.002l.005.005-.005.009a.01.01 0 0 1-.006-.003.009.009 0 0 1-.003-.006v-.004l.003-.001h.002zm0 0v.004l.004.004h.005v-.008h-.01zm.013-.005v-.009h.005l.004.01v.004l-.004-.01h-.005v.01h.005v.004l-.01-.009v-.004l.005.004zm.014-.013h.004l.005.009s0 .004-.005 0a.009.009 0 0 1-.005 0h-.004c-.001 0-.002 0-.003-.002l-.001-.003v-.003l.004-.001h.005zm0 0v.013l.009-.004v-.005c-.005 0-.01-.004-.01 0v-.004zm.022 0v.003a.005.005 0 0 1-.006.003.005.005 0 0 1-.003-.002v-.004c-.001 0-.002 0-.003-.002l-.002-.003s0-.002.002-.003l.003-.001h.004l-.009.004.005.005H16.204zm0-.01h.009v.005a.005.005 0 0 1-.005 0 .009.009 0 0 1-.004-.004v-.005a.005.005 0 0 1 .004 0l-.004.005zm0 0h.004l-.004-.004v.005zm.009-.013h.004v.01h.005v.004l-.01-.01v-.004zm.013 0v.005h.01l-.002.003-.003.001-.004-.001v-.003l-.004-.001-.001-.004.001-.003.003-.001h.005l-.005.004zm0 0c0-.004 0-.004 0 0zm.01-.013.004.009h.004l-.004.004-.005-.008v-.005zm.008-.004v.004h.005s.004.005 0 .005v.004h-.005.009l-.005-.005h-.004v-.008zm.009-.018.013.018h-.004l-.009-.014v-.004zm.022.013c-.004.005-.009 0-.009 0l.005-.004h-.005v-.005h.01v.01zm0 0v-.004h-.004v.004h.004zm-.178.147v-.004l.009.009v-.014.018l-.01-.009zm.013-.008.005.004h.004v-.005.01h-.004a.01.01 0 0 1-.005-.009v-.005l.001-.003.004-.001h.003l.001.004-.009.005zm.005 0c0-.005 0-.005 0 0zm.009-.014v.018-.009h-.005l.005-.009zm.017.005.001.002v.002a.009.009 0 0 1-.01 0 .01.01 0 0 1 0-.004V11.9l.01.01v.004zm0 0v-.005c-.004 0-.009-.004-.009 0l.005.009.004-.004zm.014-.01-.005.005h-.004V11.9h.009v.01-.005zm.013-.004h-.004a.01.01 0 0 1-.005.001.01.01 0 0 1-.004 0 .009.009 0 0 1 0-.01h.004v-.009h-.004l.013.014v.004zm0 0-.004-.009h-.01v.005l.01.004h.004zm.01 0v-.004h-.005c.004 0 .004 0 0 0v.004h.004zm0-.022.003-.005.01.01v-.01h-.005v-.004l.005.013-.01-.004h-.004zm.017-.023.013.018h-.004l-.01-.013v-.005zm.022.01-.004.004v-.009h-.005v-.005h.005l.004.01zm0 0v-.005l-.004.004h.004zm0-.014.01-.004.008.008v-.008h-.004v-.005l.004.013-.009-.004H16.217zm.023-.009h.009v.005l-.002.003-.003.001-.003-.001-.001-.003c-.002 0-.003 0-.004-.002v-.006l.004-.001h.004l-.004.004zm0 0h.004l-.004-.004-.001.002v.002zm.009-.013h.004v.009h.004l-.004.009v-.005l-.005-.009v-.004zm.022 0c.001 0 .002.001.002.003v.003l-.001.002h-.006a.009.009 0 0 1-.009 0 .01.01 0 0 1-.003-.006.01.01 0 0 1 .001-.004l.002-.003h.005v-.009l.009.014zm0 0h-.005c0-.005-.004-.005-.004 0v.004h.009v-.004zm.009 0h-.005v-.01h-.004v-.004h.009v.01h.004l-.004.004zm0-.005v-.004h-.005v.009a.009.009 0 0 0 .005-.005zm.013-.009v.005a.009.009 0 0 1-.009 0 .009.009 0 0 1-.001-.005l.001-.004v-.009l.01.013zm0 0v-.004h-.009l.005.009h.004v-.005zm.014-.022c.009 0 .009.005.009.009 0 0-.005.009-.01.004a.009.009 0 0 1-.004-.004v-.005l.005-.004zm0 0v.018h.009l-.005-.009h-.005v-.009zm.013-.009v.005h-.005.01v.008h-.01v-.008l.005-.005zm-.205.17v.009l.009-.005.008.01h-.004l-.005-.01h-.004v.005l.005.009h-.005l-.004-.014v-.004zm.026.004-.004.005h-.005v-.01h.005l.004.005zm0-.013h.005v.009h.004l-.004.004-.005-.009v-.004zm.018 0v.009l-.009-.005.005-.009c-.005.005-.005 0-.005 0h.005l.004.005zm0 0a.01.01 0 0 0-.004 0v.004a.01.01 0 0 0 .004 0v-.004zm.005-.023.009.014h.004l-.004.004-.01-.013v-.005zm.009-.004.009.013-.005-.004v-.005l-.004-.004zm.013 0h.009a.009.009 0 0 1 0 .009h-.005l-.013-.009v-.004l.009.004zm0 0v.009h.009v-.009h-.009zm.009-.009h.004v.009h.005l-.005.005-.004-.01v-.004zm.009 0 .004.005h.01l-.002.003-.003.001-.003-.001-.002-.003a.01.01 0 0 1-.004 0c-.001 0-.003 0-.003-.002l-.002-.003c0-.001 0-.002.002-.003l.003-.001.001-.003.003-.002c.002 0 .003 0 .004.002v.003l-.008.004zm.004 0c0-.004 0-.004 0 0zm.01-.013v.004h.008v.01h-.004v-.005h-.005v-.01z" fill="#000"/></g><defs><clipPath id="a"><path fill="#fff" d="M0 0h32v24H0z"/></clipPath></defs></svg>