<svg width="32" height="24" fill="none" xmlns="http://www.w3.org/2000/svg"><g clip-path="url(#a)"><path d="M0 0h32v24H0V0z" fill="#fff"/><path d="M13.6 0h4.8v24h-4.8V0z" fill="red"/><path d="M0 9.6h32v4.8H0V9.6z" fill="red"/><path fill-rule="evenodd" clip-rule="evenodd" d="M7.34 18.655c.05-.84.2-1.555.2-1.555s-.49.05-.74.05c-.245 0-.74-.05-.74-.05s.15.715.2 1.56c-.845-.05-1.56-.2-1.56-.2s.05.37.05.74-.05.74-.05.74.715-.15 1.56-.2c-.05.845-.2 1.56-.2 1.56s.37-.05.74-.05.74.05.74.05-.15-.715-.2-1.56c.845.05 1.56.2 1.56.2s-.05-.49-.05-.74c0-.245.05-.74.05-.74s-.715.15-1.555.2l-.005-.005zm18.4-14.4c.05-.84.2-1.555.2-1.555s-.49.05-.74.05c-.245 0-.74-.05-.74-.05s.15.715.2 1.555c-.845-.05-1.56-.195-1.56-.195s.05.37.05.74-.05.74-.05.74.715-.15 1.56-.2c-.05.845-.2 1.56-.2 1.56s.37-.05.74-.05.74.05.74.05-.15-.715-.2-1.555c.845.05 1.56.2 1.56.2s-.05-.5-.05-.745.05-.74.05-.74-.715.15-1.56.2v-.005zm-18.4 0c.05-.84.2-1.555.2-1.555s-.49.05-.74.05c-.245 0-.74-.05-.74-.05s.15.715.2 1.56c-.845-.05-1.56-.2-1.56-.2s.05.37.05.74-.05.74-.05.74.715-.15 1.56-.2c-.05.845-.2 1.56-.2 1.56s.37-.05.74-.05.74.05.74.05-.15-.715-.2-1.56c.845.05 1.56.2 1.56.2s-.05-.49-.05-.74c0-.245.05-.74.05-.74s-.715.15-1.555.2l-.005-.005zm18.4 14.4c.05-.84.2-1.555.2-1.555s-.49.05-.74.05c-.245 0-.74-.05-.74-.05s.15.715.2 1.56c-.845-.05-1.56-.2-1.56-.2s.05.37.05.74-.05.74-.05.74.715-.15 1.56-.2c-.05.845-.2 1.56-.2 1.56s.37-.05.74-.05.74.05.74.05-.15-.715-.2-1.56c.845.05 1.56.2 1.56.2s-.05-.49-.05-.74c0-.245.05-.74.05-.74s-.715.15-1.56.2v-.005z" fill="red"/></g><defs><clipPath id="a"><path fill="#fff" d="M0 0h32v24H0z"/></clipPath></defs></svg>