<svg width="52" height="52" fill="none" xmlns="http://www.w3.org/2000/svg"><g clip-path="url(#a)"><path d="M-9 0h70v17.5H-9V0z" fill="#F93"/><path d="M-9 17.5h70V35H-9V17.5z" fill="#fff"/><path d="M-9 35h70v17.5H-9V35z" fill="#128807"/><path d="M26 33.25a7 7 0 1 0 0-14 7 7 0 0 0 0 14z" fill="#008"/><path d="M26 32.375a6.125 6.125 0 1 0 0-12.25 6.125 6.125 0 0 0 0 12.25z" fill="#fff"/><path d="M26 27.475a1.225 1.225 0 1 0 0-2.45 1.225 1.225 0 0 0 0 2.45zM32.031 27.365a.315.315 0 1 0 .083-.625.315.315 0 0 0-.083.625z" fill="#008"/><path d="m26 32.376.21-3.675-.21-1.75-.21 1.75.21 3.675zM31.538 28.888a.315.315 0 1 0 .24-.582.315.315 0 0 0-.24.582zM24.415 32.166l1.154-3.496.25-1.745-.656 1.636-.748 3.605zM30.667 30.23a.315.315 0 1 0 .383-.5.315.315 0 0 0-.383.5zM22.938 31.555l2.019-3.078.693-1.62-1.057 1.41-1.655 3.288zM29.477 31.301a.315.315 0 1 0 .5-.383.315.315 0 0 0-.5.383zM21.67 30.58l2.746-2.45 1.09-1.386-1.387 1.09-2.45 2.746zM28.051 32.03a.315.315 0 1 0 .582-.241.315.315 0 0 0-.582.241zM20.696 29.312l3.287-1.655 1.411-1.057-1.62.693-3.078 2.02zM26.485 32.363a.315.315 0 1 0 .624-.082.315.315 0 0 0-.624.082zM20.084 27.834l3.604-.749 1.636-.656-1.745.25-3.495 1.155zM24.886 32.28a.315.315 0 1 0 .625.083.315.315 0 0 0-.625-.082zM19.875 26.25l3.675.21 1.75-.21-1.75-.21-3.675.21zM23.363 31.786a.315.315 0 1 0 .582.241.315.315 0 0 0-.582-.24zM20.084 24.664l3.495 1.154 1.745.25-1.636-.656-3.604-.748zM22.02 30.915a.315.315 0 1 0 .5.384.315.315 0 0 0-.5-.384zM20.696 23.188l3.077 2.02 1.621.693-1.41-1.057-3.288-1.656zM20.948 29.725a.315.315 0 1 0 .383.5.315.315 0 0 0-.383-.5zM21.67 21.918l2.45 2.747 1.385 1.089-1.089-1.386-2.747-2.45zM20.22 28.3a.315.315 0 1 0 .24.582.315.315 0 0 0-.24-.582zM22.937 20.944l1.656 3.288 1.057 1.41-.694-1.62-2.019-3.078zM19.885 26.735a.315.315 0 1 0 .083.624.315.315 0 0 0-.083-.624zM24.415 20.334l.748 3.604.656 1.636-.25-1.745-1.154-3.495zM19.969 25.135a.315.315 0 1 0-.083.625.315.315 0 0 0 .083-.625zM26 20.124l-.21 3.675.21 1.75.21-1.75-.21-3.675zM20.462 23.612a.315.315 0 1 0-.24.582.315.315 0 0 0 .24-.582zM27.585 20.334l-1.154 3.496-.25 1.745.656-1.636.748-3.605zM21.333 22.27a.315.315 0 1 0-.383.5.315.315 0 0 0 .383-.5zM29.062 20.945l-2.019 3.078-.693 1.62 1.057-1.41 1.655-3.288zM22.523 21.199a.315.315 0 1 0-.5.383.315.315 0 0 0 .5-.383zM30.33 21.92l-2.746 2.45-1.09 1.386 1.387-1.09 2.45-2.746zM23.949 20.47a.315.315 0 1 0-.582.241.315.315 0 0 0 .582-.241zM31.304 23.188l-3.287 1.655-1.411 1.057 1.62-.693 3.078-2.02zM25.515 20.137a.315.315 0 1 0-.624.082.315.315 0 0 0 .624-.082zM31.916 24.666l-3.604.749-1.636.656 1.745-.25 3.495-1.155zM27.114 20.22a.315.315 0 1 0-.625-.083.315.315 0 0 0 .625.082zM32.125 26.25l-3.675-.21-1.75.21 1.75.21 3.675-.21zM28.637 20.714a.315.315 0 1 0-.582-.241.315.315 0 0 0 .582.24zM31.916 27.836l-3.495-1.154-1.745-.25 1.636.656 3.604.748zM29.98 21.585a.315.315 0 1 0-.5-.384.315.315 0 0 0 .5.384zM31.304 29.312l-3.077-2.02-1.621-.693 1.41 1.057 3.288 1.656zM31.052 22.775a.315.315 0 1 0-.383-.5.315.315 0 0 0 .383.5zM30.33 30.582l-2.45-2.747-1.385-1.089 1.089 1.386 2.747 2.45zM31.78 24.2a.315.315 0 1 0-.24-.582.315.315 0 0 0 .24.582zM29.063 31.556l-1.656-3.288-1.057-1.41.694 1.62 2.019 3.078zM32.115 25.765a.315.315 0 1 0-.082-.624.315.315 0 0 0 .082.624zM27.585 32.166l-.748-3.604-.656-1.636.25 1.745 1.154 3.495z" fill="#008"/></g><defs><clipPath id="a"><path fill="#fff" transform="translate(-9)" d="M0 0h70v52.5H0z"/></clipPath></defs></svg>