<svg width="32" height="24" fill="none" xmlns="http://www.w3.org/2000/svg"><g clip-path="url(#a)"><mask id="b" style="mask-type:luminance" maskUnits="userSpaceOnUse" x="-1" y="0" width="34" height="25"><path d="M-.012 0H32.07v24.064H-.012V0z" fill="#fff"/></mask><g mask="url(#b)" fill-rule="evenodd" clip-rule="evenodd"><path d="M33.217 24.064H-1.16V0h34.376v24.064z" fill="#fff"/><path d="M33.217 5.414H-1.16V2.256h34.376v3.158zm0 16.474H-1.16v-3.159h34.376v3.159zM10.516 8.963l5.175 9.005 5.287-8.963-10.462-.037v-.005z" fill="#0038B8"/><path d="m14.718 14.937.982 1.668 1.006-1.659-1.993-.01h.005z" fill="#fff"/><path d="m10.497 15.068 5.18-9.005 5.282 8.968-10.462.037z" fill="#0038B8"/><path d="m14.718 9.005.982-1.668L16.706 9l-1.993.004h.005zm-2.059 3.737-1.02 1.692 1.927-.005-.907-1.692v.005zm-1.001-3.126 1.936.014-.93 1.706-1.006-1.72zm7.106 3.15.983 1.668-1.96-.024.977-1.645zm.964-3.15-1.937.014.931 1.706 1.006-1.72zm-5.372 0-1.335 2.416 1.354 2.364 2.481.056 1.504-2.42-1.391-2.444-2.613.024v.004z" fill="#fff"/></g></g><defs><clipPath id="a"><path fill="#fff" d="M0 0h32v24H0z"/></clipPath></defs></svg>