<svg width="32" height="24" fill="none" xmlns="http://www.w3.org/2000/svg"><mask id="a" style="mask-type:luminance" maskUnits="userSpaceOnUse" x="0" y="0" width="24" height="24"><path d="M0 0h24v24H0V0z" fill="#fff"/></mask><g mask="url(#a)" fill-rule="evenodd" clip-rule="evenodd"><path d="M.305 23.695H18.06L6.44 11.911l12.06.014L.31.305v23.39H.305z" fill="#CE0000"/><path d="M-.014-.286 19.611 12.25l-12.396-.015 11.62 11.784H.304v-.324h-.319V-.285zm.647 23.658h16.655L5.667 11.587l11.725.013L.632.895v22.477z" fill="#000063"/><path d="m8.47 17.428-1.265.422.993.928-1.336-.084.549 1.228-1.195-.577.023 1.34-.881-.979-.502 1.247-.431-1.233-.952.966.085-1.299-1.261.535.59-1.172-1.373.028 1.008-.858-1.28-.492 1.266-.422-.999-.928 1.332.085-.544-1.229 1.2.577-.024-1.34.882.979.501-1.247.427 1.233.956-.966-.089 1.299 1.266-.535-.596 1.172 1.378-.028-1.007.858 1.28.492zM6.952 8.77l-.53.394.262.216a4.397 4.397 0 0 0 1.44-1.688c.084.999-.83 3.235-3.22 3.258a3.308 3.308 0 0 1-3.352-3.295c.468.853.759 1.265 1.5 1.71l.22-.206-.497-.417.642-.169-.347-.58.675.046-.084-.675.59.347.188-.633.422.506.398-.482.216.656.553-.385-.07.67.665-.079-.314.619.643.187z" fill="#fff"/></g></svg>