<svg width="52" height="52" fill="none" xmlns="http://www.w3.org/2000/svg"><g clip-path="url(#a)"><path fill-rule="evenodd" clip-rule="evenodd" d="M-9 0h70v52.5H-9V0z" fill="#00247D"/><path d="M44.64 11.725v1.659l3.318-1.66H44.64z" fill="#fff"/><path d="m45.304 13.716-.664-1.328 3.318-.663-2.654 1.99zM44.64 11.725v1.659l-3.318-1.66h3.318z" fill="#fff"/><path d="m43.977 13.716.663-1.328-3.318-.663 2.654 1.99z" fill="#fff"/><path d="m45.587 12.412-1.578.513 2.603 2.643-1.025-3.156z" fill="#fff"/><path d="m43.898 13.659 1.058-1.042 1.656 2.951-2.714-1.91z" fill="#fff"/><path d="m43.693 12.412 1.578.513-.552-3.669-1.026 3.156z" fill="#fff"/><path d="m45.792 12.396-1.468.221.395-3.36 1.073 3.14zM43.693 12.412l1.578.513-2.603 2.643 1.025-3.156z" fill="#fff"/><path d="m45.382 13.659-1.057-1.042-1.657 2.951 2.714-1.91z" fill="#fff"/><path d="M44.64 12.063v1.096l2.193-1.097H44.64z" fill="#CC142B"/><path d="m45.079 13.378-.439-.877 2.193-.438-1.754 1.315zM44.64 12.063v1.096l-2.193-1.097h2.193z" fill="#CC142B"/><path d="m44.202 13.378.438-.877-2.193-.438 1.755 1.315z" fill="#CC142B"/><path d="m45.266 12.518-1.043.338 1.72 1.747-.677-2.085z" fill="#CC142B"/><path d="m44.15 13.341.699-.688 1.094 1.95-1.793-1.262z" fill="#CC142B"/><path d="m44.014 12.518 1.043.338-.365-2.424-.678 2.086z" fill="#CC142B"/><path d="m45.4 12.507-.969.146.26-2.22.71 2.074zM44.014 12.518l1.043.338-1.72 1.747.677-2.085z" fill="#CC142B"/><path d="m45.13 13.341-.699-.688-1.094 1.95 1.793-1.262z" fill="#CC142B"/><path d="M53.334 19.38v1.477l-2.952-1.476h2.953z" fill="#fff"/><path d="m52.744 21.153.59-1.182-2.952-.59 2.362 1.772z" fill="#fff"/><path d="m52.492 19.994 1.404.456-2.316 2.352.912-2.808z" fill="#fff"/><path d="m53.995 21.103-.941-.926-1.474 2.625 2.415-1.699z" fill="#fff"/><path d="M53.335 19.719v.913l-1.827-.913h1.827z" fill="#CC142B"/><path d="m52.97 20.815.365-.73-1.827-.366 1.461 1.096z" fill="#CC142B"/><path d="M34.514 21.92v1.66l3.318-1.66h-3.318z" fill="#fff"/><path d="m35.177 23.91-.663-1.326 3.318-.664-2.655 1.99zM34.514 21.92v1.66l-3.319-1.66h3.319z" fill="#fff"/><path d="m33.85 23.91.664-1.326-3.319-.664 2.655 1.99z" fill="#fff"/><path d="m35.46 22.607-1.578.513 2.604 2.643-1.026-3.156z" fill="#fff"/><path d="m33.772 23.854 1.057-1.041 1.657 2.95-2.714-1.91z" fill="#fff"/><path d="m33.567 22.607 1.578.513-.553-3.668-1.025 3.155z" fill="#fff"/><path d="m35.666 22.591-1.468.221.394-3.36 1.074 3.14zM33.567 22.607l1.578.513-2.604 2.643 1.026-3.156z" fill="#fff"/><path d="m35.255 23.854-1.057-1.041-1.657 2.95 2.714-1.91z" fill="#fff"/><path d="M34.514 22.258v1.096l2.192-1.096h-2.192z" fill="#CC142B"/><path d="m34.952 23.573-.438-.877 2.192-.438-1.754 1.315z" fill="#CC142B"/><path d="M34.514 22.258v1.096l-2.193-1.096h2.193z" fill="#CC142B"/><path d="m34.075 23.573.439-.877-2.193-.438 1.754 1.315z" fill="#CC142B"/><path d="m35.14 22.713-1.044.339 1.72 1.746-.677-2.085z" fill="#CC142B"/><path d="m34.023 23.537.7-.689 1.094 1.95-1.794-1.261z" fill="#CC142B"/><path d="m33.888 22.713 1.042.339-.365-2.424-.677 2.085z" fill="#CC142B"/><path d="m35.274 22.702-.97.146.261-2.22.71 2.074zM33.888 22.713l1.042.339-1.72 1.746.678-2.085z" fill="#CC142B"/><path d="m35.003 23.537-.698-.689-1.095 1.95 1.793-1.261z" fill="#CC142B"/><path d="M44.64 37.928v1.842l3.684-1.842H44.64z" fill="#fff"/><path d="m45.377 40.138-.737-1.474 3.684-.736-2.947 2.21zM44.64 37.928v1.842l-3.684-1.842h3.684z" fill="#fff"/><path d="m43.903 40.138.737-1.474-3.684-.736 2.947 2.21z" fill="#fff"/><path d="m45.691 38.691-1.751.57 2.89 2.934-1.139-3.504z" fill="#fff"/><path d="m43.817 40.075 1.174-1.156 1.839 3.276-3.013-2.12z" fill="#fff"/><path d="m43.59 38.691 1.751.57-.613-4.073-1.139 3.503z" fill="#fff"/><path d="m45.92 38.674-1.63.245.438-3.731 1.191 3.486z" fill="#fff"/><path d="m43.59 38.691 1.751.57-2.89 2.934 1.138-3.504z" fill="#fff"/><path d="M45.464 40.075 44.29 38.92l-1.839 3.276 3.013-2.12z" fill="#fff"/><path d="M44.64 38.266v1.279l2.558-1.28H44.64z" fill="#CC142B"/><path d="m45.152 39.8-.512-1.023 2.558-.511-2.046 1.535zM44.64 38.266v1.279l-2.558-1.28h2.558z" fill="#CC142B"/><path d="m44.129 39.8.511-1.023-2.558-.511 2.047 1.535z" fill="#CC142B"/><path d="m45.37 38.797-1.216.395 2.007 2.038-.79-2.433z" fill="#CC142B"/><path d="m44.069 39.758.814-.803 1.278 2.275-2.093-1.472z" fill="#CC142B"/><path d="m43.91 38.797 1.217.395-.426-2.828-.79 2.433z" fill="#CC142B"/><path d="m45.528 38.785-1.131.17.304-2.591.827 2.42zM43.91 38.797l1.217.395-2.007 2.038.79-2.433z" fill="#CC142B"/><path d="m45.212 39.758-.815-.803-1.277 2.275 2.092-1.472z" fill="#CC142B"/><path d="M-9 0h35v26.25H-9V0z" fill="#012169"/><path d="M-4.898 0 8.445 9.898 21.735 0H26v3.39l-13.125 9.79L26 22.914v3.336h-4.375L8.5 16.46l-13.07 9.79H-9v-3.281l13.07-9.735L-9 3.5V0h4.102z" fill="#fff"/><path d="M14.188 15.367 26 24.062v2.188L11.18 15.367h3.008zM4.124 16.461l.328 1.914-10.5 7.875H-9l13.125-9.79zM26 0v.164L12.383 10.445l.11-2.406L23.265 0H26zM-9 0 4.07 9.625H.79L-9 2.297V0z" fill="#C8102E"/><path d="M4.18 0v26.25h8.75V0H4.18zM-9 8.75v8.75h35V8.75H-9z" fill="#fff"/><path d="M-9 10.555v5.25h35v-5.25H-9zM5.93 0v26.25h5.25V0H5.93z" fill="#C8102E"/></g><defs><clipPath id="a"><path fill="#fff" transform="translate(-9)" d="M0 0h70v52.5H0z"/></clipPath></defs></svg>