<svg width="32" height="24" fill="none" xmlns="http://www.w3.org/2000/svg"><g clip-path="url(#a)"><path d="M12.8 0H32v24H12.8V0z" fill="red"/><path d="M0 0h12.8v24H0V0z" fill="#060"/><path fill-rule="evenodd" clip-rule="evenodd" d="M16.975 15.31c-1.615-.05-9-4.66-9.05-5.4l.405-.675c.735 1.065 8.285 5.55 9.03 5.39l-.385.685z" fill="#FF0" stroke="#000" stroke-width=".075" stroke-linecap="round" stroke-linejoin="round"/><path fill-rule="evenodd" clip-rule="evenodd" d="M8.245 9.14c-.145.39 1.93 1.67 4.42 3.19 2.495 1.515 4.645 2.45 4.8 2.32l.075-.14c-.03.05-.1.065-.215.03-.675-.195-2.43-1-4.605-2.32-2.18-1.32-4.07-2.535-4.365-3.05a.315.315 0 0 1-.03-.155h-.01l-.06.11-.01.015zm8.765 6.19c-.025.05-.08.05-.175.04-.6-.065-2.43-.955-4.595-2.25-2.52-1.51-4.6-2.88-4.37-3.24l.06-.11.01.005c-.2.61 4.105 3.07 4.36 3.23 2.49 1.54 4.59 2.445 4.775 2.21l-.065.115zM12.81 10.36c1.61-.015 3.6-.22 4.75-.68l-.25-.4c-.675.375-2.675.625-4.515.66-2.17-.02-3.705-.225-4.475-.74l-.23.43c1.41.6 2.86.725 4.72.73z" fill="#FF0" stroke="#000" stroke-width=".075" stroke-linecap="round" stroke-linejoin="round"/><path fill-rule="evenodd" clip-rule="evenodd" d="M17.625 9.69c-.04.065-.79.32-1.89.51-.97.147-1.95.219-2.93.215-.94.004-1.878-.057-2.81-.18-1.155-.18-1.75-.43-1.975-.52l.055-.11c.635.25 1.235.4 1.935.51a20.564 20.564 0 0 0 5.705-.03c1.125-.185 1.74-.42 1.83-.525l.08.135V9.69zm-.22-.405c-.12.1-.73.315-1.8.485-.924.134-1.856.2-2.79.2-1.1 0-2.005-.08-2.69-.18-1.09-.14-1.67-.4-1.88-.47l.065-.11c.165.085.72.31 1.825.465a19.25 19.25 0 0 0 2.68.17c.927 0 1.853-.067 2.77-.2 1.075-.15 1.655-.42 1.745-.49l.075.13zM7.515 12.3c.99.535 3.195.8 5.28.82 1.9.005 4.37-.29 5.295-.78l-.025-.535c-.29.45-2.94.885-5.29.87-2.35-.02-4.535-.38-5.265-.85v.475" fill="#FF0"/><path d="M7.515 12.3c.99.535 3.195.8 5.28.82 1.9.005 4.37-.29 5.295-.78l-.025-.535c-.29.45-2.94.885-5.29.87-2.35-.02-4.535-.38-5.265-.85v.475m10.115-2.61c-.04.065-.79.32-1.89.51-.97.147-1.95.219-2.93.215-.94.004-1.878-.057-2.81-.18-1.155-.18-1.75-.43-1.975-.52l.055-.11c.635.25 1.235.4 1.935.51a20.564 20.564 0 0 0 5.705-.03c1.125-.185 1.74-.42 1.83-.525l.08.135V9.69zm-.22-.405c-.12.1-.73.315-1.8.485-.924.134-1.856.2-2.79.2-1.1 0-2.005-.08-2.69-.18-1.09-.14-1.67-.4-1.88-.47l.065-.11c.165.085.72.31 1.825.465a19.25 19.25 0 0 0 2.68.17c.927 0 1.853-.067 2.77-.2 1.075-.15 1.655-.42 1.745-.49l.075.13z" stroke="#000" stroke-width=".075" stroke-linecap="round" stroke-linejoin="round"/><path fill-rule="evenodd" clip-rule="evenodd" d="M18.14 12.225v.125c-.14.17-1.01.42-2.1.6-1.083.156-2.176.23-3.27.22a20 20 0 0 1-3.1-.215 7.75 7.75 0 0 1-2.22-.6v-.145c.485.32 1.795.56 2.235.63.79.12 1.805.21 3.085.21 1.345 0 2.42-.095 3.25-.22.785-.115 1.9-.41 2.12-.605zm0-.45v.125c-.14.165-1.01.415-2.1.595a21.697 21.697 0 0 1-3.27.225 20.705 20.705 0 0 1-3.1-.215 7.75 7.75 0 0 1-2.22-.6v-.15c.485.325 1.8.56 2.235.63 1.021.15 2.053.222 3.085.215 1.345 0 2.425-.1 3.25-.225.785-.11 1.9-.405 2.12-.6zm-5.35 3.44c-2.28-.01-4.235-.62-4.65-.72l.3.47c1.402.497 2.882.739 4.37.715 1.735-.05 3.25-.185 4.315-.705l.31-.49c-.725.345-3.2.73-4.65.73" fill="#FF0"/><path d="M12.79 15.215c-2.28-.01-4.235-.62-4.65-.72l.3.47c1.402.497 2.882.739 4.37.715 1.735-.05 3.25-.185 4.315-.705l.31-.49c-.725.345-3.2.73-4.65.73m5.355-2.99v.125c-.14.17-1.01.42-2.1.6-1.083.156-2.176.23-3.27.22a20 20 0 0 1-3.1-.215 7.75 7.75 0 0 1-2.22-.6v-.145c.485.32 1.795.56 2.235.63.79.12 1.805.21 3.085.21 1.345 0 2.42-.095 3.25-.22.785-.115 1.9-.41 2.12-.605zm0-.45v.125c-.14.165-1.01.415-2.1.595a21.697 21.697 0 0 1-3.27.225 20.705 20.705 0 0 1-3.1-.215 7.75 7.75 0 0 1-2.22-.6v-.15c.485.325 1.8.56 2.235.63 1.021.15 2.053.222 3.085.215 1.345 0 2.425-.1 3.25-.225.785-.11 1.9-.405 2.12-.6z" stroke="#000" stroke-width=".075" stroke-linecap="round" stroke-linejoin="round"/><path fill-rule="evenodd" clip-rule="evenodd" d="M17.245 14.865a7.091 7.091 0 0 1-.14.2c-.5.18-1.3.37-1.63.42-.886.165-1.784.249-2.685.25-2.02-.03-3.675-.425-4.45-.765l-.065-.105.01-.02.105.045c1.423.47 2.911.715 4.41.725.94 0 1.875-.105 2.63-.24 1.16-.235 1.63-.41 1.775-.49l.035-.02h.005zm.265-.44-.1.175c-.27.1-1 .31-2.065.46-.7.095-1.135.19-2.53.215a17.371 17.371 0 0 1-4.71-.7l-.055-.125a19.5 19.5 0 0 0 4.77.7c1.275-.025 1.82-.12 2.515-.215 1.24-.19 1.865-.4 2.05-.455v-.01l.13-.05-.005.005z" fill="#FF0" stroke="#000" stroke-width=".075" stroke-linecap="round" stroke-linejoin="round"/><path fill-rule="evenodd" clip-rule="evenodd" d="M17.54 11.88c.005 1.5-.765 2.85-1.38 3.44a4.965 4.965 0 0 1-3.39 1.41c-1.515.025-2.94-.96-3.325-1.395a5.05 5.05 0 0 1-1.375-3.37c.09-1.64.735-2.78 1.665-3.565a4.98 4.98 0 0 1 3.21-1.135 4.91 4.91 0 0 1 3.55 1.78c.625.76.9 1.585 1.045 2.835zm-4.76-5.13a5.3 5.3 0 0 1 5.3 5.26 5.285 5.285 0 0 1-10.57 0c-.005-2.9 2.365-5.26 5.27-5.26z" fill="#FF0" stroke="#000" stroke-width=".075" stroke-linecap="round" stroke-linejoin="round"/><path fill-rule="evenodd" clip-rule="evenodd" d="M12.795 6.725c2.91 0 5.28 2.37 5.28 5.28s-2.37 5.28-5.275 5.28a5.291 5.291 0 0 1-5.28-5.28c0-2.91 2.37-5.28 5.28-5.28h-.005zM7.63 12c0 2.84 2.335 5.165 5.165 5.165S17.96 14.84 17.96 12s-2.335-5.165-5.165-5.165S7.63 9.16 7.63 12z" fill="#FF0" stroke="#000" stroke-width=".075" stroke-linecap="round" stroke-linejoin="round"/><path fill-rule="evenodd" clip-rule="evenodd" d="M12.8 7.165A4.85 4.85 0 0 1 17.635 12a4.855 4.855 0 0 1-4.835 4.84c-2.65 0-4.835-2.18-4.835-4.84A4.855 4.855 0 0 1 12.8 7.165zM8.08 12c0 2.6 2.13 4.72 4.72 4.72s4.72-2.125 4.72-4.72c0-2.6-2.13-4.72-4.72-4.72A4.74 4.74 0 0 0 8.08 12z" fill="#FF0" stroke="#000" stroke-width=".075" stroke-linecap="round" stroke-linejoin="round"/><path fill-rule="evenodd" clip-rule="evenodd" d="M13.015 6.7h-.455v10.615h.45L13.015 6.7z" fill="#FF0" stroke="#000" stroke-width=".075" stroke-linecap="round" stroke-linejoin="round"/><path fill-rule="evenodd" clip-rule="evenodd" d="M12.965 6.64h.115v10.735h-.11V6.64h-.005zm-.45 0h.12v10.735h-.115V6.64h-.005z" fill="#FF0" stroke="#000" stroke-width=".075" stroke-linecap="round" stroke-linejoin="round"/><path fill-rule="evenodd" clip-rule="evenodd" d="M18.08 12.21v-.39l-.32-.3-1.815-.48-2.61-.265-3.15.16-2.24.53-.45.335v.395l1.145-.515 2.72-.425h2.615l1.92.21 1.33.32.855.425z" fill="#FF0" stroke="#000" stroke-width=".075" stroke-linecap="round" stroke-linejoin="round"/><path fill-rule="evenodd" clip-rule="evenodd" d="M12.8 11.19c1.245 0 2.45.115 3.415.3.99.2 1.685.45 1.925.725v.14c-.29-.35-1.225-.6-1.95-.75-.95-.18-2.15-.3-3.395-.3-1.305 0-2.525.13-3.465.31-.75.15-1.755.45-1.88.74v-.145c.065-.2.815-.5 1.865-.715.945-.185 2.165-.305 3.48-.305h.005zm0-.455a19.15 19.15 0 0 1 3.415.3c.99.2 1.685.45 1.925.73v.135c-.29-.345-1.225-.6-1.95-.745-.95-.185-2.15-.3-3.395-.3-1.16-.004-2.319.1-3.46.31-.725.135-1.77.445-1.885.735v-.14c.07-.2.83-.515 1.865-.715.95-.185 2.165-.31 3.485-.31zm-.03-2.31c1.965-.01 3.68.275 4.465.675l.285.5c-.68-.37-2.53-.75-4.745-.7-1.805.015-3.735.2-4.7.72l.34-.57c.795-.415 2.665-.625 4.355-.625z" fill="#FF0" stroke="#000" stroke-width=".075" stroke-linecap="round" stroke-linejoin="round"/><path fill-rule="evenodd" clip-rule="evenodd" d="M12.8 8.835a17.698 17.698 0 0 1 3.065.215c.8.15 1.565.37 1.675.49l.085.15c-.265-.17-.93-.365-1.78-.525-.85-.16-1.935-.215-3.05-.21-1.265-.005-2.25.06-3.09.21a5.445 5.445 0 0 0-1.665.515l.085-.155c.3-.15.765-.335 1.555-.48.875-.16 1.87-.205 3.12-.21zm0-.45c1.07-.01 2.13.05 2.955.2a4.8 4.8 0 0 1 1.53.5l.125.2c-.21-.235-1-.46-1.705-.58-.82-.145-1.835-.2-2.905-.21a18.05 18.05 0 0 0-2.975.22 4.865 4.865 0 0 0-1.48.455l.11-.165c.29-.15.76-.29 1.35-.405.99-.157 1.992-.23 2.995-.22v.005zm2.62 5.815a13.825 13.825 0 0 0-2.625-.2c-3.275.04-4.33.675-4.46.865l-.25-.4c.84-.6 2.62-.94 4.73-.91 1.095.02 2.04.095 2.83.25l-.225.4" fill="#FF0"/><path d="M15.42 14.2a13.825 13.825 0 0 0-2.625-.2c-3.275.04-4.33.675-4.46.865l-.25-.4c.84-.6 2.62-.94 4.73-.91 1.095.02 2.04.095 2.83.25l-.225.4m-2.62-5.37a17.698 17.698 0 0 1 3.065.215c.8.15 1.565.37 1.675.49l.085.15c-.265-.17-.93-.365-1.78-.525-.85-.16-1.935-.215-3.05-.21-1.265-.005-2.25.06-3.09.21a5.445 5.445 0 0 0-1.665.515l.085-.155c.3-.15.765-.335 1.555-.48.875-.16 1.87-.205 3.12-.21zm0-.45c1.07-.01 2.13.05 2.955.2a4.8 4.8 0 0 1 1.53.5l.125.2c-.21-.235-1-.46-1.705-.58-.82-.145-1.835-.2-2.905-.21a18.05 18.05 0 0 0-2.975.22 4.865 4.865 0 0 0-1.48.455l.11-.165c.29-.15.76-.29 1.35-.405.99-.157 1.992-.23 2.995-.22v.005z" stroke="#000" stroke-width=".075" stroke-linecap="round" stroke-linejoin="round"/><path fill-rule="evenodd" clip-rule="evenodd" d="M12.78 13.945c.91.015 1.8.05 2.665.21l-.06.11c-.8-.15-1.66-.2-2.6-.2-1.215-.01-2.435.105-3.5.41-.335.095-.89.31-.95.49l-.06-.1c.02-.11.35-.33.98-.5 1.22-.35 2.36-.415 3.525-.42zm.04-.46c.96-.001 1.92.083 2.865.25l-.065.115a14.946 14.946 0 0 0-2.8-.245c-1.21 0-2.495.09-3.665.43-.375.11-1.03.35-1.05.535l-.06-.11c.01-.17.575-.395 1.085-.54 1.175-.345 2.465-.43 3.69-.435z" fill="#FF0" stroke="#000" stroke-width=".075" stroke-linecap="round" stroke-linejoin="round"/><path fill-rule="evenodd" clip-rule="evenodd" d="m17.47 14.525-.39.615-1.135-1.005-2.93-1.975-3.31-1.815L7.99 9.76l.365-.68.125-.065 1.065.265 3.52 1.815 2.03 1.28L16.8 13.6l.695.8-.025.125z" fill="#FF0" stroke="#000" stroke-width=".075" stroke-linecap="round" stroke-linejoin="round"/><path fill-rule="evenodd" clip-rule="evenodd" d="M7.93 9.775c.3-.2 2.51.78 4.83 2.18 2.305 1.4 4.515 2.98 4.315 3.275l-.065.105-.03.025c.005-.005.04-.05 0-.155-.1-.325-1.67-1.575-4.265-3.145-2.535-1.505-4.645-2.415-4.85-2.155l.065-.13zm9.62 4.745c.19-.38-1.86-1.925-4.405-3.43-2.6-1.475-4.48-2.345-4.825-2.085l-.07.145c0 .005 0-.01.02-.025.06-.05.165-.05.21-.05.59.01 2.275.785 4.64 2.14 1.04.6 4.38 2.75 4.365 3.35 0 .05.005.06-.015.09l.085-.13-.005-.005z" fill="#FF0" stroke="#000" stroke-width=".075" stroke-linecap="round" stroke-linejoin="round"/><path d="M9.632 12.588a3.13 3.13 0 0 0 .933 2.224 3.147 3.147 0 0 0 2.23.939 3.168 3.168 0 0 0 3.168-3.157V8.37l-6.33-.011v4.23z" fill="#fff" stroke="#000" stroke-width=".093"/><path d="M9.75 12.594a3.008 3.008 0 0 0 .895 2.133 3.04 3.04 0 0 0 2.144.896 3.035 3.035 0 0 0 3.035-3.019V8.498H9.76v4.096m4.853-2.864v2.608l-.005.272a1.77 1.77 0 0 1-.533 1.28c-.34.34-.8.532-1.28.533-.502 0-.944-.213-1.275-.544-.34-.34-.532-.8-.533-1.28v-2.88l3.626.01z" fill="red"/><path d="M9.75 12.594a3.008 3.008 0 0 0 .895 2.133 3.04 3.04 0 0 0 2.144.896 3.035 3.035 0 0 0 3.035-3.019V8.498H9.76v4.096m4.853-2.864v2.608l-.005.272a1.77 1.77 0 0 1-.533 1.28c-.34.34-.8.532-1.28.533-.502 0-.944-.213-1.275-.544-.34-.34-.532-.8-.533-1.28v-2.88l3.626.01z" stroke="#000" stroke-width=".067"/><path d="M10.144 9.57c.005-.294.213-.363.213-.363.006 0 .23.075.23.368h-.443" fill="#FF0"/><path d="m9.963 9.212-.038.336h.224c0-.277.214-.32.214-.32.005 0 .213.059.218.32h.224l-.042-.341h-.8v.005zm-.054.342h.907c.016 0 .032.016.032.037 0 .027-.016.043-.032.043H9.91c-.016 0-.032-.016-.032-.043 0-.021.016-.037.038-.037h-.006z" fill="#FF0" stroke="#000" stroke-width=".067"/><path d="M10.24 9.548c0-.176.123-.224.123-.224s.123.054.123.224h-.246zm-.31-.48h.87c.016 0 .032.022.032.043a.034.034 0 0 1-.032.032h-.87c-.015 0-.031-.016-.031-.037 0-.016.016-.032.032-.032v-.006zm.022.08h.822c.016 0 .032.016.032.038 0 .021-.016.037-.032.037h-.827c-.022 0-.032-.016-.032-.037 0-.022.01-.038.032-.038h.005zm.267-.565h.064v.043h.048v-.043h.07v.048h.047v-.053h.064v.106c0 .022-.01.032-.027.032h-.234c-.016 0-.032-.01-.032-.026v-.107zm.245.144.016.341h-.23l.017-.346h.197" fill="#FF0"/><path d="m10.464 8.727.016.341h-.23l.017-.346h.197m-.224.826c0-.176.123-.224.123-.224s.123.054.123.224h-.246zm-.31-.48h.87c.016 0 .032.022.032.043a.034.034 0 0 1-.032.032h-.87c-.015 0-.031-.016-.031-.037 0-.016.016-.032.032-.032v-.006zm.022.08h.822c.016 0 .032.016.032.038 0 .021-.016.037-.032.037h-.827c-.022 0-.032-.016-.032-.037 0-.022.01-.038.032-.038h.005zm.267-.565h.064v.043h.048v-.043h.07v.048h.047v-.053h.064v.106c0 .022-.01.032-.027.032h-.234c-.016 0-.032-.01-.032-.026v-.107z" stroke="#000" stroke-width=".067"/><path d="M10.187 8.887v.181h-.214v-.181h.214zM10.752 8.887v.181h-.213v-.181h.213zM9.936 8.748H10v.054h.048v-.054h.064v.054h.048v-.054h.064v.107c0 .021-.01.032-.027.032h-.229a.032.032 0 0 1-.032-.032v-.107zM10.502 8.748h.063v.054h.049v-.054h.063v.054h.049v-.054h.063v.107c0 .021-.01.032-.026.032h-.23a.032.032 0 0 1-.031-.032v-.107z" fill="#FF0" stroke="#000" stroke-width=".067"/><path d="M10.341 8.834c0-.032.048-.032.048 0v.085h-.048v-.085zM10.059 8.951c0-.032.042-.032.042 0v.064h-.042v-.064zM10.624 8.951c0-.032.043-.032.043 0v.064h-.043v-.064z" fill="#000"/><path d="M10.144 12.039c.005-.293.213-.363.213-.363.006 0 .23.075.23.368h-.443" fill="#FF0"/><path d="m9.963 11.682-.038.336h.224c0-.278.214-.32.214-.32.005 0 .213.058.218.32h.224l-.042-.342h-.8v.006zm-.054.341h.907c.016 0 .032.016.032.037 0 .027-.016.043-.032.043H9.91c-.016 0-.032-.016-.032-.043 0-.021.016-.037.038-.037h-.006z" fill="#FF0" stroke="#000" stroke-width=".067"/><path d="M10.24 12.018c0-.176.123-.224.123-.224s.123.053.123.224h-.246zm-.31-.48h.87c.016 0 .032.021.032.042a.034.034 0 0 1-.032.032h-.87c-.015 0-.031-.016-.031-.037 0-.016.016-.032.032-.032v-.005zm.022.08h.822c.016 0 .032.016.032.037 0 .021-.016.037-.032.037h-.827c-.022 0-.032-.016-.032-.037 0-.021.01-.037.032-.037h.005zm.267-.566h.064v.043h.048v-.043h.07v.048h.047v-.053h.064v.107c0 .021-.01.032-.027.032h-.234c-.016 0-.032-.011-.032-.027v-.107zm.245.144.016.342h-.23l.017-.347h.197" fill="#FF0"/><path d="m10.464 11.196.016.342h-.23l.017-.347h.197m-.224.827c0-.176.123-.224.123-.224s.123.053.123.224h-.246zm-.31-.48h.87c.016 0 .032.021.032.042a.034.034 0 0 1-.032.032h-.87c-.015 0-.031-.016-.031-.037 0-.016.016-.032.032-.032v-.005zm.022.08h.822c.016 0 .032.016.032.037 0 .021-.016.037-.032.037h-.827c-.022 0-.032-.016-.032-.037 0-.021.01-.037.032-.037h.005zm.267-.566h.064v.043h.048v-.043h.07v.048h.047v-.053h.064v.107c0 .021-.01.032-.027.032h-.234c-.016 0-.032-.011-.032-.027v-.107z" stroke="#000" stroke-width=".067"/><path d="M10.187 11.356v.182h-.214v-.182h.214zM10.752 11.356v.182h-.213v-.182h.213zM9.936 11.218H10v.053h.048v-.053h.064v.053h.048v-.053h.064v.106c0 .022-.01.032-.027.032h-.229a.032.032 0 0 1-.032-.032v-.106zM10.502 11.218h.063v.053h.049v-.053h.063v.053h.049v-.053h.063v.106c0 .022-.01.032-.026.032h-.23a.032.032 0 0 1-.031-.032v-.106z" fill="#FF0" stroke="#000" stroke-width=".067"/><path d="M10.341 11.303c0-.032.048-.032.048 0v.085h-.048v-.085zM10.059 11.42c0-.032.042-.032.042 0v.064h-.042v-.064zM10.624 11.42c0-.032.043-.032.043 0v.064h-.043v-.064z" fill="#000"/><path d="M11.107 14.613c-.205-.21-.107-.407-.107-.407.003-.004.214-.11.422.096l-.312.314" fill="#FF0"/><path d="m10.725 14.49.212.263.158-.16c-.197-.195-.077-.376-.077-.376.004-.004.192-.11.382.07l.157-.159-.272-.21-.563.568.003.003zm.205.278.639-.644c.011-.01.034-.01.049.004.019.019.019.041.008.053l-.64.643c-.01.012-.033.012-.052-.007a.036.036 0 0 1 0-.053l-.004.004z" fill="#FF0" stroke="#000" stroke-width=".067"/><path d="M11.16 14.53c-.126-.124-.073-.245-.073-.245s.124-.05.245.07l-.173.175zm-.56-.12.613-.616c.011-.011.038-.008.053.007.011.011.011.034 0 .046l-.612.616c-.012.012-.034.012-.05-.003a.035.035 0 0 1 0-.046l-.003-.003zm.072.042.58-.583c.01-.011.033-.011.048.004s.015.038.004.049l-.582.586c-.015.016-.034.012-.05-.003-.015-.015-.018-.034-.003-.05l.003-.003zm-.213-.588.045-.045.03.03.034-.034-.03-.03.049-.05.034.035.034-.034-.038-.038.045-.046.076.076c.015.015.015.03.004.041l-.166.167c-.011.011-.03.015-.041.004l-.076-.076zm.275-.072.254.229-.162.163-.235-.256.14-.14" fill="#FF0"/><path d="m10.734 13.792.254.229-.162.163-.235-.256.14-.14m.428.742c-.125-.124-.072-.245-.072-.245s.124-.05.245.07l-.173.175zm-.558-.12.612-.616c.011-.011.038-.008.053.007.011.011.011.034 0 .046l-.612.616c-.012.012-.034.012-.05-.003a.035.035 0 0 1 0-.046l-.003-.003zm.071.042.58-.583c.01-.011.033-.011.048.004s.015.038.004.049l-.582.586c-.015.016-.034.012-.05-.003-.015-.015-.018-.034-.003-.05l.003-.003zm-.213-.588.045-.045.03.03.034-.034-.03-.03.049-.05.034.035.034-.034-.038-.038.045-.046.076.076c.015.015.015.03.004.041l-.166.167c-.011.011-.03.015-.041.004l-.076-.076z" stroke="#000" stroke-width=".067"/><path d="m10.652 14.101.129.128-.15.152-.129-.128.15-.152zM11.05 13.7l.13.128-.15.151-.13-.127.15-.152z" fill="#FF0" stroke="#000" stroke-width=".067"/><path d="m10.377 14.181.045-.045.038.038.034-.034-.038-.038.045-.045.038.037.034-.034-.038-.037.045-.046.076.075c.015.015.015.03.004.042l-.162.163a.032.032 0 0 1-.045 0l-.076-.075zM10.776 13.78l.045-.045.038.038.033-.034-.037-.038.045-.046.037.038.034-.034-.037-.038.045-.045.075.075c.015.015.015.03.004.042l-.161.162a.032.032 0 0 1-.046 0l-.075-.075z" fill="#FF0" stroke="#000" stroke-width=".067"/><path d="M10.723 13.954c-.022-.023.012-.057.034-.034l.06.06-.033.034-.06-.06zM10.607 14.237c-.022-.022.008-.053.03-.03l.046.045-.03.03-.046-.045zM11.006 13.836c-.023-.022.007-.053.03-.03l.045.045-.03.03-.045-.045z" fill="#000"/><path d="M12.581 9.57c.006-.294.214-.363.214-.363.005 0 .23.075.23.368h-.444" fill="#FF0"/><path d="m12.4 9.212-.037.336h.224c0-.277.213-.32.213-.32.005 0 .213.059.219.32h.224l-.043-.341h-.8v.005zm-.053.342h.906c.016 0 .032.016.032.037 0 .027-.016.043-.032.043h-.906c-.016 0-.032-.016-.032-.043 0-.021.016-.037.037-.037h-.005z" fill="#FF0" stroke="#000" stroke-width=".067"/><path d="M12.677 9.548c0-.176.123-.224.123-.224s.123.054.123.224h-.246zm-.309-.48h.87c.015 0 .031.022.031.043a.034.034 0 0 1-.032.032h-.869c-.016 0-.032-.016-.032-.037 0-.016.016-.032.032-.032v-.006zm.021.08h.822c.016 0 .032.016.032.038 0 .021-.016.037-.032.037h-.827c-.021 0-.032-.016-.032-.037 0-.022.01-.038.032-.038h.005zm.267-.565h.064v.043h.048v-.043h.07v.048h.047v-.053h.064v.106c0 .022-.01.032-.026.032h-.235c-.016 0-.032-.01-.032-.026v-.107zm.245.144.016.341h-.229l.016-.346h.197" fill="#FF0"/><path d="m12.901 8.727.016.341h-.229l.016-.346h.197m-.224.826c0-.176.123-.224.123-.224s.123.054.123.224h-.246zm-.309-.48h.87c.015 0 .031.022.031.043a.034.034 0 0 1-.032.032h-.869c-.016 0-.032-.016-.032-.037 0-.016.016-.032.032-.032v-.006zm.021.08h.822c.016 0 .032.016.032.038 0 .021-.016.037-.032.037h-.827c-.021 0-.032-.016-.032-.037 0-.022.01-.038.032-.038h.005zm.267-.565h.064v.043h.048v-.043h.07v.048h.047v-.053h.064v.106c0 .022-.01.032-.026.032h-.235c-.016 0-.032-.01-.032-.026v-.107z" stroke="#000" stroke-width=".067"/><path d="M12.624 8.887v.181h-.213v-.181h.213zM13.19 8.887v.181h-.214v-.181h.213zM12.373 8.748h.064v.054h.048v-.054h.064v.054h.048v-.054h.064v.107c0 .021-.01.032-.026.032h-.23a.032.032 0 0 1-.032-.032v-.107zM12.939 8.748h.064v.054h.048v-.054h.064v.054h.048v-.054h.064v.107c0 .021-.01.032-.027.032h-.23a.032.032 0 0 1-.031-.032v-.107z" fill="#FF0" stroke="#000" stroke-width=".067"/><path d="M12.779 8.834c0-.032.048-.032.048 0v.085h-.048v-.085zM12.496 8.951c0-.032.043-.032.043 0v.064h-.043v-.064zM13.061 8.951c0-.032.043-.032.043 0v.064h-.043v-.064z" fill="#000"/><path d="M15.446 9.57c-.006-.294-.214-.363-.214-.363-.005 0-.23.075-.23.368h.444" fill="#FF0"/><path d="m15.627 9.212.037.336h-.224c0-.277-.213-.32-.213-.32-.005 0-.213.059-.219.32h-.224l.043-.341h.8v.005zm.053.342h-.906c-.016 0-.032.016-.032.037 0 .027.015.043.031.043h.907c.016 0 .032-.016.032-.043a.036.036 0 0 0-.037-.037h.005z" fill="#FF0" stroke="#000" stroke-width=".067"/><path d="M15.35 9.548c0-.176-.123-.224-.123-.224s-.123.054-.123.224h.246zm.309-.48h-.87c-.015 0-.031.022-.031.043 0 .016.016.032.032.032h.869c.016 0 .032-.016.032-.037a.034.034 0 0 0-.032-.032v-.006zm-.022.08h-.82c-.017 0-.033.016-.033.038 0 .021.016.037.032.037h.827c.021 0 .032-.016.032-.037 0-.022-.01-.038-.032-.038h-.006zm-.266-.565h-.064v.043h-.048v-.043h-.07v.048h-.047v-.053h-.064v.106c0 .022.01.032.026.032h.235c.016 0 .032-.01.032-.026v-.107zm-.245.144-.016.341h.229l-.016-.346h-.197" fill="#FF0"/><path d="m15.126 8.727-.016.341h.229l-.016-.346h-.197m.224.826c0-.176-.123-.224-.123-.224s-.123.054-.123.224h.246zm.309-.48h-.87c-.015 0-.031.022-.031.043 0 .016.016.032.032.032h.869c.016 0 .032-.016.032-.037a.034.034 0 0 0-.032-.032v-.006zm-.022.08h-.82c-.017 0-.033.016-.033.038 0 .021.016.037.032.037h.827c.021 0 .032-.016.032-.037 0-.022-.01-.038-.032-.038h-.006zm-.266-.565h-.064v.043h-.048v-.043h-.07v.048h-.047v-.053h-.064v.106c0 .022.01.032.026.032h.235c.016 0 .032-.01.032-.026v-.107z" stroke="#000" stroke-width=".067"/><path d="M15.403 8.887v.181h.213v-.181h-.213zM14.837 8.887v.181h.214v-.181h-.214zM15.654 8.748h-.064v.054h-.048v-.054h-.064v.054h-.048v-.054h-.064v.107c0 .021.01.032.026.032h.23a.032.032 0 0 0 .032-.032v-.107zM15.088 8.748h-.064v.054h-.048v-.054h-.064v.054h-.048v-.054H14.8v.107c0 .021.01.032.027.032h.23a.032.032 0 0 0 .031-.032v-.107z" fill="#FF0" stroke="#000" stroke-width=".067"/><path d="M15.248 8.834c0-.032-.048-.032-.048 0v.085h.048v-.085zM15.53 8.951c0-.032-.042-.032-.042 0v.064h.043v-.064zM14.966 8.951c0-.032-.043-.032-.043 0v.064h.043v-.064z" fill="#000"/><path d="M15.445 12.039c-.005-.293-.213-.363-.213-.363-.005 0-.23.075-.23.368h.443" fill="#FF0"/><path d="m15.627 11.682.037.336h-.224c0-.278-.213-.32-.213-.32-.005 0-.213.058-.219.32h-.224l.043-.342h.8v.006zm.053.341h-.906c-.016 0-.032.016-.032.037 0 .027.015.043.031.043h.907c.016 0 .032-.016.032-.043a.036.036 0 0 0-.037-.037h.005z" fill="#FF0" stroke="#000" stroke-width=".067"/><path d="M15.35 12.018c0-.176-.123-.224-.123-.224s-.123.053-.123.224h.246zm.309-.48h-.87c-.015 0-.031.021-.031.042 0 .016.016.032.032.032h.869c.016 0 .032-.016.032-.037a.034.034 0 0 0-.032-.032v-.005zm-.022.08h-.82c-.017 0-.033.016-.033.037 0 .021.016.037.032.037h.827c.021 0 .032-.016.032-.037 0-.021-.01-.037-.032-.037h-.006zm-.266-.566h-.064v.043h-.048v-.043h-.07v.048h-.047v-.053h-.064v.107c0 .021.01.032.026.032h.235c.016 0 .032-.011.032-.027v-.107zm-.245.144-.016.342h.229l-.016-.347h-.197" fill="#FF0"/><path d="m15.126 11.196-.016.342h.229l-.016-.347h-.197m.224.827c0-.176-.123-.224-.123-.224s-.123.053-.123.224h.246zm.309-.48h-.87c-.015 0-.031.021-.031.042 0 .016.016.032.032.032h.869c.016 0 .032-.016.032-.037a.034.034 0 0 0-.032-.032v-.005zm-.022.08h-.82c-.017 0-.033.016-.033.037 0 .021.016.037.032.037h.827c.021 0 .032-.016.032-.037 0-.021-.01-.037-.032-.037h-.006zm-.266-.566h-.064v.043h-.048v-.043h-.07v.048h-.047v-.053h-.064v.107c0 .021.01.032.026.032h.235c.016 0 .032-.011.032-.027v-.107z" stroke="#000" stroke-width=".067"/><path d="M15.403 11.356v.182h.213v-.182h-.213zM14.837 11.356v.182h.214v-.182h-.214zM15.653 11.218h-.064v.053h-.048v-.053h-.064v.053h-.048v-.053h-.064v.106c0 .022.011.032.027.032h.23a.032.032 0 0 0 .031-.032v-.106zM15.088 11.218h-.064v.053h-.048v-.053h-.064v.053h-.048v-.053H14.8v.106c0 .022.01.032.027.032h.23a.032.032 0 0 0 .031-.032v-.106z" fill="#FF0" stroke="#000" stroke-width=".067"/><path d="M15.248 11.303c0-.032-.048-.032-.048 0v.085h.048v-.085zM15.53 11.42c0-.032-.042-.032-.042 0v.064h.043v-.064zM14.966 11.42c0-.032-.043-.032-.043 0v.064h.043v-.064z" fill="#000"/><path d="M14.483 14.613c.204-.21.107-.407.107-.407-.004-.004-.215-.11-.423.096l.312.314" fill="#FF0"/><path d="m14.864 14.49-.212.263-.158-.16c.197-.195.077-.376.077-.376-.004-.004-.192-.11-.381.07l-.158-.159.272-.21.564.568-.004.003zm-.204.278-.64-.644c-.01-.01-.033-.01-.048.004-.02.019-.02.041-.008.053l.639.643c.011.012.034.012.053-.007a.036.036 0 0 0 0-.053l.004.004z" fill="#FF0" stroke="#000" stroke-width=".067"/><path d="M14.43 14.53c.125-.124.073-.245.073-.245s-.124-.05-.245.07l.173.175zm.559-.12-.613-.616c-.01-.011-.037-.008-.052.007-.012.011-.012.034 0 .046l.612.616c.011.012.034.012.05-.003a.035.035 0 0 0 0-.046l.003-.003zm-.072.042-.579-.583c-.01-.011-.033-.011-.048.004-.016.015-.016.038-.004.049l.582.586c.015.016.034.012.049-.003s.019-.034.004-.05l-.004-.003zm.213-.588-.045-.045-.03.03-.034-.034.03-.03-.048-.05-.034.035-.034-.034.038-.038-.045-.046-.076.076c-.015.015-.015.03-.004.041l.165.167c.012.011.03.015.042.004l.075-.076zm-.275-.072-.253.229.162.163.234-.256-.139-.14" fill="#FF0"/><path d="m14.855 13.792-.253.229.162.163.234-.256-.139-.14m-.428.742c.124-.124.072-.245.072-.245s-.124-.05-.245.07l.173.175zm.558-.12-.613-.616c-.01-.011-.037-.008-.052.007-.012.011-.012.034 0 .046l.612.616c.011.012.034.012.05-.003a.035.035 0 0 0 0-.046l.003-.003zm-.072.042-.579-.583c-.01-.011-.033-.011-.048.004-.016.015-.016.038-.004.049l.582.586c.015.016.034.012.049-.003s.019-.034.004-.05l-.004-.003zm.213-.588-.045-.045-.03.03-.034-.034.03-.03-.048-.05-.034.035-.034-.034.038-.038-.045-.046-.076.076c-.015.015-.015.03-.004.041l.165.167c.012.011.03.015.042.004l.075-.076z" stroke="#000" stroke-width=".067"/><path d="m14.937 14.101-.128.128.15.152.129-.128-.15-.152zM14.539 13.7l-.129.128.15.151.13-.127-.151-.152z" fill="#FF0" stroke="#000" stroke-width=".067"/><path d="m15.212 14.181-.045-.045-.038.038-.034-.034.038-.038-.045-.045-.038.037-.033-.034.037-.037-.045-.046-.075.075c-.015.015-.015.03-.004.042l.161.163a.032.032 0 0 0 .046 0l.075-.075zM14.814 13.78l-.045-.045-.038.038-.034-.034.038-.038-.045-.046-.038.038-.034-.034.038-.038-.045-.045-.076.075c-.015.015-.015.03-.004.042l.162.162a.032.032 0 0 0 .045 0l.076-.075z" fill="#FF0" stroke="#000" stroke-width=".067"/><path d="M14.866 13.954c.023-.023-.011-.057-.034-.034l-.06.06.034.034.06-.06zM14.982 14.237c.023-.022-.007-.053-.03-.03l-.045.045.03.03.045-.045zM14.584 13.836c.022-.022-.008-.053-.03-.03l-.046.045.03.03.046-.045z" fill="#000"/><path d="M12.405 12.13a.443.443 0 0 0 .246.397.383.383 0 0 0 .154.035.39.39 0 0 0 .283-.128.443.443 0 0 0 .117-.304v-.576h-.8v.576z" fill="#039"/><path d="M12.592 11.852a.08.08 0 1 0 0-.16.08.08 0 0 0 0 .16zM13.035 11.852a.08.08 0 1 0 0-.16.08.08 0 0 0 0 .16zM12.81 12.066a.08.08 0 1 0 0-.16.08.08 0 0 0 0 .16zM12.592 12.29a.08.08 0 1 0 0-.16.08.08 0 0 0 0 .16zM13.035 12.29a.08.08 0 1 0 0-.16.08.08 0 0 0 0 .16z" fill="#fff"/><path d="M12.405 10.743a.443.443 0 0 0 .246.398.383.383 0 0 0 .154.034.39.39 0 0 0 .283-.128.443.443 0 0 0 .117-.304v-.576h-.8v.576z" fill="#039"/><path d="M12.592 10.466a.08.08 0 1 0 0-.16.08.08 0 0 0 0 .16zM13.035 10.466a.08.08 0 1 0 0-.16.08.08 0 0 0 0 .16zM12.81 10.679a.08.08 0 1 0 0-.16.08.08 0 0 0 0 .16zM12.592 10.903a.08.08 0 1 0 0-.16.08.08 0 0 0 0 .16zM13.035 10.903a.08.08 0 1 0 0-.16.08.08 0 0 0 0 .16z" fill="#fff"/><path d="M11.296 12.13a.443.443 0 0 0 .245.397.383.383 0 0 0 .155.035.39.39 0 0 0 .283-.128.443.443 0 0 0 .117-.304v-.576h-.8v.576z" fill="#039"/><path d="M11.483 11.852a.08.08 0 1 0 0-.16.08.08 0 0 0 0 .16zM11.925 11.852a.08.08 0 1 0 0-.16.08.08 0 0 0 0 .16zM11.701 12.066a.08.08 0 1 0 0-.16.08.08 0 0 0 0 .16zM11.483 12.29a.08.08 0 1 0 0-.16.08.08 0 0 0 0 .16zM11.925 12.29a.08.08 0 1 0 0-.16.08.08 0 0 0 0 .16z" fill="#fff"/><path d="M13.515 12.13a.443.443 0 0 0 .245.397.384.384 0 0 0 .155.035.39.39 0 0 0 .283-.128.443.443 0 0 0 .117-.304v-.576h-.8v.576z" fill="#039"/><path d="M13.701 11.852a.08.08 0 1 0 0-.16.08.08 0 0 0 0 .16zM14.144 11.852a.08.08 0 1 0 0-.16.08.08 0 0 0 0 .16zM13.92 12.066a.08.08 0 1 0 0-.16.08.08 0 0 0 0 .16zM13.701 12.29a.08.08 0 1 0 0-.16.08.08 0 0 0 0 .16zM14.144 12.29a.08.08 0 1 0 0-.16.08.08 0 0 0 0 .16z" fill="#fff"/><path d="M12.405 13.506a.443.443 0 0 0 .246.397.383.383 0 0 0 .154.035.39.39 0 0 0 .283-.128.443.443 0 0 0 .117-.304v-.576h-.8v.576z" fill="#039"/><path d="M12.592 13.228a.08.08 0 1 0 0-.16.08.08 0 0 0 0 .16zM13.035 13.228a.08.08 0 1 0 0-.16.08.08 0 0 0 0 .16zM12.81 13.442a.08.08 0 1 0 0-.16.08.08 0 0 0 0 .16zM12.592 13.666a.08.08 0 1 0 0-.16.08.08 0 0 0 0 .16zM13.035 13.666a.08.08 0 1 0 0-.16.08.08 0 0 0 0 .16z" fill="#fff"/></g><defs><clipPath id="a"><path fill="#fff" d="M0 0h32v24H0z"/></clipPath></defs></svg>