<svg width="32" height="24" fill="none" xmlns="http://www.w3.org/2000/svg"><g clip-path="url(#a)"><mask id="b" style="mask-type:luminance" maskUnits="userSpaceOnUse" x="-1" y="0" width="34" height="25"><path d="M0 .001H32v24H-.001v-24z" fill="#fff"/></mask><g mask="url(#b)"><path fill-rule="evenodd" clip-rule="evenodd" d="M0 .001h32.006v24H-.001v-24z" fill="#fff"/><path fill-rule="evenodd" clip-rule="evenodd" d="M3.506 7.29 6.835 2.3l.832.555-3.33 4.991-.831-.554zm1.248.833L8.083 3.13l.832.555-3.33 4.992-.831-.555zm1.248.832L9.33 3.963l.832.555-3.33 4.992-.831-.555zM21.809 19.497l3.329-4.992.832.555-3.33 4.992-.831-.555zm1.248.832 3.329-4.991.832.555-3.33 4.991-.831-.555zm1.248.833 3.329-4.992.832.555-3.33 4.992-.831-.555zM23.058 16.724l4.16 2.774-4.16-2.774z" fill="#000"/><path d="m23.058 16.724 4.16 2.774" stroke="#fff" stroke-width="1.25"/><path fill-rule="evenodd" clip-rule="evenodd" d="M10.994 8.679a6 6 0 0 1 9.984 6.658l-9.984-6.658z" fill="#CD2E3A"/><path fill-rule="evenodd" clip-rule="evenodd" d="M10.994 8.679a6 6 0 0 0 9.984 6.658 3 3 0 0 0-4.992-3.33L10.994 8.68z" fill="#0047A0"/><path d="M15.986 12.008a3 3 0 1 0-4.992-3.33 3 3 0 0 0 4.992 3.33z" fill="#CD2E3A"/><path fill-rule="evenodd" clip-rule="evenodd" d="m6.849 21.718-3.33-4.991.833-.555 3.329 4.992-.832.554zm1.248-.832-3.33-4.991.833-.555 3.329 4.991-.832.555zm1.248-.832-3.33-4.992.833-.555 3.329 4.992-.832.555zM25.152 9.512l-3.33-4.992.833-.555 3.329 4.992-.832.555zM26.4 8.68l-3.33-4.992.833-.555 3.329 4.992-.832.555zm1.248-.833-3.33-4.991.832-.555 3.33 4.992-.832.554z" fill="#000"/><path fill-rule="evenodd" clip-rule="evenodd" d="m6.224 18.53 1.248-.833-1.248.832zM23.071 7.292l1.456-.97-1.456.97zm2.704-1.803 1.248-.832-1.248.832z" fill="#000"/><path d="m6.224 18.53 1.248-.833m15.6-10.404 1.455-.97m1.248-.833 1.248-.832" stroke="#fff" stroke-width="1.25"/></g></g><defs><clipPath id="a"><path fill="#fff" d="M0 0h32v24H0z"/></clipPath></defs></svg>