<svg width="32" height="24" fill="none" xmlns="http://www.w3.org/2000/svg"><g clip-path="url(#a)"><mask id="b" style="mask-type:luminance" maskUnits="userSpaceOnUse" x="-1" y="0" width="34" height="24"><path d="M0 0h32v24H0V0z" fill="#fff"/></mask><g mask="url(#b)" fill-rule="evenodd" clip-rule="evenodd"><path d="M0 19.115V4.894l10.589 7.11-10.594 7.111H0z" fill="#000"/><path d="m7.223 24.004 11.887-7.997h16.884V24H7.224v.005z" fill="#000C8A"/><path d="M6.464 0h29.53v8.006H19.106S6.618-.08 6.464 0z" fill="#E1392D"/><path d="M0 3v1.894L10.589 12-.005 19.115v1.89l13.336-9L-.005 3H0z" fill="#FFB915"/><path d="M0 3V0h4.453L18.57 9.562H36v4.885H18.571L4.448 24H0v-2.996l13.33-9L.005 3H0z" fill="#007847"/><path d="M4.448 0h2.775L19.11 8.001h16.884v1.561H18.571L4.448.005V0zm0 24.004h2.775l11.887-7.997h16.884v-1.556H18.571L4.448 24v.004z" fill="#fff"/></g></g><defs><clipPath id="a"><path fill="#fff" d="M0 0h32v24H0z"/></clipPath></defs></svg>