<svg width="32" height="24" fill="none" xmlns="http://www.w3.org/2000/svg"><g clip-path="url(#a)"><mask id="b" style="mask-type:luminance" maskUnits="userSpaceOnUse" x="0" y="0" width="32" height="24"><path d="M0 0h32v24H0V0z" fill="#fff"/></mask><g mask="url(#b)"><path d="M0 0h36v24H0V0z" fill="red"/><path d="M0 0h18v12H0V0z" fill="#000095"/><path d="m7.7 6.345-.125.48.47.13-.09-.355-.255-.255zm2.345.255-.09.355.47-.13-.125-.48-.255.255zm-2.09-1.2-.255.255.095.345.16-.6z" fill="#fff"/><path d="m7.795 6-.095.345.255.255-.16-.6z" fill="#fff"/><path d="M7.7 5.655 7.355 6l.345.345L7.795 6 7.7 5.655zm.7 1.39.255.255L9 7.205l-.6-.16zm.945.255.48.125.13-.47-.355.09-.255.255z" fill="#fff"/><path d="m9.6 7.045.355-.09.09-.355-.445.445zm-1.555-.09.13.47.48-.125-.255-.255-.355-.09zm.955.25.345.095.255-.255-.6.16z" fill="#fff"/><path d="M8.655 7.3 9 7.645l.345-.345L9 7.205l-.345.095zm-.61-2.255-.47.13.125.48.255-.255.09-.355zM7.955 6.6l.09.355.355.09-.445-.445zm2.25-.6.095-.345-.255-.255.16.6z" fill="#fff"/><path d="m8.4 4.955-.355.09-.09.355.445-.445zm1.645.445-.09-.355-.355-.09.445.445zm.255.945L10.645 6l-.345-.345-.095.345.095.345z" fill="#fff"/><path d="M10.045 5.4 9.6 4.955l-.6-.16-.6.16-.445.445-.16.6.16.6.445.445.6.16.6-.16.445-.445.16-.6-.16-.6z" fill="#fff"/><path d="m10.045 6.6.255-.255L10.205 6l-.16.6zm.255-.945.125-.48-.47-.13.09.355.255.255zm-.345-.61-.13-.47-.48.125.255.255.355.09zm-1.3-.345-.48-.125-.13.47.355-.09.255-.255zM9 4.795 8.655 4.7l-.255.255.6-.16z" fill="#fff"/><path d="M9.345 4.7 9 4.355l-.345.345.345.095.345-.095z" fill="#fff"/><path d="M9.6 4.955 9.345 4.7 9 4.795l.6.16zM8.655 7.3l-.48.125.225.83.6-.61-.345-.345zm-.255.955L9 10.5l.6-2.245-.6-.61-.6.61zm-.355-1.3-.47-.13-.22.82.82-.22-.13-.47z" fill="#fff"/><path d="m7.355 7.645-.6 2.255L8.4 8.255l-.225-.83-.82.22zm-.6-1.045L5.1 8.255l2.255-.61.22-.82-.82-.225zM7.7 6.345 7.355 6l-.6.6.82.225.125-.48zm0-.69-.125-.48-.82.225.6.6.345-.345zM6.755 5.4 4.5 6l2.255.6.6-.6-.6-.6zm4.5 1.2-.83.225.22.82 2.255.61L11.255 6.6z" fill="#fff"/><path d="m9.955 6.955-.13.47.82.22-.22-.82-.47.13zm-.61.345L9 7.645l.6.61.225-.83-.48-.125zm.955-.955.125.48.83-.225-.61-.6-.345.345zM9.6 8.255 11.255 9.9l-.61-2.255-.82-.22-.225.83zm.355-3.21.47.13.22-.82-.82.22.13.47z" fill="#fff"/><path d="M11.255 5.4 12.9 3.755l-2.255.6-.22.82.83.225zm-.61-1.045.61-2.255L9.6 3.755l.225.82.82-.22zm.61 2.245L13.5 6l-2.245-.6-.61.6.61.6z" fill="#fff"/><path d="m10.3 5.655.345.345.61-.6-.83-.225-.125.48zm-1.9-1.9L6.755 2.1l.6 2.255.82.22.225-.82z" fill="#fff"/><path d="m8.045 5.045.13-.47-.82-.22.22.82.47-.13z" fill="#fff"/><path d="m7.355 4.355-2.255-.6L6.755 5.4l.82-.225-.22-.82zm1.99.345.48-.125-.225-.82-.6.6.345.345zM9.6 3.755 9 1.5l-.6 2.255.6.6.6-.6zM8.655 4.7 9 4.355l-.6-.6-.225.82.48.125z" fill="#fff"/><path d="M9 8.555a2.555 2.555 0 1 0 0-5.11 2.555 2.555 0 0 0 0 5.11z" fill="#000095"/><path d="M9 8.255a2.255 2.255 0 1 0 0-4.51 2.255 2.255 0 0 0 0 4.51z" fill="#fff"/></g></g><defs><clipPath id="a"><path fill="#fff" d="M0 0h32v24H0z"/></clipPath></defs></svg>