<svg width="32" height="24" fill="none" xmlns="http://www.w3.org/2000/svg"><g clip-path="url(#a)" fill-rule="evenodd" clip-rule="evenodd"><path d="M0 0h32v24H0V0z" fill="#E30A17"/><path d="M20.35 12.375c0 3.31-2.73 5.995-6.1 5.995-3.37 0-6.1-2.685-6.1-6s2.73-5.99 6.1-5.99c3.37 0 6.1 2.685 6.1 5.995z" fill="#fff"/><path d="M20.65 12.375c0 2.65-2.18 4.795-4.875 4.795s-4.88-2.15-4.88-4.8 2.185-4.79 4.88-4.79 4.88 2.145 4.88 4.795h-.005z" fill="#E30A17"/><path d="m21.535 9.575-.05 2.215-2.065.56 2.04.725-.05 2.035 1.325-1.59 2.01.7-1.16-1.705L25 10.82l-2.175.6-1.29-1.85v.005z" fill="#fff"/></g><defs><clipPath id="a"><path fill="#fff" d="M0 0h32v24H0z"/></clipPath></defs></svg>