<svg width="52" height="52" fill="none" xmlns="http://www.w3.org/2000/svg"><g clip-path="url(#a)"><path d="M-9 0h70v52.5H-9V0z" fill="#012169"/><path d="m-.797 0 26.688 19.797L52.469 0H61v6.781L34.75 26.36 61 45.83V52.5h-8.75L26 32.922-.14 52.5H-9v-6.563L17.14 26.47-9 7V0h8.203z" fill="#fff"/><path d="M37.375 30.734 61 48.125V52.5L31.36 30.734h6.015zM17.25 32.922l.656 3.828-21 15.75H-9l26.25-19.578zM61 0v.328L33.766 20.891l.218-4.813L55.531 0H61zM-9 0l26.14 19.25h-6.562L-9 4.594V0z" fill="#C8102E"/><path d="M17.36 0v52.5h17.5V0h-17.5zM-9 17.5V35h70V17.5H-9z" fill="#fff"/><path d="M-9 21.11v10.5h70v-10.5H-9zM20.86 0v52.5h10.5V0h-10.5z" fill="#C8102E"/></g><defs><clipPath id="a"><path fill="#fff" transform="translate(-9)" d="M0 0h70v52.5H0z"/></clipPath></defs></svg>