<svg width="32" height="24" fill="none" xmlns="http://www.w3.org/2000/svg"><g clip-path="url(#a)"><path fill-rule="evenodd" clip-rule="evenodd" d="M0 0h32v24H0V0z" fill="#F7FCFF"/><path fill-rule="evenodd" clip-rule="evenodd" d="M0 14.667v2h32v-2H0zM0 18.333v2h32v-2H0zM0 7.333v2h32v-2H0zM0 22v2h32v-2H0zM0 11v2h32v-2H0zM0 0v2h32V0H0zM0 3.667v2h32v-2H0z" fill="#CE1126"/><path d="M0 0h16v13H0V0z" fill="#2E42A5"/><path d="m4.045 3.329.23.63.7.013-.558.403.202.639-.574-.381-.575.38.203-.638-.558-.403.7-.013.23-.63zM4.275 8.616l-.23-.63-.23.63-.7.014.558.403-.203.638.575-.38.574.38-.202-.638.558-.403-.7-.014zM7.955 3.329l.23.63.7.013-.558.403.203.639-.575-.381-.574.38.202-.638-.558-.403.7-.013.23-.63zM8.185 8.616l-.23-.63-.23.63-.7.014.558.403-.202.638.574-.38.575.38-.203-.638.558-.403-.7-.014zM11.865 3.329l.23.63.7.013-.558.403.203.639-.575-.381-.574.38.202-.638-.557-.403.7-.013.23-.63zM12.095 8.616l-.23-.63-.23.63-.7.014.558.403-.202.638.574-.38.575.38-.203-.638.558-.403-.7-.014zM2.09 1l.23.63.7.014-.558.403.203.638-.575-.38-.575.38.203-.638-.558-.403.7-.014.23-.63zM2.32 6.288l-.23-.63-.23.63-.7.013.558.403-.203.639.575-.381.575.38-.203-.638.558-.403-.7-.013zM2.09 10.315l.23.63.7.014-.558.403.203.638-.575-.381-.575.381.203-.638-.558-.403.7-.014.23-.63zM6.23 1.63 6 1l-.23.63-.7.014.558.403-.202.638.574-.38.575.38-.203-.638.558-.403-.7-.014zM6 5.657l.23.63.7.014-.558.403.203.639L6 6.962l-.574.38.202-.638-.557-.403.7-.013.23-.63zM6.23 10.945l-.23-.63-.23.63-.7.014.558.403-.202.638.574-.381.575.381-.203-.638.558-.403-.7-.014zM9.91 1l.23.63.7.014-.558.403.203.638-.575-.38-.574.38.202-.638-.557-.403.7-.014.23-.63zM10.14 6.288l-.23-.63-.23.63-.7.013.559.403-.203.639.574-.381.575.38-.203-.638.558-.403-.7-.013zM9.91 10.315l.23.63.7.014-.558.403.203.638-.575-.381-.574.381.203-.638-.558-.403.7-.014.23-.63zM14.05 1.63 13.82 1l-.23.63-.7.014.558.403-.202.638.574-.38.575.38-.203-.638.558-.403-.7-.014zM13.82 5.657l.23.63.7.014-.558.403.203.639-.575-.381-.574.38.202-.638-.557-.403.7-.013.23-.63zM14.05 10.945l-.23-.63-.23.63-.7.014.558.403-.202.638.574-.381.575.381-.203-.638.558-.403-.7-.014z" fill="#fff"/></g><defs><clipPath id="a"><path fill="#fff" d="M0 0h32v24H0z"/></clipPath></defs></svg>