<svg width="40" height="40" fill="none" xmlns="http://www.w3.org/2000/svg"><path d="M3.333 11.667H8.11c1.21 0 2.372-.6 3.229-1.667 1.223-1.524 3.032-2.056 4.673-1.375l2.323.965m-15 17.021h2.7c1.933 0 2.9 0 3.813.258.044.012.089.025.133.039.908.275 1.712.793 3.32 1.83 3.147 2.028 4.72 3.042 6.435 2.919.08-.006.161-.014.242-.024 1.706-.204 3.043-1.496 5.718-4.082L28.334 25" stroke="#5E87F1" stroke-width="2" stroke-linecap="round"/><path d="M36.667 12.056h-4.195c-1.776 0-3.03-.965-4.305-2.252-.825-.833-1.879-1.325-2.986-1.392-1.238-.076-2.672-.182-3.874.148-1.338.368-2.222 1.374-3.157 2.426l-2.411 2.716c-.985 1.108-.985 2.906 0 4.014.85.957 2.18 1.105 3.18.355.72-.54 1.538-1.413 2.386-1.687.954-.31 1.547.385 2.087 1.116l3.867 5.224c1.436 1.939 2.153 2.908 3.134 3.425.981.518 2.102.518 4.344.518h1.93" stroke="#5E87F1" stroke-width="2" stroke-linecap="round"/></svg>