<svg width="50" height="13" fill="none" xmlns="http://www.w3.org/2000/svg"><path fill-rule="evenodd" clip-rule="evenodd" d="M6.237 0 .77 12.102h6.546l.812-1.93h1.855l.812 1.93H18V10.63l.642 1.473h3.728l.642-1.504v1.504h14.987l1.822-1.88 1.706 1.88 7.698.016-5.486-6.033L49.225 0h-7.578l-1.774 1.845L38.22 0H21.916l-1.4 3.124L19.084 0H12.55v1.423L11.824 0H6.237zm22.38 1.719h8.606l2.633 2.843 2.717-2.843h2.632l-4 4.364 4 4.314h-2.752l-2.632-2.876-2.73 2.876h-8.474V1.72zm2.125 3.383V3.515h5.37l2.344 2.535-2.447 2.55h-5.267V6.868h4.695V5.102h-4.695zM7.504 1.719h3.191l3.628 8.206V1.719h3.495l2.802 5.884 2.582-5.884h3.479v8.684h-2.117l-.017-6.805-3.086 6.804h-1.893l-3.103-6.804v6.804h-4.354l-.826-1.946h-4.46L6.003 10.4H3.669l3.835-8.682zm.083 4.937 1.47-3.468 1.467 3.468H7.587z" fill="#1F72CD"/></svg>