<svg width="42" height="18" fill="none" xmlns="http://www.w3.org/2000/svg"><path fill-rule="evenodd" clip-rule="evenodd" d="M5.588 3.728c.785.066 1.57-.397 2.06-.985.483-.604.802-1.415.72-2.243-.695.033-1.553.464-2.044 1.068-.45.521-.834 1.365-.736 2.16zm9.338 10.66V1.486h4.783c2.47 0 4.195 1.722 4.195 4.238 0 2.516-1.758 4.254-4.26 4.254h-2.74v4.412h-1.978zM8.36 3.886c-.692-.04-1.323.21-1.832.413-.328.13-.606.241-.817.241-.237 0-.527-.116-.851-.247-.426-.17-.912-.366-1.422-.357-1.17.017-2.257.687-2.854 1.755-1.227 2.135-.319 5.297.867 7.035.58.861 1.275 1.805 2.191 1.771.403-.015.693-.14.993-.268.345-.149.704-.303 1.264-.303.54 0 .884.15 1.213.294.313.137.614.269 1.06.26.948-.016 1.545-.86 2.126-1.72.626-.925.902-1.826.944-1.963l.004-.016a.217.217 0 0 0-.022-.01c-.21-.098-1.81-.84-1.826-2.829-.015-1.67 1.27-2.516 1.473-2.649l.024-.016c-.818-1.225-2.093-1.358-2.535-1.39zm19.158 10.603c1.243 0 2.396-.637 2.92-1.647h.04v1.548h1.832V7.966c0-1.862-1.472-3.063-3.737-3.063-2.101 0-3.655 1.217-3.712 2.889h1.782c.148-.795.875-1.316 1.873-1.316 1.21 0 1.889.571 1.889 1.622v.712l-2.47.15c-2.297.14-3.54 1.092-3.54 2.747 0 1.672 1.284 2.781 3.123 2.781zm.532-1.531c-1.055 0-1.726-.513-1.726-1.3 0-.81.646-1.283 1.881-1.357l2.2-.14v.728c0 1.208-1.014 2.069-2.355 2.069zm10.335 1.937c-.793 2.26-1.7 3.004-3.63 3.004-.148 0-.638-.016-.753-.05v-1.547c.123.016.426.033.581.033.875 0 1.366-.373 1.668-1.34l.18-.572-3.353-9.394h2.07l2.33 7.623h.04l2.33-7.623h2.012l-3.475 9.866zm-21.48-11.72h2.28c1.718 0 2.7.927 2.7 2.557s-.982 2.566-2.707 2.566h-2.273V3.173z" fill="#000"/></svg>