<svg width="46" height="18" fill="none" xmlns="http://www.w3.org/2000/svg"><path fill-rule="evenodd" clip-rule="evenodd" d="M14.967.5h-4.09v8.885h4.2c1.87 0 3.399-.64 3.399-2.762 0-1-.57-1.83-1.5-2.1.69-.351 1.15-.991 1.15-1.792 0-1.86-1.66-2.251-3.16-2.231zm-.05 3.502h-1.76V2.29h1.76c.48 0 .93.22.93.86s-.54.85-.93.85zm.06 3.542h-1.82V5.493h1.82c.68 0 1.22.27 1.22 1.05 0 .74-.5 1-1.22 1zM24.385.5h-2.31l-3.27 8.895h2.34l.55-1.591h3.05l.54 1.59h2.369L24.384.5zm-1.15 2.471.97 3.112h-1.98l.99-3.112h.02z" fill="#006E90"/><path d="M28.294.5h2.34l3.029 5.483h.02V.5h2.14v8.895h-2.34l-3.03-5.543h-.02v5.543h-2.14V.5zM39.661.5h-2.29v8.895h2.28V6.653l.93-1 2.35 3.742h2.829l-3.63-5.393L45.36.5h-2.83l-2.869 3.412V.5z" fill="#006E90"/><path d="M25.325 15.318c.03.72.47.95 1.14.95.47 0 .959-.17.959-.63 0-.441-.575-.589-1.26-.765-.152-.039-.31-.08-.47-.125-.86-.25-1.76-.64-1.76-1.771 0-1.34 1.32-1.861 2.45-1.861 1.2 0 2.4.59 2.41 1.97h-1.57c.03-.56-.49-.74-.97-.74-.34 0-.76.12-.76.52 0 .372.541.506 1.196.669.176.043.36.09.544.142.87.25 1.74.66 1.74 1.771 0 1.551-1.3 2.051-2.62 2.051s-2.6-.62-2.61-2.19h1.57l.01.01zM3.37 12.627h1.789v-1.371H0v1.37h1.8v4.753h1.57v-4.752z" fill="#00AFD8"/><path fill-rule="evenodd" clip-rule="evenodd" d="M8.918 11.256h-3.07v6.133h1.57v-2.231h1.19c.74 0 .84.63.88 1.25l.012.123c.021.244.06.684.168.858h1.55c-.181-.19-.221-.884-.242-1.24l-.008-.14c-.05-.59-.24-1.321-.88-1.471v-.02c.63-.25.94-.88.94-1.541 0-1.23-1.05-1.721-2.11-1.721zm-.19 2.661h-1.32v-1.38h1.25c.44 0 .79.2.79.66s-.25.72-.72.72zM13.557 11.256h1.59l2.25 6.123h-1.63l-.37-1.1h-2.1l-.38 1.1h-1.61l2.25-6.123zm1.46 3.842-.67-2.141h-.02l-.68 2.141h1.37z" fill="#00AFD8"/><path d="M19.446 11.256h-1.61v6.123h1.47v-3.822h.02l2.09 3.822h1.609v-6.123h-1.47v3.772h-.02l-2.09-3.772zM34.142 11.256h-4.429v6.123h1.57v-2.361h2.48v-1.23h-2.48v-1.251h2.86v-1.281zM39.651 11.256v1.28h-3.229v1.071h2.95v1.23h-2.95v1.172h3.31v1.37h-4.88v-6.123h4.8z" fill="#00AFD8"/><path fill-rule="evenodd" clip-rule="evenodd" d="M43.7 11.256h-3.069v6.133h1.57v-2.231h1.19c.74 0 .84.63.88 1.25l.011.134c.02.246.054.676.168.847H46c-.18-.19-.22-.884-.241-1.24a9.207 9.207 0 0 0-.009-.14c-.05-.59-.24-1.321-.88-1.471v-.02c.63-.25.94-.88.94-1.541 0-1.23-1.05-1.721-2.11-1.721zm-.19 2.661h-1.32v-1.38h1.25c.44 0 .79.2.79.66s-.25.72-.72.72z" fill="#00AFD8"/><path d="M9.478.5H0v1.931h9.478V.5z" fill="url(#a)"/><path d="M9.478 7.464H0v1.93h9.478v-1.93z" fill="url(#b)"/><path d="M0 3.982h9.478v1.93H0v-1.93z" fill="url(#c)"/><defs><linearGradient id="a" x1="0" y1="4.947" x2="9.478" y2="4.947" gradientUnits="userSpaceOnUse"><stop stop-color="#41E700" stop-opacity="0"/><stop offset=".736" stop-color="#3ACD00"/><stop offset=".781" stop-color="#36BE00"/><stop offset=".926" stop-color="#299100"/><stop offset="1" stop-color="#248000"/></linearGradient><linearGradient id="b" x1="0" y1="4.947" x2="9.478" y2="4.947" gradientUnits="userSpaceOnUse"><stop stop-color="#41E700" stop-opacity="0"/><stop offset=".736" stop-color="#3ACD00"/><stop offset=".781" stop-color="#36BE00"/><stop offset=".926" stop-color="#299100"/><stop offset="1" stop-color="#248000"/></linearGradient><linearGradient id="c" x1="0" y1="4.947" x2="9.478" y2="4.947" gradientUnits="userSpaceOnUse"><stop stop-color="#41E700" stop-opacity="0"/><stop offset=".736" stop-color="#3ACD00"/><stop offset=".781" stop-color="#36BE00"/><stop offset=".926" stop-color="#299100"/><stop offset="1" stop-color="#248000"/></linearGradient></defs></svg>