<svg width="28" height="28" fill="none" xmlns="http://www.w3.org/2000/svg"><path d="M14 2.333C7.557 2.333 2.334 7.556 2.334 14c0 6.443 5.223 11.666 11.666 11.666 6.443 0 11.667-5.223 11.667-11.666 0-6.444-5.224-11.667-11.667-11.667z" stroke="#5E87F1" stroke-width="1.5" stroke-linecap="round" stroke-linejoin="round"/><path d="M6.879 10a8.167 8.167 0 1 0 4.435-3.714" stroke="#5E87F1" stroke-width="1.5" stroke-linecap="round" stroke-linejoin="round"/><path d="M14 2.333v3.5M14 22.167v3.5M3.896 8.167l3.032 1.75M21.073 18.083l3.03 1.75M24.103 8.167l-3.03 1.75M6.927 18.083l-3.031 1.75" stroke="#5E87F1" stroke-width="1.5" stroke-linecap="round"/><path d="M12.927 15.343 9.333 8.166l6.323 4.993a1.77 1.77 0 0 1 .01 2.778 1.805 1.805 0 0 1-2.739-.594z" stroke="#5E87F1" stroke-width="1.5" stroke-linecap="round" stroke-linejoin="round"/></svg>