<svg width="28" height="28" fill="none" xmlns="http://www.w3.org/2000/svg"><path d="M25.667 21c0 1.633 0 2.45-.318 3.074-.28.549-.726.995-1.275 1.275-.624.318-1.44.318-3.074.318-1.633 0-2.45 0-3.074-.318a2.917 2.917 0 0 1-1.275-1.275c-.317-.624-.317-1.44-.317-3.074s0-2.45.317-3.074c.28-.549.726-.995 1.275-1.275.624-.318 1.44-.318 3.074-.318s2.45 0 3.074.318c.55.28.995.726 1.275 1.275.318.624.318 1.44.318 3.074zM25.667 11.667c0 1.633 0 2.45-.318 3.074-.28.549-.726.995-1.275 1.274-.624.318-1.44.318-3.074.318-1.633 0-2.45 0-3.074-.318a2.917 2.917 0 0 1-1.275-1.274c-.317-.624-.317-1.44-.317-3.074s0-2.45.317-3.074c.28-.55.726-.995 1.275-1.275C18.55 7 19.366 7 21 7s2.45 0 3.074.318c.55.28.995.726 1.275 1.275.318.623.318 1.44.318 3.074zM16.333 21c0 1.633 0 2.45-.318 3.074-.28.549-.725.995-1.274 1.275-.624.318-1.44.318-3.074.318s-2.45 0-3.074-.318a2.917 2.917 0 0 1-1.275-1.275C7 23.45 7 22.634 7 21s0-2.45.318-3.074c.28-.549.726-.995 1.275-1.275.623-.318 1.44-.318 3.074-.318 1.633 0 2.45 0 3.074.318.549.28.995.726 1.274 1.275.318.624.318 1.44.318 3.074zM11.667 7c0 1.633 0 2.45-.318 3.074-.28.549-.726.995-1.275 1.275-.624.318-1.44.318-3.074.318-1.633 0-2.45 0-3.074-.318a2.917 2.917 0 0 1-1.275-1.275C2.334 9.45 2.334 8.634 2.334 7s0-2.45.317-3.074c.28-.549.726-.995 1.275-1.275.624-.318 1.44-.318 3.074-.318s2.45 0 3.074.318c.55.28.995.726 1.275 1.275.318.624.318 1.44.318 3.074z" stroke="#5E87F1" stroke-width="1.5"/></svg>