<svg width="28" height="28" fill="none" xmlns="http://www.w3.org/2000/svg"><path d="M3.5 12.834c0-3.3 0-4.95 1.025-5.975C5.55 5.833 7.2 5.833 10.5 5.833h2.333c3.3 0 4.95 0 5.975 1.026 1.025 1.025 1.025 2.675 1.025 5.975v5.833c0 3.3 0 4.95-1.025 5.975-1.025 1.025-2.675 1.025-5.975 1.025H10.5c-3.3 0-4.95 0-5.975-1.025C3.5 23.616 3.5 21.967 3.5 18.667v-5.834z" stroke="#5E87F1" stroke-width="1.5"/><path d="M19.745 22.167c1.278-.715 1.713-2.286 2.583-5.429l1.23-4.444c.87-3.143 1.304-4.714.566-5.952-.738-1.238-2.36-1.659-5.606-2.5l-2.295-.596c-3.246-.842-4.869-1.263-6.147-.549-.91.51-1.393 1.452-1.91 3.087" stroke="#5E87F1" stroke-width="1.5"/><path d="M9.055 13.156c.938-.533 1.757-.319 2.25.024.201.14.302.21.361.21.06 0 .16-.07.362-.21.493-.342 1.312-.557 2.25-.024 1.232.7 1.51 3.007-1.33 4.955-.542.37-.812.556-1.282.556-.469 0-.74-.186-1.28-.556-2.842-1.948-2.563-4.256-1.331-4.955z" stroke="#5E87F1" stroke-width="1.5" stroke-linecap="round"/></svg>