<svg width="28" height="28" fill="none" xmlns="http://www.w3.org/2000/svg"><path d="M2.333 14c0 6.443 5.223 11.667 11.667 11.667 6.443 0 11.666-5.224 11.666-11.667S20.443 2.333 14 2.333c-4.784 0-8.896 2.88-10.696 7M2.333 5.25l.583 4.667L7.583 8.75" stroke="#5E87F1" stroke-width="1.75" stroke-linecap="round" stroke-linejoin="round"/><path d="M17.181 11.737c-.115-.89-1.135-2.327-2.969-2.328-2.13 0-3.027 1.183-3.208 1.774-.284.79-.227 2.416 2.27 2.593 3.121.222 4.372.59 4.213 2.505-.16 1.914-1.9 2.327-3.275 2.283-1.375-.044-3.625-.677-3.712-2.38m3.494-8.602v1.832m0 9.138v1.864" stroke="#5E87F1" stroke-width="1.75" stroke-linecap="round"/></svg>