<svg width="40" height="40" fill="none" xmlns="http://www.w3.org/2000/svg"><path d="M19.167 36.667c-6.679 0-10.018 0-12.092-2.441C5 31.786 5 27.856 5 20 5 12.143 5 8.215 7.075 5.774c2.074-2.44 5.413-2.44 12.092-2.44 6.678 0 10.017 0 12.092 2.44 1.67 1.965 1.995 4.894 2.059 10.06M13.334 13.333H25m-11.666 8.334h5" stroke="#5E87F1" stroke-width="2" stroke-linecap="round" stroke-linejoin="round"/><path d="M32.682 30.176A5.625 5.625 0 0 0 29.375 20h-.416a5.625 5.625 0 0 0-3.308 10.176m7.031 0a5.6 5.6 0 0 1-3.307 1.074h-.416a5.6 5.6 0 0 1-3.308-1.074m7.031 0 .971 3.058c.371 1.166.556 1.75.506 2.113-.106.756-.722 1.317-1.45 1.32-.35.001-.874-.274-1.922-.824-.449-.236-.674-.354-.903-.423a2.478 2.478 0 0 0-1.434 0c-.23.07-.454.187-.904.423-1.047.55-1.572.825-1.921.824-.728-.003-1.345-.564-1.45-1.32-.05-.363.135-.947.505-2.113l.971-3.058" stroke="#5E87F1" stroke-width="2"/></svg>