<svg width="29" height="28" fill="none" xmlns="http://www.w3.org/2000/svg"><path d="M14.2 19.833c-1.952 0-3.652 1.476-4.529 3.653-.42 1.04.182 2.18.981 2.18h7.096c.8 0 1.4-1.14.982-2.18-.878-2.177-2.577-3.653-4.53-3.653z" stroke="#5E87F1" stroke-width="1.5" stroke-linecap="round"/><path d="M21.783 5.833h1.403c1.401 0 2.101 0 2.467.44.365.44.213 1.102-.09 2.423l-.456 1.983c-.686 2.981-3.194 5.198-6.24 5.654M6.617 5.833H5.214c-1.4 0-2.101 0-2.467.44-.365.44-.213 1.102.09 2.423l.457 1.983c.685 2.981 3.194 5.198 6.24 5.654" stroke="#5E87F1" stroke-width="1.5" stroke-linecap="round" stroke-linejoin="round"/><path d="M14.2 19.833c3.524 0 6.492-5.439 7.385-12.844.246-2.048.37-3.071-.284-3.864-.653-.792-1.708-.792-3.819-.792h-6.564c-2.11 0-3.166 0-3.82.792-.653.793-.53 1.816-.283 3.864.893 7.405 3.86 12.844 7.385 12.844z" stroke="#5E87F1" stroke-width="1.5" stroke-linecap="round"/></svg>