<svg width="24" height="24" fill="none" xmlns="http://www.w3.org/2000/svg"><path d="M20 9c-.795-3.985-4.487-7-8.92-7C6.064 2 2 5.855 2 10.61c0 2.285.938 4.36 2.469 5.9.336.34.561.803.47 1.28-.15.78-.489 1.508-.986 2.114a5.946 5.946 0 0 0 3.835-.591c.412-.218.619-.326.764-.348.102-.016.235-.001.448.035" stroke="#5E87F1" stroke-width="1.5" stroke-linecap="round" stroke-linejoin="round"/><path d="M11 16.262c0 2.905 2.463 5.261 5.5 5.261.357 0 .713-.032 1.064-.098.253-.047.379-.071.467-.058.088.014.213.08.463.213.706.376 1.53.509 2.323.361a2.91 2.91 0 0 1-.598-1.291c-.055-.292.081-.575.286-.782A5.122 5.122 0 0 0 22 16.262C22 13.356 19.537 11 16.5 11S11 13.356 11 16.262z" stroke="#5E87F1" stroke-width="1.5" stroke-linejoin="round"/></svg>