<svg width="28" height="28" fill="none" xmlns="http://www.w3.org/2000/svg"><path d="M18.083 15.167c4.189 0 7.584-1.045 7.584-2.334 0-1.288-3.396-2.333-7.584-2.333S10.5 11.545 10.5 12.833c0 1.289 3.395 2.334 7.583 2.334zM25.667 18.084c0 1.288-3.395 2.333-7.584 2.333-4.188 0-7.583-1.045-7.583-2.334" stroke="#5E87F1" stroke-width="1.75"/><path d="M25.667 12.834V23.1c0 1.418-3.395 2.567-7.584 2.567-4.188 0-7.583-1.15-7.583-2.567V12.833M9.916 7C14.104 7 17.5 5.955 17.5 4.667c0-1.289-3.396-2.333-7.584-2.333S2.333 3.377 2.333 4.667C2.333 5.955 5.728 7 9.916 7z" stroke="#5E87F1" stroke-width="1.75"/><path d="M7 12.833c-2.207-.268-4.235-.963-4.667-2.333M7 18.667c-2.207-.269-4.235-.963-4.667-2.334" stroke="#5E87F1" stroke-width="1.75" stroke-linecap="round"/><path d="M7 24.5c-2.207-.269-4.235-.963-4.667-2.334v-17.5M17.5 7V4.667" stroke="#5E87F1" stroke-width="1.75" stroke-linecap="round"/></svg>