<svg width="25" height="24" fill="none" xmlns="http://www.w3.org/2000/svg"><path d="M9.5 15c0-2.828 0-4.243.879-5.121C11.257 9 12.672 9 15.5 9h1c2.828 0 4.243 0 5.121.879.879.878.879 2.293.879 5.121v1c0 2.828 0 4.243-.879 5.121C20.743 22 19.328 22 16.5 22h-1c-2.828 0-4.243 0-5.121-.879C9.5 20.243 9.5 18.828 9.5 16v-1z" stroke="#5E87F1" stroke-width="1.5" stroke-linecap="round" stroke-linejoin="round"/><path d="M17.5 9c-.003-2.957-.047-4.489-.908-5.538a4 4 0 0 0-.554-.554C14.93 2 13.288 2 10 2c-3.287 0-4.931 0-6.038.908a4 4 0 0 0-.554.554C2.5 4.57 2.5 6.212 2.5 9.5c0 3.287 0 4.931.908 6.038a4 4 0 0 0 .554.554c1.05.86 2.58.905 5.538.908" stroke="#5E87F1" stroke-width="1.5" stroke-linecap="round" stroke-linejoin="round"/></svg>