<svg width="28" height="28" fill="none" xmlns="http://www.w3.org/2000/svg"><path d="M2.333 14c0-4.127 0-6.19 1.229-7.568.196-.22.413-.425.647-.61 1.464-1.155 3.656-1.155 8.041-1.155h3.5c4.385 0 6.578 0 8.041 1.156.235.184.451.388.648.609 1.228 1.377 1.228 3.44 1.228 7.568 0 4.127 0 6.19-1.228 7.568-.197.22-.413.424-.648.61-1.463 1.155-3.656 1.155-8.04 1.155h-3.5c-4.386 0-6.578 0-8.042-1.156a5.104 5.104 0 0 1-.647-.609C2.334 20.19 2.334 18.127 2.334 14zM11.666 18.666h1.75M16.916 18.666H21M2.333 10.5h23.334" stroke="#5E87F1" stroke-width="1.5" stroke-linecap="round"/></svg>