<svg width="28" height="28" fill="none" xmlns="http://www.w3.org/2000/svg"><path d="M4.105 12.023c-.453-1.253-.68-1.88-.583-2.28.106-.44.418-.782.817-.897.365-.104.933.148 2.068.653 1.004.446 1.506.67 1.978.657a2.167 2.167 0 0 0 1.417-.59c.36-.335.603-.869 1.087-1.936l1.068-2.35c.891-1.965 1.337-2.947 2.043-2.947.706 0 1.152.982 2.043 2.946l1.068 2.351c.484 1.067.726 1.6 1.087 1.936.398.368.897.576 1.417.59.472.012.974-.21 1.978-.657 1.135-.505 1.703-.757 2.068-.653.4.115.711.457.817.896.096.402-.13 1.028-.583 2.281l-1.946 5.386c-.832 2.304-1.248 3.456-2.12 4.107-.87.65-1.996.65-4.247.65h-3.164c-2.251 0-3.377 0-4.248-.65-.87-.651-1.287-1.803-2.12-4.107l-1.945-5.386z" stroke="#5E87F1" stroke-width="1.5"/><path d="M14 16.333h.01" stroke="#5E87F1" stroke-width="3" stroke-linecap="round" stroke-linejoin="round"/><path d="M8.166 25.667h11.667" stroke="#5E87F1" stroke-width="1.5" stroke-linecap="round"/></svg>