<svg width="28" height="28" fill="none" xmlns="http://www.w3.org/2000/svg"><path d="M19.834 16.105c0-.403 0-.605.06-.784.177-.522.642-.725 1.107-.937.524-.239.786-.358 1.045-.38.295-.023.59.04.842.182.334.187.566.543.805.832 1.1 1.337 1.65 2.006 1.852 2.743a3.427 3.427 0 0 1 0 1.812c-.294 1.075-1.222 1.976-1.908 2.81-.352.427-.527.64-.75.765a1.48 1.48 0 0 1-.84.18c-.26-.02-.522-.14-1.046-.378-.465-.213-.93-.415-1.107-.937-.06-.18-.06-.382-.06-.785v-5.123zM11.084 24.5c1.61 1.555 4.222 1.555 5.833 0M8.167 16.105c0-.508-.014-.964-.425-1.32-.15-.13-.347-.22-.743-.401-.524-.239-.786-.358-1.045-.379-.779-.063-1.197.468-1.646 1.014-1.101 1.336-1.651 2.005-1.853 2.742a3.427 3.427 0 0 0 0 1.811c.294 1.076 1.222 1.977 1.909 2.81.433.526.846 1.006 1.59.946.26-.02.521-.14 1.045-.379.396-.18.594-.27.743-.4.41-.357.425-.813.425-1.321v-5.123z" stroke="#5E87F1" stroke-width="1.5" stroke-linecap="round" stroke-linejoin="round"/><path d="M2.333 18.667V14C2.333 7.557 7.558 2.334 14 2.334S25.667 7.557 25.667 14v4.667" stroke="#5E87F1" stroke-width="1.5" stroke-linecap="round" stroke-linejoin="round"/></svg>