<svg width="28" height="28" fill="none" xmlns="http://www.w3.org/2000/svg"><path d="M14 24.5c4.375 0 6.562 0 8.095-1.114.496-.36.931-.795 1.29-1.29C24.5 20.561 24.5 18.374 24.5 14s0-6.562-1.114-8.095a5.834 5.834 0 0 0-1.29-1.29C20.561 3.5 18.374 3.5 14 3.5s-6.562 0-8.095 1.114c-.496.36-.931.795-1.29 1.29C3.5 7.439 3.5 9.626 3.5 14s0 6.562 1.114 8.095c.36.496.795.931 1.29 1.29C7.439 24.5 9.626 24.5 14 24.5z" stroke="#5E87F1" stroke-width="1.5" stroke-linecap="round" stroke-linejoin="round"/><path d="M14 14v.012M18.666 9.333v.012M9.334 18.667v.011M9.334 9.333v.012M18.666 18.667v.011" stroke="#5E87F1" stroke-width="3" stroke-linecap="round" stroke-linejoin="round"/></svg>