<svg width="50" height="9" fill="none" xmlns="http://www.w3.org/2000/svg"><path fill-rule="evenodd" clip-rule="evenodd" d="M46.317.185c1.815 0 2.813.808 2.813 2.333a2.182 2.182 0 0 1-1.815 2.333l2.45 3.32H47.86l-2.087-3.23h-.181v3.23h-1.543V.185h2.268zm-.725 3.679h.453c.998 0 1.452-.449 1.452-1.256 0-.718-.454-1.167-1.452-1.167h-.453v2.423zM38.696 8.17h4.355V6.825H40.24V4.67h2.721V3.326H40.24V1.53h2.812V.185h-4.355v7.986zM34.16 5.569 32.073.185H30.44l3.357 8.165h.817L37.97.185h-1.633L34.16 5.57zM15.742 4.223c0 2.243 1.815 4.127 4.083 4.127.726 0 1.36-.18 1.996-.449V6.107c-.454.538-1.089.897-1.815.897-1.451 0-2.63-1.076-2.63-2.512v-.18c-.091-1.435 1.088-2.691 2.54-2.781.726 0 1.451.359 1.905.897V.634c-.544-.36-1.27-.449-1.905-.449-2.36-.18-4.174 1.705-4.174 4.038zm-2.812-.987c-.908-.36-1.18-.539-1.18-.987.09-.539.545-.987 1.089-.897.454 0 .907.269 1.27.628l.817-1.077C14.29.365 13.474.006 12.658.006c-1.27-.09-2.36.897-2.45 2.153v.09c0 1.077.454 1.705 1.905 2.153.363.09.726.27 1.089.449.272.18.454.448.454.807 0 .628-.545 1.167-1.09 1.167h-.09c-.726 0-1.36-.449-1.633-1.077l-.998.987c.544.987 1.633 1.525 2.722 1.525 1.451.09 2.63-.987 2.722-2.422v-.27c-.091-1.076-.545-1.614-2.36-2.332zM7.667 8.17H9.21V.185H7.667v7.986zM.5.185h2.722c2.177.09 3.901 1.884 3.81 4.038 0 1.166-.544 2.243-1.451 3.05-.817.628-1.815.987-2.813.898H.5V.185zm1.996 6.64c.726.09 1.542-.18 2.087-.628.544-.539.816-1.256.816-2.064 0-.718-.272-1.436-.816-1.974-.545-.448-1.361-.718-2.087-.628h-.454v5.294h.454z" fill="#000"/><path fill-rule="evenodd" clip-rule="evenodd" d="M26.448 0c-2.268 0-4.173 1.795-4.173 4.127 0 2.243 1.814 4.128 4.173 4.217 2.359.09 4.174-1.794 4.264-4.127C30.622 1.884 28.807 0 26.448 0z" fill="#FD6020"/></svg>