<svg width="28" height="28" fill="none" xmlns="http://www.w3.org/2000/svg"><path d="M25.667 14c0 6.443-5.224 11.667-11.667 11.667S2.334 20.443 2.334 14 7.557 2.334 14 2.334c6.443 0 11.667 5.223 11.667 11.666z" stroke="#5E87F1" stroke-width="1.5"/><path d="M13.659 10.907a.562.562 0 0 1 .682 0l2.628 1.99a.619.619 0 0 1 .21.675l-1.003 3.219a.583.583 0 0 1-.552.417h-3.248a.583.583 0 0 1-.552-.417l-1.004-3.22a.619.619 0 0 1 .21-.675l2.629-1.99z" stroke="#5E87F1" stroke-width="1.5"/><path d="M14 10.5V5.833m3.5 7 4.667-1.75M16.333 17.5l2.334 3.5m-7-4.083-2.333 2.916m1.166-6.416L5.833 12.25" stroke="#5E87F1" stroke-width="1.5" stroke-linecap="round" stroke-linejoin="round"/><path d="m10.5 2.917 3.52 2.476 3.48-2.476M2.334 14.933l3.729-2.755L4.148 7.84m18.567 14.155-4.496-.814-1.576 4.485m6.725-18.438-1.43 3.727 3.729 2.754M9.345 24.973l.048-4.946-4.722.051" stroke="#5E87F1" stroke-width="1.5" stroke-linejoin="round"/></svg>