<svg width="138" height="48" fill="none" xmlns="http://www.w3.org/2000/svg"><g opacity=".4" fill="#fff"><path d="M52.086 19.228c.092.347-.023.555-.299.647l-2.644.786c-.322.092-.483 0-.598-.324-.414-1.363-1.288-2.08-2.92-2.08-2.484 0-3.335 1.48-3.335 3.467v4.575c0 1.987.828 3.466 3.334 3.466 2.047 0 3.128-.947 3.128-3.05v-.6h-2.69c-.23 0-.369-.116-.369-.394V23.18a.359.359 0 0 1 .322-.393H52.041c.252 0 .39.115.39.37v3.79c0 3.604-2.644 6.33-6.76 6.33-4.876 0-7.152-2.91-7.152-6.885v-4.83c0-3.975 2.276-6.886 7.151-6.886 3.933.023 5.703 2.287 6.416 4.552zm13.407 4.506v8.874c.023.184-.138.346-.322.37H62.435a.358.358 0 0 1-.391-.324v-1.502a4.25 4.25 0 0 1-3.726 2.103c-2.552 0-4.185-1.641-4.185-4.183 0-2.473 1.54-3.928 5.312-4.206.805-.069 1.633-.069 2.46-.023v-.993c0-1.318-.69-1.849-1.862-1.849-1.196 0-1.54.485-1.863 1.248-.115.3-.23.347-.483.277l-2.69-.693c-.276-.07-.3-.231-.253-.416.368-1.941 2.208-3.374 5.427-3.374 3.403.023 5.312 1.664 5.312 4.691zm-3.587 4.668v-1.294c-.713-.023-1.45 0-2.162.07-1.38.161-2.093.6-2.093 1.64 0 .947.644 1.479 1.68 1.479 1.195 0 2.138-.647 2.575-1.895zm13.291-9.336c1.702 0 2.829 1.017 3.358 2.473 1.012-1.479 2.23-2.473 3.932-2.473 2.369 0 3.726 1.895 3.726 4.714v8.828c0 .23-.207.37-.437.37H82.97c-.253 0-.437-.14-.437-.37v-8.18c0-1.225-.529-1.965-1.495-1.965-1.011 0-1.747.832-2.092 2.103v8.042c.023.184-.138.346-.322.37h-3.059c-.23 0-.322-.14-.322-.37v-8.18c0-1.225-.551-1.965-1.494-1.965-1.035 0-1.771.878-2.093 2.15v8.018a.336.336 0 0 1-.299.37h-3.035a.335.335 0 0 1-.368-.301V19.736c0-.184.16-.346.345-.346h2.874c.184-.023.345.115.368.323V21.285c.782-1.156 1.955-2.219 3.656-2.219zm26.4.3c.069.324-.023.555-.322.648l-2.599.762c-.321.093-.482-.023-.597-.323-.368-1.225-1.012-2.219-2.806-2.219-2.23 0-2.943 1.48-2.943 3.467v4.575c0 1.987.805 3.466 2.943 3.466 1.909 0 2.645-1.086 2.944-2.426.069-.3.276-.44.597-.324l2.599.832c.299.093.391.324.322.647-.621 2.658-2.53 4.83-6.485 4.83-4.461 0-6.692-2.912-6.692-6.886v-4.83c0-3.975 2.3-6.886 6.692-6.886 3.864 0 5.68 2.057 6.347 4.668zm13.039 4.368v8.874c.023.184-.138.346-.322.37H111.577a.358.358 0 0 1-.391-.324v-1.502a4.247 4.247 0 0 1-3.725 2.103c-2.552 0-4.185-1.641-4.185-4.183 0-2.473 1.541-3.928 5.312-4.206.805-.069 1.633-.069 2.46-.023v-.993c0-1.318-.689-1.849-1.862-1.849-1.196 0-1.541.485-1.863 1.248-.115.3-.23.347-.483.277l-2.69-.693c-.276-.07-.299-.231-.253-.416.368-1.941 2.207-3.374 5.427-3.374 3.403.023 5.312 1.664 5.312 4.691zm-3.611 4.668v-1.294c-.712-.023-1.448 0-2.161.07-1.38.161-2.093.6-2.093 1.64 0 .947.644 1.479 1.679 1.479 1.219 0 2.139-.647 2.575-1.895zm14.074-8.781v2.634c0 .324-.115.44-.437.44h-.391c-1.954 0-3.104.877-3.495 2.356v7.58a.336.336 0 0 1-.299.37h-3.105c-.184 0-.322-.162-.322-.347V19.713c0-.184.138-.346.299-.346H120.178c.299 0 .368.185.368.392v1.826c.644-1.201 1.84-2.38 3.932-2.38.529 0 .621.07.621.416zm4.806 7.695v.508c0 1.433.736 2.427 2.461 2.427 1.679 0 2.162-.647 2.598-1.456.23-.37.322-.416.713-.254l1.932.993c.391.208.414.393.253.763-.828 1.895-2.921 2.98-5.496 2.98-3.909 0-5.979-2.333-5.979-5.522v-3.143c0-3.096 1.932-5.523 5.933-5.523 3.817 0 5.68 2.427 5.68 5.454v2.172c0 .37-.115.624-.644.624l-7.451-.023zm0-2.889v.463h4.715v-.463c0-1.317-.736-2.357-2.346-2.357s-2.369 1.04-2.369 2.357zM16.925 4H.505A.512.512 0 0 0 0 4.508v23.986C0 37.044 6.899 44 15.43 44h1.495c8.509 0 15.408-6.932 15.408-15.506v-8.988C32.356 10.932 25.457 4 16.925 4zm10.486 24.749c0 5.823-4.277 10.237-10.9 10.237-7.864 0-11.544-4.691-11.544-11.115v-7.788c0-6.424 3.68-11.115 11.544-11.115 6.37 0 9.245 3.651 10.395 7.302.16.555-.046.878-.483 1.04l-4.278 1.271c-.506.162-.782 0-.942-.508-.667-2.196-2.093-3.374-4.692-3.374-4.024 0-5.38 2.38-5.38 5.592v7.395c0 3.212 1.333 5.592 5.38 5.592 3.312 0 5.06-1.548 5.06-4.922v-.948h-4.416c-.345 0-.598-.207-.598-.623v-4.09c0-.393.23-.648.598-.648h9.636c.39 0 .62.208.62.601v6.1z"/></g></svg>