<svg width="28" height="28" fill="none" xmlns="http://www.w3.org/2000/svg"><path d="M4.667 12.834V17.5c0 3.85 0 5.775 1.195 6.97 1.196 1.197 3.121 1.197 6.971 1.197h2.333c3.85 0 5.775 0 6.971-1.196 1.196-1.196 1.196-3.121 1.196-6.97v-4.668M3.5 10.5c0-.872 0-1.309.234-1.633.154-.213.375-.39.641-.513.406-.188.951-.188 2.042-.188h15.166c1.09 0 1.636 0 2.042.188.266.123.487.3.64.513.235.324.235.76.235 1.633 0 .872 0 1.308-.235 1.633-.153.213-.374.39-.64.513-.406.187-.951.187-2.042.187H6.417c-1.09 0-1.636 0-2.042-.187a1.622 1.622 0 0 1-.64-.513c-.235-.325-.235-.76-.235-1.633z" stroke="#5E87F1" stroke-width="1.5"/><path d="M7 4.417c0-1.15.933-2.083 2.083-2.083H9.5a4.5 4.5 0 0 1 4.5 4.5v1.333h-3.25A3.75 3.75 0 0 1 7 4.417zM21 4.417c0-1.15-.933-2.083-2.083-2.083H18.5a4.5 4.5 0 0 0-4.5 4.5v1.333h3.25A3.75 3.75 0 0 0 21 4.417zM14 12.834v12.833" stroke="#5E87F1" stroke-width="1.5"/></svg>