<svg width="42" height="18" fill="none" xmlns="http://www.w3.org/2000/svg"><path fill-rule="evenodd" clip-rule="evenodd" d="M19.255 13.947V8.902h2.604c1.067 0 1.968-.357 2.702-1.062l.176-.18a3.632 3.632 0 0 0-.176-5.084 3.716 3.716 0 0 0-2.702-1.082h-4.18v12.453h1.576zm0-6.574v-4.35H21.9c.568 0 1.106.218 1.508.616.851.834.871 2.224.049 3.088-.402.427-.97.666-1.557.646h-2.643zM32.089 6.092c-.676-.626-1.596-.944-2.761-.944-1.498 0-2.623.556-3.367 1.659l1.39.884c.509-.755 1.204-1.133 2.085-1.133.558 0 1.096.209 1.517.586.411.358.646.874.646 1.42v.368c-.607-.338-1.37-.516-2.31-.516-1.097 0-1.978.258-2.633.784-.656.526-.989 1.222-.989 2.106a2.65 2.65 0 0 0 .93 2.085c.617.556 1.4.834 2.32.834 1.086 0 1.948-.486 2.604-1.46h.068v1.182h1.508V8.694c0-1.103-.333-1.977-1.008-2.602zm-4.278 6.286a1.295 1.295 0 0 1-.519-1.043c0-.467.216-.854.636-1.162.431-.308.97-.466 1.606-.466.881-.01 1.567.188 2.056.585 0 .676-.264 1.262-.783 1.758a2.486 2.486 0 0 1-1.772.745c-.44.01-.872-.139-1.224-.417z" fill="#3C4043"/><path d="M36.484 17.691 41.75 5.426h-1.713L37.6 11.544h-.03l-2.496-6.118h-1.713l3.456 7.975-1.958 4.29h1.625z" fill="#3C4043"/><path d="M13.814 7.81c0-.487-.039-.974-.117-1.45H7.05v2.75h3.808a3.315 3.315 0 0 1-1.41 2.176v1.787h2.272c1.33-1.241 2.094-3.078 2.094-5.263z" fill="#4285F4"/><path d="M7.05 14.801c1.9 0 3.505-.635 4.67-1.728l-2.271-1.787c-.637.437-1.449.685-2.398.685-1.84 0-3.397-1.261-3.955-2.95H.756v1.847a7.03 7.03 0 0 0 6.295 3.933z" fill="#34A853"/><path d="M3.096 9.021a4.373 4.373 0 0 1 0-2.74V4.442H.756a7.18 7.18 0 0 0 0 6.416l2.34-1.838z" fill="#FBBC04"/><path d="M7.05 3.33a3.764 3.764 0 0 1 2.702 1.073l2.017-2.045A6.75 6.75 0 0 0 7.05.5C4.388.5 1.95 2.03.756 4.443l2.34 1.847C3.654 4.592 5.21 3.33 7.05 3.33z" fill="#EA4335"/></svg>