<svg width="40" height="40" fill="none" xmlns="http://www.w3.org/2000/svg"><path d="M10.149 24.998a11.432 11.432 0 0 1-.982-4.657c0-6.172 4.85-11.176 10.833-11.176 5.983 0 10.833 5.004 10.833 11.177 0 1.662-.351 3.239-.982 4.656" stroke="#5E87F1" stroke-width="2" stroke-linecap="round"/><path d="M20 3.332v1.666M36.667 19.998H35M5 19.998H3.333M31.784 8.213 30.606 9.39M9.395 9.393 8.216 8.215M24.195 32.176c1.684-.545 2.36-2.086 2.55-3.637.056-.463-.325-.847-.792-.847H14.128c-.483 0-.87.41-.813.89.186 1.547.656 2.677 2.44 3.594m8.44 0h-8.44m8.44 0c-.203 3.242-1.139 4.525-4.184 4.49-3.257.06-4.006-1.527-4.255-4.49" stroke="#5E87F1" stroke-width="2" stroke-linecap="round" stroke-linejoin="round"/></svg>