<svg width="184" height="32" fill="none" xmlns="http://www.w3.org/2000/svg"><path d="M176.105 2.183H184v20.165c-.01 1.915-.495 3.6-1.455 5.056-.951 1.446-2.267 2.576-3.948 3.39C176.926 31.598 175 32 172.82 32c-1.892 0-3.621-.326-5.187-.977a8.238 8.238 0 0 1-3.746-3.102c-.932-1.417-1.393-3.255-1.383-5.515h8.011c.028.737.153 1.36.374 1.867.231.507.548.89.951 1.149.413.249.913.373 1.498.373.596 0 1.095-.129 1.499-.388.413-.258.725-.641.936-1.148.212-.518.322-1.154.332-1.91V2.182zM146.76 31.598h-11.353V2.183h11.238c3.035 0 5.657.589 7.866 1.767a12.18 12.18 0 0 1 5.129 5.055c1.21 2.193 1.816 4.821 1.816 7.885s-.601 5.698-1.801 7.9a12.34 12.34 0 0 1-5.101 5.056c-2.199 1.168-4.797 1.752-7.794 1.752zm-3.343-6.78h3.055c1.46 0 2.704-.234 3.731-.703 1.038-.47 1.825-1.278 2.363-2.427.548-1.15.821-2.748.821-4.797 0-2.05-.278-3.649-.835-4.798-.548-1.149-1.355-1.958-2.421-2.427-1.056-.47-2.353-.704-3.89-.704h-2.824V24.82zM122.044 32c-2.402 0-4.457-.474-6.167-1.422-1.709-.957-3.021-2.288-3.933-3.993-.912-1.714-1.369-3.7-1.369-5.96s.457-4.242 1.369-5.946a9.68 9.68 0 0 1 3.933-3.993c1.71-.958 3.765-1.436 6.167-1.436 2.401 0 4.456.478 6.166 1.436a9.674 9.674 0 0 1 3.933 3.993c.913 1.704 1.369 3.686 1.369 5.946s-.456 4.246-1.369 5.96c-.912 1.705-2.223 3.036-3.933 3.993-1.71.948-3.765 1.422-6.166 1.422zm.057-5.86c.673 0 1.254-.225 1.744-.675.489-.45.869-1.092 1.138-1.925.269-.833.403-1.824.403-2.973 0-1.158-.134-2.15-.403-2.973-.269-.833-.649-1.474-1.138-1.924a2.49 2.49 0 0 0-1.744-.675c-.71 0-1.32.225-1.829.675-.51.45-.899 1.091-1.167 1.924-.269.824-.404 1.815-.404 2.973 0 1.15.135 2.14.404 2.973.268.833.657 1.475 1.167 1.925.509.45 1.119.675 1.829.675zM94.323 19.189v12.409H86.37V9.537h7.55v4.194h.23c.48-1.398 1.326-2.495 2.536-3.29 1.22-.794 2.641-1.191 4.265-1.191 1.565 0 2.924.359 4.077 1.077 1.162.708 2.06 1.685 2.694 2.93.644 1.245.961 2.666.951 4.266v14.075h-7.953v-12.41c.01-1.091-.269-1.948-.835-2.57-.558-.623-1.336-.934-2.334-.934-.654 0-1.225.144-1.715.43-.48.279-.85.68-1.11 1.207-.259.517-.393 1.14-.403 1.867zM75.582 31.598V9.537h7.954v22.06h-7.954zm3.977-24.36c-1.076 0-1.998-.354-2.766-1.062-.769-.709-1.153-1.56-1.153-2.557 0-.995.384-1.848 1.153-2.556C77.56.354 78.483 0 79.559 0c1.085 0 2.007.354 2.766 1.063.769.708 1.153 1.56 1.153 2.556s-.384 1.848-1.153 2.557c-.759.708-1.68 1.063-2.766 1.063zM73.176 16.718h-7.319a2.005 2.005 0 0 0-.475-1.163 2.668 2.668 0 0 0-1.08-.747 3.68 3.68 0 0 0-1.442-.273c-.681 0-1.267.124-1.757.373-.49.25-.73.604-.72 1.063-.01.326.129.628.417.905.298.278.87.493 1.715.646l4.495.805c2.267.411 3.952 1.106 5.057 2.082 1.114.967 1.676 2.265 1.686 3.893-.01 1.57-.48 2.934-1.412 4.093-.922 1.149-2.186 2.04-3.79 2.671-1.594.623-3.414.934-5.46.934-3.381 0-6.027-.69-7.939-2.068-1.901-1.379-2.963-3.198-3.184-5.458h7.896c.105.699.451 1.24 1.037 1.623.595.373 1.345.56 2.248.56.73 0 1.33-.124 1.8-.373.48-.25.726-.604.735-1.063-.01-.422-.22-.757-.634-1.006-.403-.248-1.037-.45-1.901-.603l-3.92-.69c-2.256-.392-3.947-1.139-5.07-2.24-1.124-1.1-1.682-2.518-1.672-4.251-.01-1.532.394-2.83 1.21-3.892.826-1.073 2.003-1.887 3.53-2.442 1.537-.565 3.357-.847 5.46-.847 3.199 0 5.72.66 7.564 1.982 1.854 1.321 2.83 3.15 2.925 5.486zM36.361 31.943c-1.412 0-2.66-.23-3.746-.69-1.076-.469-1.92-1.178-2.536-2.125-.614-.948-.922-2.155-.922-3.62 0-1.206.207-2.236.62-3.088a5.566 5.566 0 0 1 1.729-2.111c.74-.546 1.6-.963 2.579-1.25a15.68 15.68 0 0 1 3.198-.56c1.24-.096 2.233-.21 2.983-.345.758-.143 1.306-.34 1.642-.588.336-.259.504-.599.504-1.02v-.058c0-.574-.22-1.015-.662-1.321-.442-.306-1.009-.46-1.7-.46-.76 0-1.379.168-1.86.503-.47.326-.753.828-.85 1.508h-7.318a7.502 7.502 0 0 1 1.282-3.705c.769-1.14 1.887-2.05 3.357-2.73 1.47-.689 3.304-1.033 5.504-1.033 1.585 0 3.006.186 4.264.56 1.259.364 2.33.876 3.213 1.537.884.65 1.556 1.417 2.017 2.298.47.87.706 1.819.706 2.843v15.11h-7.434v-3.102h-.173c-.442.823-.98 1.489-1.614 1.996a5.945 5.945 0 0 1-2.146 1.106c-.797.23-1.676.345-2.637.345zm2.594-4.999c.605 0 1.171-.124 1.7-.373a3.274 3.274 0 0 0 1.31-1.077c.337-.47.505-1.04.505-1.71v-1.838a9.25 9.25 0 0 1-.677.244 13.839 13.839 0 0 1-1.585.402c-.288.058-.59.11-.908.159-.614.095-1.119.253-1.512.473-.385.211-.673.474-.865.79a1.982 1.982 0 0 0-.274 1.035c0 .612.216 1.082.649 1.407.432.326.984.488 1.657.488zM27.662 13.214h-8.125a5.482 5.482 0 0 0-.461-1.824 4.119 4.119 0 0 0-1.009-1.408 4.209 4.209 0 0 0-1.542-.92c-.605-.22-1.291-.33-2.06-.33-1.345 0-2.483.326-3.415.977-.921.651-1.623 1.585-2.103 2.8-.47 1.217-.706 2.677-.706 4.381 0 1.8.24 3.309.72 4.525.49 1.206 1.196 2.116 2.118 2.729.922.603 2.032.904 3.329.904.74 0 1.402-.09 1.988-.272a4.67 4.67 0 0 0 1.527-.82c.432-.353.783-.78 1.052-1.277a5.123 5.123 0 0 0 .562-1.71l8.125.058c-.096 1.245-.446 2.513-1.051 3.806-.605 1.283-1.465 2.47-2.58 3.562-1.104 1.082-2.473 1.953-4.105 2.614-1.633.66-3.53.991-5.691.991-2.709 0-5.14-.58-7.29-1.738-2.143-1.159-3.838-2.863-5.086-5.113C.619 22.899 0 20.146 0 16.89c0-3.274.634-6.032 1.902-8.272 1.268-2.25 2.977-3.95 5.129-5.1 2.151-1.158 4.553-1.737 7.204-1.737 1.863 0 3.578.254 5.143.761 1.566.508 2.94 1.25 4.12 2.226a11.002 11.002 0 0 1 2.853 3.577c.72 1.417 1.158 3.04 1.311 4.869z" fill="#fff"/></svg>