<svg width="40" height="26" fill="none" xmlns="http://www.w3.org/2000/svg"><path d="M40 12.86c0 6.833-5.528 12.361-12.36 12.361-2.885 0-5.528-.996-7.623-2.644a12.29 12.29 0 0 0 4.704-9.717c0-3.948-1.854-7.45-4.704-9.716A12.285 12.285 0 0 1 27.64.5C34.471.5 40 6.062 40 12.86z" fill="#F79E1B"/><path d="M20.017 3.144c2.85 2.266 4.704 5.768 4.704 9.716 0 3.949-1.82 7.451-4.704 9.717h-.034a12.342 12.342 0 0 1-4.704-9.716c0-3.949 1.854-7.451 4.704-9.717h.034z" fill="#FF5F00"/><path d="M15.279 12.86c0-3.948 1.854-7.45 4.704-9.716A12.285 12.285 0 0 0 12.36.5C5.529.5 0 6.028 0 12.86c0 6.833 5.528 12.361 12.36 12.361 2.885 0 5.528-.996 7.623-2.644a12.342 12.342 0 0 1-4.704-9.716z" fill="#EB001B"/></svg>