<svg width="28" height="28" fill="none" xmlns="http://www.w3.org/2000/svg"><path d="M16.532 24.372c4.88-.324 8.768-4.267 9.088-9.216a23.04 23.04 0 0 0 0-2.94c-.32-4.95-4.207-8.892-9.088-9.217a38.712 38.712 0 0 0-5.064 0c-4.88.325-8.768 4.267-9.088 9.217a23.043 23.043 0 0 0 0 2.94c.117 1.803.914 3.472 1.853 4.88.545.987.185 2.219-.383 3.295-.409.775-.614 1.163-.45 1.443.165.28.532.29 1.266.307 1.452.035 2.43-.376 3.208-.95.44-.324.66-.487.813-.505.151-.019.45.104 1.048.35.537.222 1.16.358 1.733.396 1.661.11 3.4.11 5.064 0z" stroke="#5E87F1" stroke-width="1.5"/><path d="M13.995 14h.01m4.65 0h.011m-9.333 0h.01" stroke="#5E87F1" stroke-width="2.5" stroke-linecap="round" stroke-linejoin="round"/></svg>