<svg width="28" height="28" fill="none" xmlns="http://www.w3.org/2000/svg"><path d="M24.433 19.641c-.765-4.607-3.15-8.037-5.221-10.052-.604-.587-.905-.88-1.571-1.151-.666-.272-1.239-.272-2.384-.272h-2.514c-1.145 0-1.718 0-2.384.272-.666.271-.967.564-1.57 1.15-2.073 2.016-4.456 5.446-5.222 10.053-.57 3.428 2.592 6.026 6.126 6.026h8.614c3.534 0 6.696-2.598 6.126-6.026z" stroke="#5E87F1" stroke-width="1.75" stroke-linecap="round" stroke-linejoin="round"/><path d="M8.466 5.184c-.24-.35-.59-.826.131-.935.741-.111 1.51.396 2.263.385.681-.009 1.028-.311 1.4-.742.393-.455 1-1.558 1.74-1.558s1.348 1.103 1.74 1.558c.372.43.72.733 1.4.742.753.01 1.522-.496 2.263-.385.72.109.372.584.131.935l-1.088 1.584c-.466.677-.698 1.016-1.186 1.207-.487.192-1.116.192-2.375.192h-1.77c-1.258 0-1.888 0-2.375-.192-.487-.191-.72-.53-1.185-1.207L8.466 5.184z" stroke="#5E87F1" stroke-width="1.75" stroke-linejoin="round"/><path d="M15.898 15.072c-.253-.931-1.537-1.772-3.078-1.143-1.54.628-1.785 2.65.546 2.866 1.053.097 1.74-.113 2.369.48a1.617 1.617 0 0 1-.862 2.689c-1.608.445-3.2-.25-3.373-1.237m2.315-5.902v.887m0 6.389v.89" stroke="#5E87F1" stroke-width="1.75" stroke-linecap="round" stroke-linejoin="round"/></svg>