<svg width="28" height="28" fill="none" xmlns="http://www.w3.org/2000/svg"><path d="M5.207 5.25c-.371.15-.7.337-.998.573-.234.185-.45.388-.647.609C2.334 7.809 2.334 9.872 2.334 14c0 4.127 0 6.19 1.228 7.568.196.22.413.424.647.61 1.464 1.155 3.656 1.155 8.041 1.155h3.5c3.491 0 5.55 0 7-.583M9.334 4.685c.848-.018 1.813-.018 2.916-.018h3.5c4.385 0 6.578 0 8.041 1.156.235.185.451.389.648.609C25.667 7.81 25.667 9.873 25.667 14c0 2.698 0 4.515-.343 5.834" stroke="#5E87F1" stroke-width="1.5" stroke-linecap="round" stroke-linejoin="round"/><path d="M21.595 14h-.01M6.417 14h-.01" stroke="#5E87F1" stroke-width="2.5" stroke-linecap="round" stroke-linejoin="round"/><path d="M16.034 16.033a2.917 2.917 0 1 1-4.124-4.124M2.333 2.333l23.334 23.333" stroke="#5E87F1" stroke-width="1.5" stroke-linecap="round"/></svg>