<svg width="29" height="28" fill="none" xmlns="http://www.w3.org/2000/svg"><path d="M21.6 7c1.517.15 2.538.49 3.3 1.256 1.367 1.376 1.367 3.59 1.367 8.018 0 4.428 0 6.642-1.367 8.017-1.367 1.376-3.567 1.376-7.966 1.376h-4.667c-4.4 0-6.6 0-7.967-1.376-1.366-1.375-1.366-3.59-1.366-8.017 0-4.428 0-6.642 1.366-8.018C5.062 7.49 6.083 7.15 7.6 7" stroke="#5E87F1" stroke-width="1.5" stroke-linecap="round"/><path d="M22.193 16.333h-.01M7.026 16.333h-.01" stroke="#5E87F1" stroke-width="2" stroke-linecap="round" stroke-linejoin="round"/><path d="M17.517 16.333a2.917 2.917 0 1 1-5.833 0 2.917 2.917 0 0 1 5.833 0z" stroke="#5E87F1" stroke-width="1.5"/><path d="M11.684 5.25c.573-.59 2.1-2.917 2.916-2.917m0 0c.817 0 2.344 2.327 2.917 2.917M14.6 2.333v7" stroke="#5E87F1" stroke-width="1.5" stroke-linecap="round" stroke-linejoin="round"/></svg>