<svg width="28" height="28" fill="none" xmlns="http://www.w3.org/2000/svg"><path d="M25.666 12.833c0-4.127 0-6.19-1.228-7.568a5.106 5.106 0 0 0-.647-.609C22.327 3.5 20.135 3.5 15.75 3.5h-3.5c-4.385 0-6.578 0-8.042 1.156-.234.185-.45.389-.647.609-1.228 1.378-1.228 3.441-1.228 7.568s0 6.19 1.228 7.569c.197.22.413.424.647.609 1.464 1.156 3.657 1.156 8.042 1.156H14" stroke="#5E87F1" stroke-width="1.75" stroke-linecap="round" stroke-linejoin="round"/><path d="M21.583 24.5v-8.166M17.5 20.416h8.167" stroke="#5E87F1" stroke-width="1.75" stroke-linecap="round"/><path d="M6.416 12.834h-.01" stroke="#5E87F1" stroke-width="2.333" stroke-linecap="round" stroke-linejoin="round"/><path d="M16.916 12.833a2.917 2.917 0 1 1-5.833 0 2.917 2.917 0 0 1 5.833 0z" stroke="#5E87F1" stroke-width="1.75"/></svg>