<svg width="29" height="28" fill="none" xmlns="http://www.w3.org/2000/svg"><path d="M21.4 7c1.517.15 2.538.49 3.3 1.256 1.367 1.376 1.367 3.59 1.367 8.018 0 4.428 0 6.642-1.367 8.017-1.367 1.376-3.567 1.376-7.967 1.376h-4.666c-4.4 0-6.6 0-7.967-1.376-1.367-1.375-1.367-3.59-1.367-8.017 0-4.428 0-6.642 1.367-8.018C4.862 7.49 5.883 7.15 7.4 7" stroke="#5E87F1" stroke-width="1.5" stroke-linecap="round"/><path d="M11.483 6.417c.574.59 2.1 2.916 2.917 2.916m0 0c.817 0 2.343-2.326 2.917-2.916M14.4 9.333v-7" stroke="#5E87F1" stroke-width="1.5" stroke-linecap="round" stroke-linejoin="round"/><path d="M21.99 16.333h-.008M6.824 16.333h-.009" stroke="#5E87F1" stroke-width="2" stroke-linecap="round" stroke-linejoin="round"/><path d="M17.317 16.333a2.917 2.917 0 1 1-5.833 0 2.917 2.917 0 0 1 5.833 0z" stroke="#5E87F1" stroke-width="1.5"/></svg>