<svg width="28" height="28" fill="none" xmlns="http://www.w3.org/2000/svg"><path d="m22.556 16.333.96.884c.21.206.314.309.277.396-.037.087-.185.087-.48.087H19.69c-1.854 0-3.357 1.477-3.357 3.3 0 .41.076.804.215 1.166m2.896 3.5-.96-.884c-.21-.205-.314-.308-.278-.395.037-.088.185-.088.48-.088h3.622c1.855 0 3.358-1.477 3.358-3.3 0-.41-.077-.803-.216-1.166" stroke="#5E87F1" stroke-width="1.5" stroke-linecap="round" stroke-linejoin="round"/><path d="M25.657 13.416c.01-.7.01-.892.01-1.75 0-4.4 0-6.6-1.367-7.966-1.367-1.367-3.567-1.367-7.966-1.367h-4.667c-4.4 0-6.6 0-7.967 1.367s-1.367 3.567-1.367 7.966c0 4.4 0 6.6 1.367 7.967S7.267 21 11.667 21h1.167" stroke="#5E87F1" stroke-width="1.5" stroke-linecap="round"/><path d="M21.583 11.667h-.01M6.417 11.667h-.01" stroke="#5E87F1" stroke-width="2.5" stroke-linecap="round" stroke-linejoin="round"/><path d="M16.917 11.667a2.917 2.917 0 1 1-5.833 0 2.917 2.917 0 0 1 5.833 0z" stroke="#5E87F1" stroke-width="1.5"/></svg>