<svg width="38" height="11" fill="none" xmlns="http://www.w3.org/2000/svg"><path fill-rule="evenodd" clip-rule="evenodd" d="M4.534.001H1.595a.408.408 0 0 0-.403.345L.003 7.88a.245.245 0 0 0 .242.283H1.65a.408.408 0 0 0 .403-.345l.32-2.032a.408.408 0 0 1 .404-.345h.93c1.936 0 3.054-.937 3.346-2.793.131-.813.005-1.45-.375-1.898-.418-.49-1.159-.75-2.143-.75zm.34 2.752c-.161 1.055-.967 1.055-1.746 1.055h-.444l.311-1.97a.245.245 0 0 1 .242-.206h.204c.53 0 1.031 0 1.29.302.154.18.201.449.142.82zm8.446-.033h-1.408a.245.245 0 0 0-.242.206l-.062.394-.098-.143c-.305-.442-.984-.59-1.662-.59-1.556 0-2.884 1.178-3.143 2.83-.134.824.057 1.613.524 2.162.43.505 1.043.716 1.773.716 1.253 0 1.948-.806 1.948-.806l-.063.391a.245.245 0 0 0 .242.284h1.268a.408.408 0 0 0 .403-.345l.761-4.817a.244.244 0 0 0-.241-.282zm-1.962 2.739c-.136.804-.774 1.343-1.588 1.343-.409 0-.735-.13-.945-.38-.208-.246-.287-.597-.22-.988A1.575 1.575 0 0 1 10.18 4.08c.4 0 .725.132.939.383.214.253.3.606.238.996zm8.043-2.74h1.415c.198 0 .313.222.2.385l-4.703 6.79a.408.408 0 0 1-.336.175h-1.412a.245.245 0 0 1-.2-.387l1.464-2.067-1.557-4.572a.245.245 0 0 1 .232-.324h1.39c.18 0 .34.119.392.292l.826 2.76L19.064 2.9a.41.41 0 0 1 .338-.18z" fill="#253B80"/><path fill-rule="evenodd" clip-rule="evenodd" d="M34.737 7.88 35.943.208A.246.246 0 0 1 36.185 0h1.357c.15 0 .266.134.242.283l-1.19 7.536a.408.408 0 0 1-.403.345h-1.213a.244.244 0 0 1-.241-.283zM25.499 0h-2.94c-.2 0-.371.147-.403.345l-1.188 7.536a.245.245 0 0 0 .241.283h1.509c.14 0 .26-.103.282-.242l.337-2.136a.408.408 0 0 1 .403-.345h.93c1.936 0 3.053-.937 3.346-2.793.132-.812.005-1.45-.375-1.897C27.223.26 26.483 0 25.499 0zm.34 2.753c-.161 1.054-.967 1.054-1.746 1.054h-.444l.312-1.97a.244.244 0 0 1 .241-.206h.204c.53 0 1.031 0 1.29.303.154.18.201.448.142.819zm8.445-.034h-1.407a.244.244 0 0 0-.241.207l-.063.393-.098-.142c-.305-.443-.984-.59-1.662-.59-1.555 0-2.883 1.177-3.142 2.83-.134.824.056 1.612.524 2.162.43.505 1.042.715 1.773.715 1.253 0 1.948-.805 1.948-.805l-.063.39a.245.245 0 0 0 .242.284h1.267c.201 0 .372-.146.404-.345l.76-4.816a.245.245 0 0 0-.242-.283zm-1.962 2.739c-.135.804-.774 1.344-1.588 1.344-.408 0-.735-.131-.945-.38-.208-.246-.286-.598-.22-.989a1.576 1.576 0 0 1 1.576-1.354c.4 0 .725.133.94.383.214.253.3.607.237.996z" fill="#179BD7"/></svg>