<svg width="126" height="48" fill="none" xmlns="http://www.w3.org/2000/svg"><g opacity=".4" fill="#fff"><path d="m86.022 27.263 1.26.376c-.084.356-.21.648-.399.878-.189.23-.399.418-.671.523-.273.125-.61.188-1.03.188-.503 0-.902-.063-1.238-.209-.315-.146-.588-.397-.819-.773-.231-.356-.357-.837-.357-1.401 0-.753.21-1.338.609-1.756.399-.418.987-.607 1.722-.607.588 0 1.028.126 1.364.356.336.23.588.585.735 1.087l-1.26.272c-.041-.147-.083-.251-.146-.314a.855.855 0 0 0-.294-.25.827.827 0 0 0-.378-.084c-.315 0-.567.125-.735.397-.126.188-.19.502-.19.899 0 .502.085.857.232 1.045.147.188.378.293.65.293.274 0 .484-.084.61-.23.168-.188.273-.397.335-.69zM87.787 26.844c0-.752.21-1.338.63-1.756.42-.418 1.007-.627 1.763-.627.777 0 1.365.209 1.785.606.42.418.63.983.63 1.735 0 .544-.084.983-.273 1.317a1.944 1.944 0 0 1-.798.795c-.336.188-.777.293-1.28.293-.526 0-.946-.084-1.303-.251-.335-.168-.609-.418-.84-.795-.23-.376-.314-.773-.314-1.317zm1.427 0c0 .46.084.795.252 1.004.168.209.4.313.714.313.315 0 .546-.104.714-.292.168-.21.252-.565.252-1.067 0-.439-.084-.752-.273-.94-.168-.21-.42-.293-.714-.293s-.525.105-.693.314c-.168.167-.252.501-.252.961zM93.33 24.545h1.868l.714 2.801.714-2.801h1.869v4.6h-1.176v-3.513l-.903 3.512h-1.05l-.903-3.512v3.512h-1.175v-4.6h.042zM99.418 24.545h2.373c.525 0 .903.125 1.155.376s.378.586.378 1.046c0 .46-.147.836-.42 1.087-.273.271-.714.397-1.281.397h-.777v1.714h-1.428v-4.62zm1.428 1.965h.357c.273 0 .462-.042.588-.146.105-.105.168-.21.168-.356a.503.503 0 0 0-.147-.376c-.105-.105-.273-.146-.546-.146h-.399v1.024h-.021zM104.08 24.545h1.427v3.47h2.226v1.13h-3.653v-4.6zM108.447 24.545h1.428v4.6h-1.428v-4.6zM113.738 28.37h-1.617l-.231.753h-1.449l1.743-4.6h1.554l1.743 4.6h-1.491l-.252-.753zm-.294-.983-.504-1.651-.504 1.651h1.008zM115.922 24.545h1.323l1.742 2.55v-2.55h1.344v4.6h-1.344l-1.721-2.53v2.53h-1.344v-4.6zM120.961 24.545h4.346v1.129h-1.449v3.47h-1.427v-3.47h-1.449v-1.13h-.021z"/><path fill-rule="evenodd" clip-rule="evenodd" d="m72.984 30.25-4.136 1.297c.818-1.442 1.805-3.031 2.792-4.265l1.344 2.969zM59.336 0l8.105 17.98a501.4 501.4 0 0 0-6.28 8.767V14.812h-7.348V30.79c-1.014-.684-2.08-1.165-3.107-1.337v-.802c0-.062-.042-.083-.084-.041 0 0-.798.627-4.284.982-.986.105-1.47.063-1.826 0-4.956-.836-5.186-4.432-5.186-4.432 0-.034-.007-.082-.013-.124a.787.787 0 0 1-.008-.085v-1.38c0-.062 0-.167.02-.209 0 0 .336-3.867 5.187-4.285h1.826c2.121.271 3.843 1.317 3.843 1.317.063.02.105 0 .105-.063v-4.85c0-.063-.042-.126-.105-.168 0 0-.966-.627-3.906-.794-.146-.084-2.73-.104-3.422 0-10.708.857-11.107 8.571-11.107 8.906v1.881c0 .23 0 8.112 11.107 8.802.891.068 2.467.025 3.131.007l.291-.007h.036c.234 1.294.876 2.681 1.771 3.962L16.44 48 0 3.345 59.336 0zm2.645 8.77c0 2.341-2.016 4.223-4.494 4.223-2.477 0-4.493-1.902-4.493-4.223 0-2.342 2.016-4.223 4.493-4.223 2.478 0 4.494 1.881 4.494 4.223zM11.337 33.878c0 .063.042.105.105.105h7.16c.063 0 .105-.042.105-.105v-5.561c0-.063.042-.105.105-.105 0 0 11.443.816 11.443-6.815 0-6.042-7.18-6.69-9.532-6.585h-9.28c-.064 0-.106.042-.106.104v18.962zm7.244-9.91v-4.996h1.764s2.54.105 2.75 1.84c.042.125.042.982 0 1.024-.336 2.028-2.54 2.133-2.54 2.133H18.58z"/><path d="M57.699 43.17c.587 0 1.05 0 1.805-.335 2.604-1.359 11.401-22.745 20.682-29.33a.638.638 0 0 0 .168-.168c.063-.084.063-.167.063-.167s0-.44-1.365-.44c-8.252-.23-16.84 17.018-21.354 23.833-.063.084-.356 0-.356 0s-3.024-3.553-5.648-4.912c-.064-.021-.357-.126-.672-.105-.21 0-1.428.251-1.995.836-.672.711-.651 1.108-.651 1.965 0 .063.042.356.126.502.65 1.13 3.57 5.143 5.984 7.36.357.27.924.96 3.213.96zM82.621 7.045h6.866c1.365 0 2.457.188 3.275.543.84.377 1.533.9 2.058 1.568.546.69.945 1.485 1.176 2.384.252.899.378 1.86.378 2.885 0 1.589-.19 2.822-.546 3.7a6.13 6.13 0 0 1-1.512 2.216c-.65.585-1.344.983-2.079 1.192-1.007.271-1.931.397-2.75.397h-6.866V7.045zm4.62 3.366v8.132h1.133c.966 0 1.659-.104 2.058-.313.399-.21.735-.586.966-1.108.23-.523.357-1.401.357-2.593 0-1.589-.252-2.655-.777-3.24-.525-.585-1.365-.878-2.583-.878H87.24zM97.654 17.017l4.41-.271c.105.71.294 1.254.587 1.63.483.607 1.155.9 2.037.9.651 0 1.176-.147 1.533-.46.357-.314.546-.67.546-1.067 0-.376-.168-.732-.504-1.045-.336-.314-1.134-.586-2.373-.857-2.036-.46-3.464-1.067-4.346-1.82-.882-.752-1.302-1.713-1.302-2.884 0-.774.231-1.485.672-2.174.441-.69 1.113-1.213 2.016-1.61s2.12-.586 3.674-.586c1.911 0 3.381.356 4.367 1.067 1.008.71 1.596 1.84 1.785 3.386l-4.367.251c-.126-.669-.357-1.15-.735-1.463-.378-.314-.882-.46-1.533-.46-.546 0-.945.104-1.218.334-.273.23-.399.502-.399.837 0 .23.105.46.336.648.21.188.735.376 1.554.543 2.016.44 3.465.878 4.346 1.317.882.44 1.512 1.004 1.911 1.652.399.648.588 1.4.588 2.216 0 .962-.273 1.84-.798 2.634-.525.815-1.281 1.422-2.225 1.84-.945.418-2.163.627-3.612.627-2.54 0-4.304-.48-5.291-1.463-.966-.983-1.512-2.216-1.659-3.722zM112.415 17.017l4.409-.271c.105.71.294 1.254.588 1.63.483.607 1.155.9 2.037.9.651 0 1.176-.147 1.533-.46.357-.314.546-.67.546-1.067 0-.376-.168-.732-.504-1.045-.336-.314-1.134-.586-2.373-.857-2.037-.46-3.464-1.067-4.346-1.82-.861-.752-1.302-1.713-1.302-2.884 0-.774.231-1.485.672-2.174.441-.69 1.113-1.213 2.015-1.61.903-.397 2.121-.586 3.675-.586 1.911 0 3.38.356 4.367 1.067 1.008.71 1.596 1.84 1.785 3.386l-4.367.251c-.126-.669-.357-1.15-.735-1.463-.378-.314-.882-.46-1.533-.46-.546 0-.945.104-1.218.334-.273.23-.399.502-.399.837 0 .23.105.46.336.648.21.188.735.376 1.554.543 2.016.44 3.464.878 4.346 1.317.882.44 1.512 1.004 1.911 1.652.399.648.588 1.4.588 2.216 0 .962-.273 1.84-.798 2.634-.525.815-1.281 1.422-2.226 1.84-.945.418-2.162.627-3.611.627-2.541 0-4.304-.48-5.291-1.463-.987-.983-1.533-2.216-1.659-3.722z"/></g></svg>