<svg width="130" height="40" fill="none" xmlns="http://www.w3.org/2000/svg"><g clip-path="url(#a)" fill="#161F49"><path d="M36.494 16.85c-.017-.04-.027-.08-.043-.12-1.004-2.47-4.817-3.22-9.212-2.09l-.72-.452c2.163-.937 4.318-1.427 6.124-1.293 2.693.205 4.01 1.745 3.85 3.956zm-3.908 5.19c-2.818 3.602-7.91 6.096-11.376 5.838-3.46-.263-3.985-3.394-1.166-6.997.056-.074.117-.147.176-.22l.009 4.516c-.019 1.149 1.083 1.688 1.874 1.232l10.361-6.345c.81-.527.725-1.706-.038-2.16l-4.201-2.428c1.136-.343 2.226-.505 3.194-.433 3.462.263 3.983 3.393 1.167 6.996zm-13.178 7.777c-3.18-.24-4.448-2.346-3.62-5.212-.005.478.07.936.246 1.361 1.242 3.069 6.822 3.484 12.46.937.116-.052.23-.11.344-.16-3.165 2.051-6.692 3.277-9.43 3.074zm3.663-16.04 6.956 4.402c.514.309.576 1.114.028 1.472l-7.026 4.302c-.536.31-1.289-.059-1.274-.844l-.033-8.542c.03-.713.732-1.144 1.35-.79zm16.1 1.585c-1.457-3.598-7.51-4.39-14.062-2.062L22.2 11.471c-.905-.52-1.939.113-1.989 1.165l.002 2.97c-5.646 3.398-8.92 8.288-7.526 11.73 1.615 3.977 8.851 4.522 16.163 1.215 7.313-3.305 11.933-9.211 10.32-13.19zM44.983 20.546l-.631 2.335c-.095.356-.167.68-.225.959-.06.293-.085.503-.085.633 0 .25.068.441.206.585.146.143.338.213.574.213.371 0 .757-.21 1.156-.63.397-.42.778-1.021 1.15-1.809.444-1.008.807-2 1.086-2.992.27-.981.412-1.753.412-2.303 0-.399-.082-.721-.242-.96-.161-.243-.367-.367-.608-.367-.55 0-1.052.358-1.512 1.061-.46.711-.887 1.8-1.28 3.275zm-3.968-5.425a56.766 56.766 0 0 0 2.804-.297 40.03 40.03 0 0 0 2.572-.411l-.696 2.503c.695-.968 1.357-1.679 1.992-2.116.622-.452 1.27-.667 1.95-.667.926 0 1.645.294 2.145.879.507.59.755 1.43.755 2.515 0 .916-.17 1.883-.516 2.893a11.35 11.35 0 0 1-1.449 2.824c-.719 1.014-1.477 1.775-2.288 2.278-.815.507-1.673.763-2.589.763-.375 0-.726-.052-1.058-.165a3.051 3.051 0 0 1-.889-.49l-.712 2.714a2.861 2.861 0 0 0-.106.507 3.082 3.082 0 0 0-.034.503c0 .326.093.563.285.695.194.13.584.212 1.17.249v.634h-6.638v-.662a.56.56 0 0 0 .097-.01.449.449 0 0 1 .095-.015c.413 0 .72-.107.926-.324.208-.217.419-.781.642-1.701l2.642-10.808c.046-.173.081-.349.11-.516.026-.162.042-.295.042-.384 0-.297-.09-.496-.262-.605-.178-.122-.509-.178-.99-.178v-.608z"/><path d="M53.195 9.16c.993-.081 1.94-.19 2.861-.322a32.323 32.323 0 0 0 2.599-.469l-3.646 14.492a6.84 6.84 0 0 0-.083.301 1.715 1.715 0 0 0-.065.372c0 .17.031.306.098.4.07.097.17.144.298.144.131 0 .28-.09.45-.276.169-.183.497-.662.984-1.44l.582.444c-.732 1.23-1.437 2.124-2.1 2.678-.663.552-1.352.827-2.072.827-.635 0-1.13-.176-1.473-.536-.346-.36-.516-.877-.516-1.546 0-.329.177-1.202.527-2.616l.036-.143 2.42-9.432c.021-.086.052-.215.09-.385.155-.62.223-1.02.223-1.193 0-.237-.08-.41-.245-.525-.16-.11-.412-.17-.76-.17h-.208v-.606z"/><path d="M64.61 16.664c0-.347-.073-.621-.224-.828a.698.698 0 0 0-.59-.306c-.348 0-.681.169-1.005.514-.324.348-.694.924-1.12 1.73-.495.96-.885 1.895-1.164 2.818-.288.931-.43 1.718-.43 2.371 0 .397.08.703.236.936.158.218.375.33.639.33.391 0 .79-.234 1.205-.712.412-.474.803-1.144 1.173-2.006a23.1 23.1 0 0 0 .928-2.79c.233-.898.352-1.583.352-2.057zm4.398-2.126-1.945 7.168v.026c-.296 1.104-.445 1.746-.445 1.93 0 .17.029.307.098.413.063.107.147.154.259.154.314 0 .725-.38 1.219-1.144.149-.218.264-.39.342-.51l.565.447c-.635 1.12-1.267 1.946-1.913 2.473-.645.53-1.342.79-2.085.79-.619 0-1.092-.138-1.41-.41-.329-.283-.489-.685-.489-1.222 0-.16.012-.365.046-.606.029-.246.08-.563.147-.95-.587 1.078-1.228 1.881-1.92 2.4a3.698 3.698 0 0 1-2.306.788c-.877 0-1.567-.273-2.074-.823-.509-.556-.763-1.31-.763-2.268 0-1.105.24-2.267.734-3.496.486-1.213 1.14-2.3 1.965-3.233.65-.75 1.324-1.325 2.024-1.73.705-.403 1.379-.602 2.027-.602.62 0 1.101.152 1.459.452.357.305.591.77.704 1.387l.358-1.434h3.403z"/><path d="M67.874 15.53v-.662a76.547 76.547 0 0 0 2.885-.387c.97-.148 1.499-.22 1.572-.22.39 0 .902 1.724 1.52 5.18.252 1.375.458 2.483.62 3.312.737-1.502 1.242-2.598 1.514-3.284.272-.681.405-1.189.405-1.513 0-.25-.227-.556-.68-.904-.453-.351-.684-.755-.684-1.202 0-.517.157-.933.477-1.25.313-.31.731-.467 1.254-.467.517 0 .925.156 1.217.468.288.316.437.758.437 1.32 0 .708-.338 1.847-1.008 3.414-.672 1.564-1.59 3.325-2.753 5.295-1.315 2.246-2.516 3.876-3.593 4.908-1.078 1.032-2.115 1.545-3.113 1.545-.663 0-1.182-.148-1.562-.444-.377-.299-.568-.707-.568-1.227 0-.473.162-.856.493-1.167.326-.308.74-.46 1.245-.46.394 0 .818.158 1.27.47.45.317.757.467.906.467.272 0 .578-.229.924-.685.356-.462.534-.895.534-1.316 0-.306-.029-.697-.083-1.166a38.8 38.8 0 0 0-.248-1.738c-.23-1.473-.462-2.817-.693-4.024-.238-1.204-.449-2.156-.638-2.851-.167-.597-.334-.985-.504-1.168-.17-.182-.444-.271-.837-.271h-.03a2.14 2.14 0 0 1-.279.026z"/><path d="M83.043 23.044c-.733 1.037-1.453 1.833-2.154 2.383-.694.555-1.33.831-1.906.831-.465 0-.828-.155-1.096-.453-.267-.305-.404-.714-.404-1.226 0-.18.019-.38.054-.605a6.67 6.67 0 0 1 .154-.743l2.092-8.21H77.58l.206-.706a5.179 5.179 0 0 0 2.513-1.363c.727-.704 1.387-1.676 1.967-2.921h.751l-.982 4.122h2.011l-.203.868H81.77l-2.008 7.93c-.046.18-.081.338-.106.487-.017.145-.032.278-.032.39 0 .264.057.463.175.605.11.14.275.209.476.209.263 0 .572-.154.938-.476.365-.315.827-.833 1.38-1.547l.45.425z"/><path d="M85.097 20.341c1.619-.078 2.983-.523 4.077-1.326 1.102-.815 1.646-1.73 1.646-2.768 0-.348-.088-.609-.263-.784-.17-.169-.434-.255-.788-.255-.98 0-1.892.446-2.726 1.356-.835.916-1.48 2.173-1.946 3.777zm-.191.87c-.076.294-.124.58-.158.85-.04.263-.051.51-.051.734 0 .687.166 1.212.507 1.574.336.362.83.63 1.476.63.636 0 1.367-.303 2.171-.742.814-.435 1.73-1.095 2.738-1.976l.532.81c-1.203 1.088-2.336 1.894-3.401 2.408-1.062.525-2.102.781-3.123.781-1 0-1.784-.304-2.334-.902-.555-.605-.83-1.454-.83-2.56 0-1.056.215-2.132.646-3.221a9.842 9.842 0 0 1 1.768-2.903c.723-.809 1.519-1.422 2.375-1.852.869-.424 1.755-.644 2.667-.644.84 0 1.499.198 1.985.59.486.39.73.926.73 1.61 0 1.23-.713 2.298-2.128 3.197-1.417.896-3.274 1.43-5.57 1.616z"/><path d="m100.72 21.38-.032 1.554c-.762 1.12-1.588 1.955-2.487 2.512a5.52 5.52 0 0 1-2.945.828c-1.164 0-2.116-.391-2.846-1.183-.728-.78-1.091-1.817-1.091-3.107 0-.947.206-1.913.618-2.9.407-.99.98-1.868 1.71-2.649.668-.706 1.418-1.258 2.249-1.636a5.911 5.911 0 0 1 2.531-.583c.91 0 1.631.213 2.17.63.538.417.807.972.807 1.67 0 .416-.137.775-.42 1.07a1.307 1.307 0 0 1-.993.445c-.315 0-.57-.1-.764-.31-.195-.206-.292-.474-.292-.81 0-.233.076-.5.236-.81.154-.307.228-.498.228-.575 0-.144-.075-.259-.237-.349-.16-.09-.373-.134-.648-.134-.56 0-1.127.172-1.712.526-.58.36-1.087.845-1.522 1.461a9.294 9.294 0 0 0-1.228 2.38 7.606 7.606 0 0 0-.424 2.457c0 .91.227 1.638.688 2.169.464.532 1.088.892 1.878.892.623 0 1.235-.292 1.836-.682.605-.397 1.607-1.187 2.69-2.866z"/><path d="m99.348 26.287 4.118-14.984a1.71 1.71 0 0 0 .05-.284c.016-.092.02-.188.02-.264 0-.267-.068-.45-.196-.554-.13-.091-.504-.142-1.114-.142h-.938l.145-.683c.756-.03 1.463-.12 2.121-.25a11.288 11.288 0 0 0 1.853-.546h.744l-2.85 10.35c1.459-1.494 2.804-2.65 4.027-3.484 1.22-.819 2.195-1.234 2.922-1.234.384 0 .661.091.846.275.179.189.276.475.276.86 0 .12-.019.264-.055.436a8.663 8.663 0 0 1-.129.583l-2.08 7.05a4.478 4.478 0 0 0-.098.451 2.766 2.766 0 0 0-.043.479c0 .09.043.17.118.242.075.07.166.192.264.192.203 0 .488-.224.844-.502.359-.278.736-.658 1.134-1.139l.424.366c-.716.892-1.407 1.58-2.069 2.047-.665.473-1.279.712-1.838.712-.366 0-.654-.09-.865-.268-.215-.181-.317-.422-.317-.736 0-.11.009-.23.034-.357.021-.126.062-.262.112-.413l2.138-7.292c.039-.16.064-.282.078-.364.013-.08.017-.16.017-.227 0-.186-.05-.328-.158-.428-.102-.093-.251-.141-.447-.141-.304 0-.754.19-1.345.576-.597.385-1.276.936-2.059 1.648-.699.63-1.216 1.167-1.541 1.611a4.674 4.674 0 0 0-.709 1.385l-1.418 5.03c-.161-.025-.734-.044-.901-.055-.166-.012.077-.012-.095-.012-.174 0-.347 0-.515.012-.163.011-.332.03-.505.054zM74.885 30.409v.195c0 .1.01.192.037.28.06.236.25.354.577.354.122 0 .232-.016.33-.05.224-.069.336-.237.343-.5a.485.485 0 0 0-.22-.42 3.19 3.19 0 0 0-.368-.202l-.431-.196a2.446 2.446 0 0 1-.426-.234c-.237-.167-.357-.404-.357-.715.003-.341.138-.581.4-.724.196-.107.463-.163.805-.166.416 0 .717.08.9.238.146.127.22.377.22.75v.07h-.591v-.084l-.012-.182c-.037-.272-.212-.404-.526-.398-.398 0-.6.16-.604.481 0 .204.125.37.374.498.156.082.33.162.523.245.197.08.355.158.477.232.285.175.429.437.429.791-.006.637-.427.958-1.265.958-.359.005-.635-.056-.829-.178a.765.765 0 0 1-.368-.622l-.008-.281v-.14h.59zM77.16 29.211c.002-.287.03-.497.08-.631.08-.211.254-.363.523-.45.194-.066.403-.099.627-.099.221 0 .43.033.627.099.265.087.438.239.519.45.05.13.078.344.082.631v1.173c0 .211-.011.395-.035.548-.066.462-.458.696-1.176.698-.52 0-.87-.107-1.048-.325-.135-.162-.202-.47-.199-.92V29.21zm.593 1.17c.002.294.023.487.063.572.04.087.118.158.228.21.113.05.228.075.346.075.107 0 .211-.02.31-.064a.454.454 0 0 0 .31-.4c.009-.11.014-.24.016-.394v-1.172c.004-.254-.026-.433-.084-.536-.094-.165-.279-.249-.552-.247a.807.807 0 0 0-.299.052.452.452 0 0 0-.324.407 2.16 2.16 0 0 0-.014.324v1.172zM80.154 28.081h.59v2.336l.006.308c.02.34.218.511.59.513.374 0 .58-.16.615-.48.013-.113.02-.226.022-.341V28.08h.592v2.373a4.89 4.89 0 0 1-.02.451.649.649 0 0 1-.198.408c-.216.212-.546.315-.992.317-.462-.002-.795-.104-.998-.311a.67.67 0 0 1-.192-.414 4.853 4.853 0 0 1-.015-.45V28.08zM84.11 28.081h.353c.137 0 .262.013.376.032.437.07.657.349.664.84 0 .258-.058.451-.172.588-.112.127-.33.213-.652.26.2.019.345.047.433.089a.431.431 0 0 1 .237.304c.02.092.033.201.038.324l.026.412a1.974 1.974 0 0 0 .136.65h-.615l-.06-.224a1.199 1.199 0 0 1-.033-.24l-.023-.315-.02-.328c-.028-.25-.148-.402-.361-.451a1.543 1.543 0 0 0-.31-.029h-.408v1.587h-.593v-3.499h.984zm-.39.394v1.123h.422c.126 0 .232-.008.327-.021.18-.03.306-.102.376-.22.045-.078.067-.207.067-.388 0-.194-.066-.33-.198-.405-.096-.057-.274-.087-.539-.089h-.456zM87.729 29.004l-.003-.162c-.015-.28-.18-.419-.498-.417-.282.001-.465.075-.55.22a.437.437 0 0 0-.078.215l-.005.288v1.38c.002.251.026.413.071.484.098.15.267.226.507.226.313-.002.492-.15.531-.447l.025-.226v-.12h.591v.122l-.005.219c-.02.261-.107.46-.268.6a.832.832 0 0 1-.344.18 1.916 1.916 0 0 1-.512.064 2.056 2.056 0 0 1-.454-.041c-.488-.092-.732-.418-.735-.981v-1.394c0-.153.007-.292.029-.423a.791.791 0 0 1 .158-.399c.189-.236.527-.357 1.015-.36.681.003 1.05.22 1.101.65.01.083.015.175.015.276v.136h-.592v-.09zM88.836 28.081h1.936v.394h-1.344v1.11h1.26v.393h-1.26v1.207h1.38v.395h-1.972v-3.499zM92.343 29.211c0-.287.026-.497.078-.631.079-.211.253-.363.522-.45.194-.066.403-.099.628-.099.22 0 .43.033.629.099.263.087.436.239.519.45.05.13.077.344.081.631v1.173c0 .211-.012.395-.033.548-.07.462-.46.696-1.18.698-.521 0-.87-.107-1.046-.325-.135-.162-.201-.47-.198-.92V29.21zm.59 1.17c.003.294.025.487.066.572a.44.44 0 0 0 .227.21c.112.05.227.075.345.075.109 0 .21-.02.31-.064a.455.455 0 0 0 .308-.4c.01-.11.017-.24.018-.394v-1.172c.004-.254-.025-.433-.084-.536-.094-.165-.28-.249-.552-.247a.802.802 0 0 0-.298.052.45.45 0 0 0-.323.407c-.014.093-.019.201-.017.324v1.172zM97.225 28.081v.394h-1.294v1.106h1.245v.393h-1.245v1.606h-.592v-3.499h1.886zM99.193 30.409v.195c-.003.1.008.192.035.28.059.236.252.354.576.354.122 0 .232-.016.332-.05.221-.069.335-.237.343-.5a.483.483 0 0 0-.22-.42 3.166 3.166 0 0 0-.37-.202l-.43-.196a2.626 2.626 0 0 1-.428-.234c-.234-.167-.354-.404-.354-.715.005-.341.136-.581.4-.724.194-.107.463-.163.803-.166.416 0 .716.08.903.238.146.127.218.377.218.75v.07h-.591v-.084l-.012-.182c-.037-.272-.211-.404-.526-.398-.4 0-.599.16-.605.481 0 .204.127.37.375.498.154.082.33.162.524.245.195.08.355.158.478.232.283.175.427.437.427.791-.007.637-.427.958-1.264.958-.36.005-.637-.056-.829-.178a.758.758 0 0 1-.368-.622l-.01-.281v-.14h.593zM101.488 28.081h.591v2.336l.005.308c.02.34.219.511.59.513.374 0 .579-.16.615-.48.012-.113.019-.226.021-.341V28.08h.592v2.373a4.383 4.383 0 0 1-.022.451.64.64 0 0 1-.194.408c-.218.212-.55.315-.993.317-.462-.002-.797-.104-1.001-.311a.683.683 0 0 1-.19-.414 5.346 5.346 0 0 1-.013-.45l-.001-2.374zM106.207 29.004l-.004-.162c-.013-.28-.181-.419-.499-.417-.281.001-.464.075-.55.22a.46.46 0 0 0-.078.215l-.005.288v1.38c.003.251.027.413.075.484.095.15.265.226.504.226.314-.002.492-.15.533-.447l.023-.226v-.12h.592v.122l-.006.219c-.017.261-.108.46-.268.6a.838.838 0 0 1-.344.18 1.926 1.926 0 0 1-.511.064 2.03 2.03 0 0 1-.454-.041c-.488-.092-.732-.418-.733-.981v-1.394a2.472 2.472 0 0 1 .026-.423.762.762 0 0 1 .158-.399c.19-.236.527-.357 1.016-.36.682.003 1.05.22 1.101.65.009.083.015.175.015.276v.136h-.592l.001-.09zM109.063 29.004l-.003-.162c-.015-.28-.179-.419-.499-.417-.282.001-.465.075-.551.22a.407.407 0 0 0-.075.215l-.007.288v1.38c.002.251.027.413.072.484.098.15.267.226.506.226.315-.002.492-.15.532-.447l.024-.226v-.12h.592v.122l-.005.219c-.02.261-.109.46-.268.6a.83.83 0 0 1-.345.18 1.913 1.913 0 0 1-.512.064 2.033 2.033 0 0 1-.453-.041c-.488-.092-.732-.418-.735-.981v-1.394a2.464 2.464 0 0 1 .028-.423.778.778 0 0 1 .157-.399c.19-.236.529-.357 1.017-.36.682.003 1.049.22 1.101.65.01.083.015.175.015.276v.136h-.592l.001-.09zM110.169 28.081h1.935v.394h-1.343v1.11h1.259v.393h-1.259v1.207h1.381v.395h-1.973v-3.499zM113.011 30.409v.195c-.002.1.01.192.037.28.059.236.25.354.575.354.122 0 .233-.016.332-.05.221-.069.336-.237.345-.5a.492.492 0 0 0-.222-.42 3.23 3.23 0 0 0-.37-.202l-.429-.196a2.493 2.493 0 0 1-.427-.234c-.235-.167-.355-.404-.355-.715.004-.341.135-.581.399-.724.194-.107.462-.163.804-.166.416 0 .716.08.903.238.145.127.218.377.218.75v.07h-.592v-.084l-.012-.182c-.036-.272-.212-.404-.526-.398-.398 0-.6.16-.604.481 0 .204.126.37.373.498.155.082.331.162.526.245.195.08.353.158.477.232.283.175.428.437.428.791-.007.637-.426.958-1.265.958-.361.005-.636-.056-.828-.178a.755.755 0 0 1-.368-.622l-.011-.281v-.14h.592zM115.754 30.409v.195c-.004.1.008.192.035.28.059.236.252.354.576.354a.992.992 0 0 0 .33-.05c.223-.069.337-.237.345-.5a.488.488 0 0 0-.221-.42 3.147 3.147 0 0 0-.37-.202l-.429-.196a2.48 2.48 0 0 1-.426-.234c-.238-.167-.356-.404-.356-.715.003-.341.137-.581.399-.724.195-.107.462-.163.805-.166.417 0 .715.08.901.238.146.127.22.377.22.75v.07h-.591v-.084l-.014-.182c-.035-.272-.212-.404-.527-.398-.396 0-.598.16-.602.481 0 .204.124.37.375.498.153.082.328.162.523.245.196.08.354.158.475.232.286.175.43.437.43.791-.007.637-.428.958-1.264.958-.359.005-.635-.056-.828-.178a.754.754 0 0 1-.369-.622l-.011-.281v-.14h.594z"/></g><defs><clipPath id="a"><path fill="#fff" transform="translate(12 8)" d="M0 0h106v24H0z"/></clipPath></defs></svg>