<svg width="28" height="28" fill="none" xmlns="http://www.w3.org/2000/svg"><path d="M13.998 2.333c-3.51 0-5.785 2.356-8.476 3.214-1.094.35-1.64.524-1.862.77-.221.246-.286.606-.416 1.325-1.387 7.695 1.645 14.81 8.878 17.578.777.298 1.165.447 1.88.447.714 0 1.102-.15 1.88-.447 7.231-2.769 10.261-9.883 8.873-17.578-.13-.72-.194-1.08-.416-1.325-.221-.246-.768-.42-1.862-.77-2.692-.858-4.97-3.214-8.48-3.214z" stroke="#5E87F1" stroke-width="1.5" stroke-linecap="round" stroke-linejoin="round"/><path d="M12.06 12.11c-1.26 0-1.89.91-2.03 1.47-.14.56-.14 2.59-.056 3.43.28 1.05.98 1.484 1.666 1.624.63.056 3.29.035 4.06.035 1.12.02 1.96-.4 2.31-1.66.07-.42.14-2.73-.035-3.43-.371-1.12-1.295-1.47-1.995-1.47h-3.92zM11.959 11.618c0-.07.01-.473.01-.98.002-.463-.038-.91.183-1.318.829-1.65 3.209-1.482 3.796.198.102.277.108.715.105 1.12-.003.518.008.98.008.98" stroke="#5E87F1" stroke-width="1.5" stroke-linecap="round"/></svg>