<svg width="28" height="28" fill="none" xmlns="http://www.w3.org/2000/svg"><path d="M5.833 10.5c0-3.85 0-5.775 1.196-6.97C8.225 2.333 10.15 2.333 14 2.333s5.775 0 6.97 1.195c1.197 1.196 1.197 3.121 1.197 6.971v7c0 3.85 0 5.775-1.196 6.97-1.196 1.197-3.121 1.197-6.97 1.197-3.85 0-5.776 0-6.972-1.196-1.196-1.196-1.196-3.121-1.196-6.97v-7z" stroke="#5E87F1" stroke-width="1.5" stroke-linecap="round"/><path d="M12.834 22.166h2.333" stroke="#5E87F1" stroke-width="1.5" stroke-linecap="round" stroke-linejoin="round"/><path d="m10.5 2.333.104.624c.225 1.35.337 2.025.8 2.436.483.428 1.168.44 2.596.44 1.428 0 2.113-.012 2.596-.44.463-.411.575-1.086.8-2.436l.104-.623" stroke="#5E87F1" stroke-width="1.5" stroke-linejoin="round"/></svg>