<svg width="16" height="16" fill="none" xmlns="http://www.w3.org/2000/svg"><g opacity=".4" stroke="#fff"><path d="M2.845 12.563c.15 1.114 1.072 1.986 2.195 2.038a63.64 63.64 0 0 0 2.96.066c1.056 0 2.016-.023 2.96-.066 1.122-.052 2.045-.924 2.195-2.038.098-.727.178-1.471.178-2.23 0-.758-.08-1.503-.178-2.23-.15-1.113-1.073-1.985-2.195-2.037A63.626 63.626 0 0 0 8 6c-1.057 0-2.016.023-2.96.066-1.123.052-2.045.924-2.195 2.038-.098.726-.179 1.47-.179 2.23 0 .758.081 1.502.179 2.23z" stroke-width="1.5"/><path d="M5 6V4.335a3 3 0 0 1 6 0v1.667" stroke-width="1.5" stroke-linecap="round" stroke-linejoin="round"/><path d="M7.998 10.334h.006" stroke-width="2" stroke-linecap="round" stroke-linejoin="round"/></g></svg>