<svg width="32" height="32" fill="none" xmlns="http://www.w3.org/2000/svg"><path d="m18.304 4.592 2.346 4.732c.32.659 1.173 1.29 1.893 1.411l4.253.713c2.72.457 3.36 2.446 1.4 4.409L24.89 19.19c-.56.565-.867 1.654-.694 2.433l.947 4.127c.747 3.267-.973 4.53-3.84 2.823l-3.986-2.38c-.72-.43-1.906-.43-2.64 0l-3.986 2.38c-2.853 1.707-4.586.43-3.84-2.823l.947-4.127c.174-.78-.133-1.868-.693-2.433L3.8 15.857c-1.947-1.963-1.32-3.952 1.4-4.41l4.252-.712c.707-.12 1.56-.752 1.88-1.411l2.347-4.732c1.28-2.567 3.36-2.567 4.626 0z" fill="#FFBE41"/></svg>