<svg width="44" height="18" fill="none" xmlns="http://www.w3.org/2000/svg"><path d="M30.31 3.707a3.215 3.215 0 0 0-2.281.932l-.15-.739h-2.561v13.843l2.914-.632v-3.354c.58.486 1.312.751 2.068.75 2.079 0 3.986-1.703 3.986-5.475 0-3.45-1.929-5.325-3.975-5.325zm-.696 8.175a1.725 1.725 0 0 1-1.371-.557V6.921a1.757 1.757 0 0 1 1.393-.589c1.071 0 1.8 1.21 1.8 2.764 0 1.554-.74 2.786-1.822 2.786zM39.664 3.707c-2.807 0-4.51 2.422-4.51 5.475 0 3.61 2.014 5.443 4.885 5.443a6.557 6.557 0 0 0 3.215-.782v-2.41a6.203 6.203 0 0 1-2.893.663c-1.157 0-2.143-.417-2.293-1.821h5.764V9.204c.097-3.075-1.36-5.497-4.168-5.497zm-1.575 4.36c0-1.35.825-1.917 1.554-1.917.728 0 1.5.568 1.5 1.918h-3.054zM17.454 4.704l-.183-.879h-2.485v10.404h2.871v-7.05a2.003 2.003 0 0 1 2.197-.622V3.825a1.929 1.929 0 0 0-2.4.879zM2.946 6.954c0-.472.386-.654.997-.654a6.321 6.321 0 0 1 2.893.771V4.254a7.5 7.5 0 0 0-2.893-.547C1.575 3.707 0 4.971 0 7.093c0 3.321 4.436 2.786 4.436 4.21 0 .558-.472.74-1.072.74a7.265 7.265 0 0 1-3.214-.964v2.882a7.906 7.906 0 0 0 3.214.685c2.422 0 4.093-1.232 4.093-3.385-.053-3.6-4.51-2.957-4.51-4.307zM11.325 1.36l-2.84.622v9.568a2.967 2.967 0 0 0 3.022 3.075 4.457 4.457 0 0 0 2.047-.396v-2.411c-.375.16-2.208.707-2.208-1.072V6.461h2.208V3.954h-2.208l-.021-2.593zM20.936 2.925l2.925-.61V0l-2.925.61v2.315zM23.86 3.9h-2.924v10.329h2.925V3.9z" fill="#6772E5"/></svg>