<svg width="28" height="28" fill="none" xmlns="http://www.w3.org/2000/svg"><path d="M8.153 7.031c-.077-1.074.585-3.199 2.4-4.087.748-.455 2.803-1.159 4.768.096 1.936 1.236 2.067 3.059 2.189 3.979" stroke="#5E87F1" stroke-width="1.5"/><path d="M20.026 25.668c-.052-1.909.068-2.098.208-2.522.14-.425 1.115-1.956 1.46-3.05 1.118-3.54.076-4.293-1.312-5.296-1.54-1.113-4.31-1.666-5.75-1.544V7.61c0-.96-.921-1.746-1.904-1.746-.984 0-1.887.786-1.887 1.746v9.697l-2.006-1.739c-.653-.692-1.702-.762-2.418-.133a1.69 1.69 0 0 0-.228 2.313l1.319 1.71m0 0c.284.36.602.768.963 1.247m-.963-1.248.963 1.248m-.963-1.248c-.583-.74-1.024-1.278-1.403-1.812m4.68 8.023v-.995c.044-1.229-.87-2.03-2.063-3.633l-.25-.335m0 0 1.193 1.547" stroke="#5E87F1" stroke-width="1.5"/></svg>