<svg width="29" height="28" fill="none" xmlns="http://www.w3.org/2000/svg"><path d="M3.133 25.667h12.834c5.799 0 10.5-4.701 10.5-10.5 0-5.8-4.701-10.5-10.5-10.5-5.405 0-9.92 4.083-10.5 9.333" stroke="#5E87F1" stroke-width="1.5" stroke-linecap="round"/><path d="M22.383 6.417 23.55 5.25m-16.334 0 1.167 1.167" stroke="#5E87F1" stroke-width="1.5" stroke-linecap="round" stroke-linejoin="round"/><path d="m20.05 10.5-3.43 3.43m0 0a1.75 1.75 0 1 0-2.475 2.475 1.75 1.75 0 0 0 2.476-2.476z" stroke="#5E87F1" stroke-width="1.5" stroke-linecap="round"/><path d="M15.383 4.083v-1.75M13.05 2.333h4.666M3.133 17.5h3.5M3.133 22.167h5.834" stroke="#5E87F1" stroke-width="1.5" stroke-linecap="round" stroke-linejoin="round"/></svg>