<svg width="47" height="16" fill="none" xmlns="http://www.w3.org/2000/svg"><path d="M33.623 1.117A9.233 9.233 0 0 0 30.263.5c-3.7 0-6.305 1.973-6.321 4.794-.031 2.08 1.865 3.237 3.283 3.93 1.45.71 1.942 1.173 1.942 1.805-.014.97-1.17 1.418-2.25 1.418-1.495 0-2.297-.23-3.515-.771l-.493-.232-.524 3.253c.878.4 2.497.756 4.178.771 3.931 0 6.49-1.942 6.52-4.948.016-1.65-.985-2.913-3.144-3.946-1.31-.663-2.113-1.11-2.113-1.789.015-.616.679-1.248 2.158-1.248a6.365 6.365 0 0 1 2.79.555l.34.154.51-3.13zM20.042 15.252h-3.747L18.638.762h3.747l-2.343 14.49z" fill="#3362AB"/><path fill-rule="evenodd" clip-rule="evenodd" d="M43.227.763H40.33c-.894 0-1.573.261-1.959 1.202l-5.565 13.287h3.931l.787-2.173h4.81c.107.508.447 2.173.447 2.173h3.469L43.227.762zm-4.624 9.356 1.496-4.054c-.007.012.042-.121.114-.321v-.002l.001-.002c.108-.298.267-.74.378-1.062l.261 1.248s.71 3.469.864 4.193h-3.114z" fill="#3362AB"/><path d="m13.166.763-3.67 9.88-.4-2.004-1.31-6.658C7.57 1.055 6.905.793 6.09.763H.062L0 1.055c1.47.376 2.785.918 3.937 1.592l3.34 12.59h3.962L17.128.763h-3.962z" fill="#3362AB"/></svg>