<svg width="28" height="28" fill="none" xmlns="http://www.w3.org/2000/svg"><path d="M7.509 9.333A10.048 10.048 0 0 0 7 12.515C7 17.2 10.134 21 14 21s7-3.8 7-8.485c0-1.125-.18-2.2-.509-3.182M16.917 24.5S16.12 21 14 21c-2.12 0-2.916 3.5-2.916 3.5M21.607 6.101c.34 1.945-1.19 3.232-1.19 3.232s-1.87-.656-2.211-2.601c-.34-1.944 1.19-3.232 1.19-3.232s1.87.657 2.21 2.601z" stroke="#5E87F1" stroke-width="1.5" stroke-linecap="round" stroke-linejoin="round"/><path d="M24.61 14.162c-1.495 1.478-3.52.888-3.52.888s-.529-2.068.966-3.546c1.495-1.478 3.52-.888 3.52-.888s.529 2.069-.966 3.546zM21.272 21.221c-1.75-.672-2.022-2.555-2.022-2.555s1.478-1.21 3.228-.54c1.75.672 2.022 2.555 2.022 2.555s-1.478 1.212-3.228.54zM6.728 21.221c1.75-.672 2.022-2.555 2.022-2.555s-1.478-1.21-3.228-.54c-1.75.672-2.022 2.555-2.022 2.555s1.478 1.212 3.228.54zM3.39 14.162c1.495 1.478 3.52.888 3.52.888s.528-2.068-.966-3.546c-1.495-1.478-3.52-.888-3.52-.888s-.529 2.069.966 3.546zM6.393 6.101c-.34 1.945 1.19 3.232 1.19 3.232s1.87-.656 2.211-2.601c.34-1.944-1.19-3.232-1.19-3.232s-1.87.657-2.21 2.601z" stroke="#5E87F1" stroke-width="1.5" stroke-linecap="round" stroke-linejoin="round"/></svg>